<svg class="elephant" version="1.0" xmlns="http://www.w3.org/2000/svg" width="1930.667" height="1010.667" viewBox="0 0 1448 758">
<path fill="#79294F" d="M302.8 6.3c-.8.9-1.8 4.2-2.1 7.5-1 9.1-3.2 13.8-8.3 17.3-4.6 3.2-5.4 4.5-2.9 5.1.9.2 3.8 4.4 6.4 9.4l4.8 9.1-4.7 10.4-4.8 10.4L269.1 92 247 108.5l-16 23.2-16 23.2-.9 29.6c-1.5 48.2.7 57.4 19.4 81.5 15.2 19.8 27.1 30.7 50 46 23 15.3 44.7 26.5 59.5 30.5 5.2 1.5 10.2 2.9 11 3.2.9.3-.9 1.7-5 3.8l-6.5 3.4-35.9.1h-36l-21.5-5.6c-11.9-3-24.9-6.6-28.9-8-7.9-2.6-15.2-3.2-15.2-1.1 0 .6 9.8 6.4 21.8 12.8 21.2 11.4 22 11.8 36.7 15.2 26.8 6.4 40.7 8.3 70.4 9.7l20.1 1 25.3-4.5c13.9-2.4 30.6-5.7 37.2-7.4l11.8-3 21.1 3.1c11.6 1.7 27.2 3.3 34.6 3.7l13.5.6-14.2 11.8c-13.4 11.3-17 15.6-14.6 17.7 1.8 1.6 18.5 4 27.9 4 9.7 0 10.3.1 13.9 3 3 2.4 4.1 2.8 5.2 1.9 1.9-1.6 2.2-1.1 5.4 8.8l2.9 8.8v64.2l-3.5 8.7c-4.9 12.1-6.2 14.6-10.5 19.1-3.3 3.6-4.1 5.5-7.6 19l-3.9 15-11.4 15.5c-12.4 16.9-13 18.1-27 58.1-4.9 14-5.1 14.9-5.1 25.2 0 19.9-8.2 48.7-14.3 50.2-1.4.4-6.1 4.6-10.6 9.5-7.2 7.9-8.1 9.3-8.1 12.7 0 3.5.8 4.6 8.3 12 8.1 8.2 8.3 8.3 18.2 11.3l10 3h57.3l.6-2.3c.3-1.2.6-11.7.6-23.3 0-20.7.1-21.4 3-31 1.7-5.5 4.7-16.2 6.6-23.9 3.4-13.6 3.8-14.5 13.6-31 11-18.4 22.2-35 27.2-40.3 3.6-3.9 7.6-6.2 10.8-6.2 1.6 0 9.3-6.3 24.3-19.8l22-19.8 4.4-9.7c2.4-5.3 4.7-9.7 5.1-9.7.4 0 5.3 15.4 11 34.2 5.7 18.9 12.9 42.8 16.2 53.3 8.3 27.1 12.8 50.7 12.8 67.2v12.9l-3.5 5.4c-2.6 4.2-3.5 6.6-3.5 10.2 0 3.8-.9 6.2-5.1 13.2-4.5 7.5-5.1 9.1-4.6 12.4.4 2.2 1.7 4.6 3.2 6l2.6 2.2h42.5c47.5 0 49.4-.2 49.4-5.8 0-4.6-3.8-22.1-6.1-28.2-1.5-3.8-2.4-9.3-2.9-17.5-.5-8.1-1.7-15.7-3.8-23.5l-3-11.5-1.6-73.4c-.9-40.4-1.4-73.6-1.1-73.9.2-.3 3.5.9 7.3 2.6 10.5 4.7 40.2 12.4 77.5 20.2l33.9 7h39.7l1.6 5.6c4.7 16 5.9 24.7 5.9 41.4.1 14.8-.1 17-2.1 21.5-1.7 4-2.5 9.2-3.9 26.3-1.6 19.8-1.6 21.6-.1 28.1 2.1 8.4 2.1 9.5.3 11.1-.8.6-2.9 5.7-4.6 11.3-1.8 5.6-4.5 12.3-6.1 14.9-3.4 5.3-16.3 17.9-20.7 20.2-1.7.9-4.6 3.4-6.6 5.8-4.9 5.7-4.8 9.2.2 14.1l3.8 3.7 47.9-.2 47.9-.3 4.8-11c4.3-9.9 4.7-11.7 4.8-18.7 0-6.2.5-8.6 2.5-12.4 3.4-6.4 3.4-14.2-.2-25.8-2.5-8.4-2.6-9.2-1.5-16.9.6-4.4 3.6-15.1 6.6-23.6 8.7-25.4 9.3-27.1 12.7-37.9 1.7-5.7 5.2-14.5 7.8-19.5 4.5-9 12.4-20.7 13.9-20.7 1.8 0 4.9 5.8 5.6 10.3.4 2.7 1.8 9 3.1 14 1.3 5.1 3.3 14.2 4.5 20.4 2.4 12.6 12.8 40 22.9 60.2 8.3 16.5 17.2 41.6 22.7 63.4l4.6 18.7h47.8l6.8-3.4c9.5-4.9 14.2-10.2 19-21.6 3.8-8.9 4.7-13 4.3-18.9 0-1.4-2.9-5.2-7.5-10-7-7.1-7.6-8-9.1-14.6-1.2-5.2-3-9.1-7.2-15.5-3.1-4.7-9.6-15.2-14.5-23.3-8-13.6-8.9-15.5-10.3-23.5-1.9-10.9-1.9-28.7 0-46.2 1.1-10.3 1.5-28.1 1.5-75.2V435l3.6-1.5c2-.8 3.9-1.5 4.3-1.5.6 0 39.9 61.5 47.2 74l4.4 7.5.3-14.3.3-14.4-5.6-17.1c-3.1-9.5-7.8-22.2-10.5-28.2-5.6-12.8-9.2-24-12-38-1.1-5.5-2.2-11-2.5-12.2-.3-1.3-1.9-3-3.6-3.8-2.5-1.4-5.2-6.1-17.4-30.8-15.5-31.5-18.6-36.3-38-59.6l-11.5-13.9-24.3-15.3c-24.2-15.3-24.2-15.3-36.2-28.2-9.6-10.3-14.1-14.4-23-20.2-6-4.1-13.5-8.5-16.5-9.8-6.9-3-31.5-9-48.5-11.8-13-2.1-13.1-2.1-50.5-.4-35 1.5-38.7 1.8-55 5-9.6 1.9-25.6 4.5-35.4 5.8l-17.9 2.3-27.6-2.3c-26.9-2.2-28-2.4-44.1-7-10.9-3.2-18-5.8-21-7.8-24.9-16.9-40.5-28.4-47-35l-7.5-7.5-19.8-6.6c-29.3-9.6-28.5-9.6-63.9.9-18.3 5.5-18.9 5.8-30.7 13.6-9.1 6.1-12.9 8.1-15.4 8.1s-4.2.9-6.6 3.4c-4.5 4.7-13.9 8.7-22.5 9.7-4.5.5-10.7 2.2-17 4.8-9.6 3.9-10.1 4.3-23.5 17.4-15 14.7-20 18.2-29.3 20.3-17.7 4.2-34.3 7.4-43.3 8.3-18.1 2-36.7-1.3-46-8-5.7-4.2-19.1-21.4-21.7-27.9-2.6-6.7-2.8-18.3-.4-24.9.9-2.4 1.6-6 1.6-8 0-6.1 2.7-14.2 6.7-20 2.1-3.1 14.2-16.2 26.8-29.1 32.2-32.8 37.3-40.9 36.3-58.4-.4-7.6-.9-8.9-6.9-20.8-6.2-12.2-6.7-12.8-14.6-19.2-8.8-7.1-13-8.8-15.5-6.3z"/>
</svg>