<svg class="mandala" version="1.0" xmlns="http://www.w3.org/2000/svg" width="1930.667" height="1010.667" viewBox="0 0 1448 758"><g fill="#79294F" stroke="#79294F" stroke-width="4"><path class="mandalaAni" d="M638 7.5c-8.5 1.7-16.4 5.3-21.9 9.9-3.9 3.3-5 3.7-8 3.2-16.3-2.8-31.9-1.1-41.7 4.4-7.3 4.2-16 12.3-20.1 18.8-3.7 5.7-6.2 7.2-12.3 7.2-8 0-23.7 8.5-31.1 16.8-2.3 2.6-6 8.4-8.1 12.9-4.8 9.9-5.8 17.2-3.4 25.2.9 3 1.3 5.8.9 6.2-.5.4-5.1.9-10.3 1.1-8.1.3-10.4.8-15.5 3.4-5.5 2.7-6.3 3.6-9.4 9.7-2.9 5.8-3.4 7.9-3.9 16.2-.5 10.6-.1 10.3-8.7 8-11.3-2.9-27.3 3-38.2 14.1-7.8 7.9-14.1 20.2-15 28.9-.7 7.3-2.2 9.9-7.1 12.4-4.6 2.4-14.1 12.4-17.9 18.9-1.5 2.6-3.1 4.8-3.5 5-.4.2-1.4 3.7-2.3 7.8-1.7 7.3-1.6 20.2.1 29.6.5 3.3.2 4.2-2.6 7.5-6.5 7.3-11.9 23-12 34.4 0 5.7 3.2 18.3 6 23.9 3 5.9 9.2 12.4 14 14.5 2.2 1 4 2.3 4 2.9 0 .7-2.2 3.4-4.9 6-6.3 6.2-11.5 16.4-11.5 22.6.1 6.2 4.4 14.8 11.1 22 3 3.3 5.2 6.3 4.9 6.8-.3.5-3 2.4-5.9 4.2-9.4 5.6-16.1 18.9-17.4 34-.9 12 4.3 28.9 11.7 37.3 2.8 3.3 3.1 4.2 2.6 7.5-2.8 15.2-1.1 32.2 3.9 40.8 4.2 7.2 12 15.9 17.2 19.2 7.5 4.8 8.3 5.8 8.3 10.2 0 5.4 3.4 15.1 7.6 22.1 5.3 8.7 12.7 15.4 22.3 20.2 7.7 3.8 9.1 4.2 16 4.1 4.2 0 9.4-.4 11.7-.8l4.1-.8.5 9c.7 11.7 5 21.8 10.6 25 5.8 3.2 14 5.2 21.3 5.2 3.7 0 7 .4 7.3.9.3.5-.1 3.1-.9 5.7-2.7 8.9-1.3 17.3 4.8 28.7 7.1 13.5 26.2 26.6 38.9 26.7 5.6 0 8 1.6 11.8 7.7 4.2 6.7 14.5 15.7 21.7 19 11 5.1 20.7 6 39.6 3.7 4.5-.6 5.2-.4 8 2.4 10.7 10.3 32.5 14.3 48.8 9 11-3.6 18-8.6 21.5-15.3 1.6-3 3.5-5.5 4.3-5.5.7 0 4.2 2.7 7.7 5.9 7.4 7 15.5 10.6 22.1 9.8 6.2-.7 14.7-5.2 20.3-10.8 2.7-2.7 5.5-4.9 6.3-4.9.8 0 2.5 2.1 4 4.7 3.5 6.5 7 9.6 14.8 13.3 9.9 4.6 19.2 6.2 28.1 5 12.5-1.8 19.7-4.6 26.9-10.5 4.1-3.5 4.6-3.7 9.4-3.1 18.3 2.4 27.1 1.5 38-3.8 7.8-3.9 18.2-12.7 21.6-18.4 3.9-6.5 5.9-8.2 9.9-8.2 9.6 0 24.4-7.1 33-16 6.4-6.4 12.2-17.4 14-26.2.9-4.7.9-6.8-.4-11.9-.9-3.3-1.6-6.5-1.6-7s2.8-.9 6.3-.9c7.4 0 16.5-2.2 22-5.3 6.9-3.8 12.4-18.8 11-29.4-.3-2.3-.1-4.3.5-4.7.5-.3 3.9.2 7.5 1.1 8.1 2.1 14.7 1.1 25.2-4.1 9.1-4.5 14.4-9.1 19.8-17.4 5.8-8.8 8.4-15.5 9.1-22.6.3-3.1.8-6.1 1.1-6.6.3-.5 3.1-2.6 6.1-4.6 10-6.6 20.2-20.2 22.9-30.4 2.5-9.6 2.9-19.8 1-27.4-1.7-6.7-1.7-6.9.4-9.5 9.6-11.7 12.6-20.5 12.6-36.1 0-9.4-.4-12.6-2.3-17.5-3.1-8.5-8.4-15.7-13.4-18.5-8.5-4.6-8.5-4.6-2.3-11.1 7.3-7.7 11.9-17.3 11.2-23.4-.7-6.6-5.3-15.2-11.4-21.2-2.9-3-5.1-5.8-4.8-6.4.4-.5 2.9-2.1 5.6-3.4 5.8-3 10.6-9.1 14.6-18.5 2.4-5.8 2.7-7.7 2.8-18.5 0-14-2.3-22.7-8.1-29.8-6.5-8.1-6.7-9-4.9-16.5 3-11.8.1-29.1-6.5-39.5-4.2-6.7-11.6-14.4-16.6-17.3-6.1-3.6-7.1-5.2-7.7-12.4-.4-4.8-1.6-8.4-4.6-14.5-7.3-14.2-16.3-22.3-30.4-27.3-7.1-2.4-13.7-2.6-23.4-.6l-3.3.6v-6.4c0-7.7-2.2-16.8-5.5-22.4-3.6-6.1-12-9.6-24.3-10.2-5.9-.3-9.5-.9-9.8-1.6-.3-.7.2-3.1 1.1-5.5 2-5.8 1.9-10.6-.5-18.2-2.7-8.8-8-17.5-14.3-23.2-7.2-6.7-19.7-12.8-28-13.6-7-.7-9-1.9-11.4-6.4-4-7.9-18.1-19.4-28-22.8-7.6-2.7-21.5-3.6-30.4-1.9-6.7 1.3-7.1 1.2-9.7-.8-9.3-7.6-16.5-10.6-29.3-12.5-6.5-.9-9-.8-15.2.5-14.3 3.1-23.8 9.2-28.3 18-1.3 2.6-2.9 4.8-3.6 4.8-.6 0-3.7-2.5-6.9-5.5-6.7-6.4-15.5-10.8-21.4-10.8-5.9 0-14.7 4.4-21.4 10.8-3.2 3-6.3 5.5-6.9 5.5-.7 0-2.3-2.2-3.6-4.8-4.3-8.5-13.5-14.5-26.8-17.7-7.5-1.8-13-1.8-21.8 0zm18 3.5c8.7 1.4 20 7 23.8 11.8 4.1 5.2 5.9 10.9 4 12.8-1.3 1.3-2.2 1-6.8-2.2-3-2-8.3-5.1-11.9-6.8-6.1-2.9-7.3-3.1-17.1-3-7.8.1-12.2.7-17 2.2-8.2 2.7-9.3 2.7-12.5-.1l-2.7-2.2 2.1-2.7c2.8-3.5 11.1-7.5 19.2-9.2 7.9-1.8 10.7-1.9 18.9-.6zm148.2 1.6c6 1.8 14.4 6.8 15.8 9.5.8 1.4.4 2.2-1.6 3.8-3.3 2.6-4.3 2.6-12.4-.1-4.8-1.5-9.2-2.1-17-2.2-9.8-.1-10.9.1-17.1 3-3.6 1.7-9 4.8-11.9 6.8-4.2 2.9-5.6 3.4-6.7 2.5-1.8-1.6-.9-6.2 2.3-11.2 4-6.1 15.7-12.5 25.9-14.1 4.9-.7 17 .4 22.7 2zm-76 7c3.4 1.1 6.1 3 9.8 7.1 2.8 3.1 4.9 6.3 4.8 7.2-.6 2.5-6.5 1.8-15.3-1.8-8.8-3.7-10.3-3.6-19.6.5-6.9 3.1-13.2 3.7-13.7 1.3-.3-1.7 7.8-11.3 11.2-13.1 3.5-1.9 11.9-3.7 15.1-3.2 1.7.3 5.1 1.2 7.7 2zm-119.9 6.9c13.4 5.3 26.4 16 32 26.4 3.7 6.7 3.1 8.5-2.5 7.8-3-.4-5.2-1.6-8.7-5-17.9-17.2-35.4-25.4-49.6-23.3-4.1.7-5.7 1.6-10.5 6.4-9.6 9.7-13.7 21.5-14.9 42.2-.5 9.4-1.1 13.2-2.5 15.2-2.4 3.7-4.3 4.2-6 1.5-5.8-8.8-4.3-33.5 2.9-48.3 4.5-9.3 16-19.5 25.9-23.1 10-3.6 24.5-3.5 33.9.2zm246.9-2c10.1 1.3 23.5 10.5 30.9 21.1 6.9 10 10.6 30.2 8 43.6-1.3 6.3-3.3 10.8-5.1 10.8-.5 0-2.1-1.7-3.5-3.7-2.2-3.3-2.5-4.8-2.5-11.9 0-19.8-5.5-36.2-15.5-45.9-6.5-6.4-10.8-7.5-21.6-5.6-12.2 2.2-24 9.2-37.5 22.3-4 3.8-6 5.1-9.2 5.5-7.1.9-6.7-2.8 1.2-13.4 10.9-14.5 31.7-25.1 46.6-23.7 1.9.2 5.6.6 8.2.9zM664.5 31c10.4 5.3 10.9 7.2 2.6 10-3.6 1.1-4 1-8.5-2.1-4.7-3.4-4.9-3.4-16.1-3.4-11.7 0-14.4-.8-13.2-3.9 1-2.7 9.5-4.6 19.3-4.3 8.2.2 9.8.5 15.9 3.7zm137.4-2.4c5.7 1.7 7.5 3.9 4.6 6-1.4 1-4.3 1.2-11.9.8l-10.1-.6-5.5 3.7c-5.1 3.4-5.7 3.6-9 2.6-9.2-2.9-7.6-6.2 5.7-11.7 7-2.8 18.2-3.2 26.2-.8zM724 34.5c1.7.9 3 1.9 3 2.4s-1.9 1.6-4.2 2.6c-3.9 1.5-4.5 1.5-8.5 0-5-1.9-5.3-2.9-1.5-4.9 3.5-2 7.6-2 11.2-.1zm-126.4 4.7C607 42.6 623 54.3 623 57.6c0 1.2-2.2 2.4-4.5 2.4-.7 0-4.5-2.6-8.5-5.8-7.7-6.3-14.3-9.1-24-9.9-5.5-.5-5.6-.5-9.6 3.9-6.3 6.8-9.4 14.2-10.4 24.4-.6 7.3-1.1 9.1-3 10.6-3 2.5-3.7 2.3-4.5-1.2-1.2-5.5 2.5-23.2 6.6-31.2 3.3-6.6 10.5-13.6 14.2-14 5.6-.5 13.1.4 18.3 2.4zm264.4-.3c3.9 2.7 9.6 10.9 12 16.9 4.1 10.8 6 29.2 3 29.2-.4 0-1.8-.8-3.1-1.9-2-1.6-2.4-3.1-3-10.2-.7-9.6-4.3-18-10.7-25.1l-3.7-4-6 .5c-9.7.9-15.6 3.4-23.5 9.8-7.1 5.9-8.4 6.5-11.4 5.3-2.8-1.1-1.8-3.1 4.2-8.4 13.4-12.1 33.8-17.9 42.2-12.1zm-209.1 1.7c5.9 2.3 5.9 4 .2 9.7-4.3 4.2-5.3 4.8-6.6 3.7-2.1-1.8-8.5-13.2-7.9-14.2.9-1.4 10.2-.9 14.3.8zm144.5-1c1.4.6 1.2 1.4-1.5 6.3-1.7 3.1-4 6.5-5 7.6-1.9 1.9-1.9 1.9-6.9-3-2.7-2.7-5-5.3-5-5.7 0-1.3 3.8-4.2 6.3-5 2.9-.8 10.1-1 12.1-.2zm-85.2 3.8c6.5 2.6 6.8 2.7 10 1 19.6-10.1 55.1-1.7 65.1 15.5 2.9 5-.1 4.9-7.6-.2-3.6-2.5-10.3-6-14.9-7.8-7.3-3-9.4-3.4-17.8-3.4-8.5 0-10.1.3-14.9 2.8-2.9 1.5-7.2 4.3-9.5 6.2l-4.1 3.4-4.1-3.5c-2.4-1.9-6.6-4.6-9.6-6.2-4.7-2.4-6.4-2.7-14.8-2.7s-10.5.4-17.8 3.4c-4.6 1.8-11.3 5.3-14.9 7.8-7.5 5.1-10.5 5.2-7.6.2 2.4-4.1 8.9-9.8 15.1-13.2 13.4-7.3 34.1-8.7 47.4-3.3zm-120.3 6.2c7.1 1.6 15.7 6.2 16.8 9 1.3 3.3-5.3 4.5-10.3 1.9-1.6-.8-5.2-1.5-8.1-1.5-4.7 0-5.4.3-7.7 3.3-1.4 1.8-3.2 4.9-4.1 6.9-1.5 3.7-4.8 6.8-7.2 6.8-2.4 0-1.5-8.1 1.8-15 3.1-6.7 8.3-13 10.6-13 .8 0 4.5.7 8.2 1.6zM858 51.7c4.3 4.9 8.2 13.5 8.8 19.5.4 4.2.2 4.8-1.4 4.8-2.8-.1-5-2.1-6.7-6.3-.9-2-2.8-5.3-4.3-7.2-2.4-3.2-3.1-3.5-7.8-3.5-2.8 0-6.4.7-8 1.5-5 2.6-11.6 1.4-10.3-1.9 1-2.6 8.7-7 15.6-8.8 9.4-2.4 10.5-2.3 14.1 1.9zM701.1 54c6.8 2.5 11.8 6.1 14.8 10.5l2.4 3.5 3.5-4.5c2.4-3.1 5.6-5.5 10.1-7.8 6-2.9 7.4-3.2 16.1-3.2 9.3 0 9.7.1 19 4.7 5.2 2.5 10.6 5.5 11.9 6.6 2.8 2.3 2.3 5-1.6 7.4-2.5 1.5-2.9 1.4-9.6-2.1-6.5-3.4-7.5-3.6-16.1-3.6-11.2 0-14.7 1.4-18.8 7.2l-3 4.5-5.2-.8c-2.8-.4-5.5-.7-6.1-.7-.5 0-3.3.3-6.1.7l-5.2.8-3.1-4.5c-4.1-6-10.1-8.2-20.8-7.5-6 .4-8.8 1.2-14.3 4-6.5 3.3-6.9 3.4-9.4 1.9-4-2.4-4.4-5.1-1.2-7.6 3.4-2.7 14.8-8.4 20.1-10.1 6.2-2 16.7-1.7 22.6.6zm-161.3 3.7c.4 3.8-1.2 5.5-9.9 10.3-14.3 7.9-21.9 18.5-25.4 35-1.8 8.5-2.7 9.9-5 8-6.2-5.2-6.6-18-.9-29.7 6.7-13.9 26.4-27.9 37.9-27 2.6.2 3 .6 3.3 3.4zm375.2 1c17.7 8.5 30 28.6 26.8 43.6-1.2 5.7-5 10.8-6.8 9.1-.7-.7-1.8-4.5-2.6-8.5-3.1-16.4-10.9-26.7-26.6-35.4-6-3.3-7.5-4.7-8.4-7.5-1.7-4.9-.3-6.2 5.5-5.5 2.5.4 8 2.3 12.1 4.2zm-321.5 4.4l4 1.1-3.5 2.9c-2.4 2.1-4.5 2.9-7.2 2.9-4.3 0-4.5-.5-2.1-4 2.9-4.3 3.2-4.4 8.8-2.9zm258 2c2.4 2.9 3 5.2 1.2 5-.4-.1-2-.1-3.5-.1-1.6 0-4.2-1.2-6.2-2.9l-3.5-2.9 3.5-1c5.3-1.5 5.6-1.4 8.5 1.9zm-210.2 1.2c9.6 3.5 15.4 7.3 19.2 12.5 6 8.2 5.5 11.7-1.7 12.9-2.8.4-5.6-.3-12.1-3.1-6.8-2.9-9.7-3.6-14.8-3.6-8.1 0-15.5 2-24.4 6.5-3.8 1.9-9.9 4.4-13.5 5.5-7.3 2.2-16.9 7.6-21.6 12.2-1.8 1.6-4.6 6.2-6.3 10.1-5.9 13.3-6.4 14.1-10.1 15.4-3.1 1-3.7.9-5.2-.8-2.8-3.3-4.2-12.5-2.9-18.5 4.2-18.7 22.2-37.5 39.1-40.9 1.9-.4 6-2.1 9-3.8 9.3-5.1 15.3-6.6 27.7-6.6 9.3-.1 12.3.3 17.6 2.2zm189.9.1c3.6 1.3 8 3.3 9.7 4.5 1.7 1.2 5.6 2.9 8.7 3.7 18.4 4.8 35.2 22.2 39.4 40.7 1.2 5.4.7 9.9-1.7 16.5-1.4 4-1.8 4.3-4.2 3.7-5-1.2-6.7-3.3-10.5-12.5-2.1-5-4.9-10.4-6.2-12-4-4.7-13.2-10.2-23.1-13.6-5.1-1.8-10.8-4.1-12.5-5.2-6.1-3.8-18.2-7.2-25.3-7.2-5.3 0-8.3.7-15.1 3.5-9.4 3.9-13.2 4.3-16.4 1.7-2.8-2.3-2.1-5.2 2.9-11.8 3.9-5.2 8.9-8.5 18.6-12.1 8.8-3.2 26.3-3.2 35.7.1zM696 71.2c7 3.6 6.3 6-3.2 12.1-5.9 3.7-8.9 5-13 5.4-7.6.7-10.2-.6-12.4-6.2-2.2-5.8-1.5-7.1 5.6-10.8 7.1-3.6 16.4-3.8 23-.5zm68 .5c7.1 3.7 7.8 5 5.6 10.8-2.2 5.6-4.8 6.9-12.4 6.2-4.1-.4-7.1-1.7-13-5.4-9.3-6-10.1-8.4-3.7-12 6-3.4 16.3-3.2 23.5.4zm-226 .7c0 2.8-1.2 4.2-7.6 8.8-5.5 3.9-8.9 9.6-9.8 15.9-.7 4.4-1 4.8-5.4 6.7-2.5 1.1-5.1 1.8-5.5 1.5-1.3-.8-.3-6.9 2.3-13.7 2.7-7.1 9.3-14.6 16.5-18.7 6.4-3.7 9.5-3.8 9.5-.5zm371.6 1.4c9.9 6.4 14.9 13.7 17.7 25.5 1.4 6.4.4 7.3-5.5 4.7-4.4-1.9-4.6-2.1-5.8-8.2-1.1-5.6-1.8-6.9-6.4-11.3-2.9-2.8-6.4-6-7.9-7.2-1.7-1.3-2.7-3.1-2.7-4.7 0-3.8 3.5-3.4 10.6 1.2zm-180.7 6.8c8.7 2.2 17.1 6 17.1 7.7 0 1.7-9.6 4.2-13.6 3.4-1.6-.3-5.5-1.1-8.7-1.8-5-1.2-6.6-1.1-12.5.4-7.9 2-11.1 2.1-16.3.5-7.2-2.1-3.9-5.2 10.1-9.4 9.1-2.7 15.2-2.9 23.9-.8zm-190.6 8.1c3.1 11.3 3.3 10.8-5.3 10.8-7.1 0-7.5-.1-7.8-2.3-.6-4.2 6.7-14.2 10.4-14.2.6 0 1.8 2.6 2.7 5.7zm368.5-1.3c4.2 4.6 5.9 8.4 4.8 11.1-.5 1.3-2 1.5-7.8 1.3-7.1-.3-7.3-.4-7-2.8.7-5.5 3.5-14 4.7-14 .7 0 3.1 2 5.3 4.4zm-261.5 3.9c7 3.5 7.3 5.3 1.4 10.1l-4.4 3.6-9.4-.6c-10.3-.6-11.6-.3-27.3 6.1-10.2 4.1-16.4 8.1-19.8 12.5-6.4 8.4-6 8.1-12.5 8.7-7.7.7-8.4-.4-5.8-8.5 3.3-10.4 15.6-20.4 29.2-23.5 3.2-.8 7.8-2.6 10.1-4.1 4.5-2.8 12.1-6.1 16.2-6.9 1.4-.3 5.7-.4 9.5-.4 5.4.2 8.3.9 12.8 3zm174.7-.7c2.5 1 6.8 3.1 9.5 4.7 2.8 1.6 8.1 3.8 11.9 4.9 9 2.5 13.1 4.7 19.3 10.2 5 4.5 8.8 10.9 10 16.8.7 3.6-.7 4.8-5.8 4.8-5.8 0-9.2-1.8-12.4-6.7-3.8-5.8-8.7-9.3-19.5-13.9-17-7.3-18.6-7.7-28.9-7l-9.4.6-4.4-3.6C788 99.5 786 97 786 96c0-1.9 5.1-5.2 11-7.1 4-1.3 18-.3 23 1.7zM686.4 93c7.7 1.2 18.9 5.6 22.7 8.7 1.6 1.4 4.4 4.6 6.1 7.1l3.2 4.6 2-2.9c5.4-7.5 8.9-10.4 15.9-13.4 14.9-6.2 28.6-6.5 39.9-.8 12.1 6 32.5 29 34.5 38.8.6 3.1.5 3.3-1.1 2-1-.8-2.4-2.8-3.2-4.3-6.3-12.1-20.8-19.1-39.9-19.2-8.6-.1-10.7.2-15 2.3-6.2 3.1-16.5 13.2-18.8 18.6-4 9.1-3.9 9-8.7 8.8-2.5-.1-4.9-.2-5.5-.2-.5 0-3 .1-5.5.2-4.8.2-4.7.3-8.7-8.8-2.3-5.4-12.6-15.5-18.8-18.6-4.3-2.1-6.4-2.4-15-2.3-19.1.1-33.6 7.1-39.9 19.2-.8 1.5-2.2 3.5-3.2 4.3-1.6 1.3-1.7 1.1-1.1-2 1.1-5.6 7.6-15.1 16.8-24.6 15.6-16.1 26.1-20.3 43.3-17.5zm39.5.1c3.9 1.4 3.9 2.2-.1 5.3-6 4.5-10 4.3-15.5-.7-1.3-1.1-2.3-2.4-2.3-2.8 0-2.5 12.4-3.7 17.9-1.8zm-181.4 12.3c1.8 1.3 1.8 1.4-.1 2.3-1 .6-4.1 1.4-6.7 1.7-10.2 1.5-25 8.2-31.8 14.3-6 5.5-10.1 14.2-10.7 22.9l-.4 7.1-6.5.7c-14.2 1.5-24.2 8.1-30.6 20.3-4.2 8.2-6.5 14.6-8 23.2-1.3 7-3.1 8.8-4.7 4.6-2.6-6.7-.2-20.6 5.3-31 5.8-11 19.1-23.1 29-26.6 3.3-1.2 4.2-2.3 7.6-9.4 8.8-18.1 29.2-31.4 48.2-31.5 4.8 0 8.2.5 9.4 1.4zm369.6.2c14.4 4.2 29.8 17 36.1 30.1 3.4 7.1 3.6 7.4 10.9 10.9 17.7 8.8 32.2 30.8 31.8 48.4-.3 12.1-3.7 12.9-6.1 1.4-3-14.9-10.3-28.9-18-34.7-4.8-3.7-12.7-6.5-20.1-7.3l-6.4-.7-.5-6.8c-.7-8.7-5.1-18.1-11-23.4-6.8-6.2-19.5-11.6-34-14.5-3.2-.6-5.8-1.6-5.8-2.1 0-3 14.4-3.8 23.1-1.3zm-279 2.5c3 1.5 1 3.3-7 6.4-3.8 1.4-8.8 3.8-11.2 5.4-2.5 1.5-6.1 3-8.1 3.4-2 .3-6.8 1.9-10.6 3.6-8.4 3.7-11.5 4.2-12 2-.4-2.1 4.1-7.5 8.2-9.7 3.3-1.8 15.8-7.1 24.1-10.2 5.6-2.1 13.6-2.6 16.6-.9zm189.9 3.3c14.9 6.3 21.4 10 23.7 13.6 4.5 6.5 2 7.3-8.5 2.6-4.4-1.9-9.7-3.8-11.9-4.2-2.1-.4-5.4-1.8-7.3-3-2-1.3-6.4-3.5-9.9-4.9-3.5-1.3-7.5-3.2-8.9-4.1-2.5-1.6-2.5-1.7-.6-3.1 3.2-2.5 13.6-1.1 23.4 3.1zm-282.2 6.1c.4 4.3-1.4 6.5-5.2 6.5-3.4 0-12.1 4.5-16.6 8.6-2.3 2.1-5.3 6-6.6 8.6-2.1 4.2-2.4 5.7-1.8 10.7l.6 5.8-4.5 3.3c-2.5 1.7-5.9 5.2-7.7 7.6l-3.2 4.4-6.3-.6c-5.7-.6-6.8-.4-10.7 1.9-8.1 4.8-15.1 14.5-16.5 22.9-.6 4.3-2.5 5.8-7.2 5.8-2 0-3.2-.6-3.5-1.8-.9-2.7 2.8-16.1 6.3-23.1 4.4-8.5 8.3-12.6 15.9-16.3 5.8-2.9 7.6-3.3 14.7-3.3h8v-8c0-7 .4-8.8 3.3-14.6 3.6-7.5 7.7-11.6 15.5-15.6 7.3-3.7 18.6-7.3 22.2-7 2.7.2 3 .6 3.3 4.2zm362.5-2.6c12.8 3.3 22.8 9.5 27.6 17 4.2 6.6 6.4 15.1 5.7 21.5l-.7 5.2 6.5-.4c16.6-1.1 29.8 9.4 35.9 28.5 4.4 13.6 4.3 16.3-.5 16.3-4.2 0-6.8-1.7-6.8-4.4 0-3.7-6.7-16.2-10.6-19.5-6.4-5.6-11-7.4-17.5-6.7l-5.7.7-3.6-4.6c-1.9-2.6-5.4-6-7.6-7.6l-4.2-3.1.6-6.1c.6-5.8.5-6.6-2.6-11.7-4.9-8.1-11.6-12.7-24.2-16.6-3.4-1-5.2-5.5-3.5-8.6 1.2-2.3 1.8-2.2 11.2.1zM492 117c3.2 2-.6 4.8-15.1 11.5-5.2 2.3-5.8 3-8.3 8.8-3.9 9.2-6.1 13-8.5 14.5-1.9 1.3-2.1 1.2-3.1-1.3-.5-1.4-1-5.3-1-8.6 0-10.1 4.5-17.9 13.3-22.9 4.6-2.6 6.1-3 13.2-3 4.4 0 8.7.5 9.5 1zm476.2 2.5c3.7 2.3 6.7 5.3 9 8.8 3.1 4.8 3.3 5.7 3.3 13.9 0 11-1.3 12.9-5.5 8-1.5-1.9-3.8-6.1-5-9.5-2.8-7.7-5.9-10.8-13.5-13.6-9.5-3.6-15.2-8.8-11.2-10.4.6-.3 4.8-.6 9.2-.6 7.6-.1 8.4.1 13.7 3.4zM630 117.4c0 .3-10 19.6-10.5 20.4-.4.5-22.5-6.3-22.5-6.9 0-1 8.8-4.1 13.3-4.6 2.3-.3 5.1-1.4 6.3-2.4 3-2.8 13.4-7.8 13.4-6.5zm52.8 2c11.3 5.8 19.2 14.5 19.2 21.3 0 4.1-2.4 4.4-4.4.5-5-9.6-19.4-14.2-33.9-10.8-8.2 1.9-11.7 3.7-18 8.9-4.6 3.8-5 3.9-8.5 2.8-6.5-2-6.7-2.3-3.9-7.2 7.4-12.5 17.9-17.6 36.5-17.8 6.9-.1 9.1.3 13 2.3zm97.7-.9c11.4 3 15.9 5.9 21.1 13.7 5.1 7.7 5.1 7.8-1.8 9.9-3.5 1.1-3.9 1-8.6-2.9-16.7-14-44-13-51.8 2-2 3.9-4.4 3.6-4.4-.5 0-6.7 7.7-15.4 18.5-21 4.1-2.2 6.4-2.6 13-2.7 4.5 0 10.8.7 14 1.5zm34.8 2.1c1.7.9 4.1 2.4 5.2 3.4 1.1 1 4 2 6.5 2.4 2.4.4 6.5 1.6 9 2.7l4.5 2.1-11.4 3.4c-6.2 1.9-11.4 3.4-11.6 3.2-.5-.7-10.5-20.1-10.5-20.4 0-.5 4.3 1.2 8.3 3.2zm-271.1 9.6c3.6 6.3 3.7 8.1.6 12-3.9 5-7.9 7.2-17 9.3-11.2 2.6-13.4 1-10.3-7.2 3.3-8.6 13.5-16.2 21.7-16.3 2.8 0 4 .5 5 2.2zm361.3.2c9.3 4.3 18 16.9 14.5 21.1-1.6 1.9-2.7 1.9-12.5-.2-7.3-1.7-8.4-2.2-13.2-7l-5.3-5.1 1.5-4.3c.9-2.3 2-4.8 2.6-5.6 1.7-2 6.8-1.6 12.4 1.1zM483 132c0 3.8-3 8-6.6 9.5-4.7 1.9-5.4 1.9-5.4-.3 0-3 3.9-8.3 7.3-9.7 4.3-1.9 4.7-1.8 4.7.5zm476 0c3.8 2 7 6.2 7 9.5 0 1.9-1.1 1.9-5.6 0-2.5-1-4-2.6-5.4-5.7-1.7-3.8-1.8-5.8-.4-5.8.3 0 2.3.9 4.4 2zm-273.1 3.6c9.2 4.6 10.6 10.6 3.3 14.3l-3.7 1.9-3.9-3.4c-7.4-6.4-14.9-6.9-22.5-1.4-4.7 3.4-6 3.6-10.1 1.5-4-2.1-3.8-4.6.5-8.4 2-1.7 3.7-3.1 3.8-3.1.2 0 2.7-.9 5.7-2 8.5-3 20.1-2.7 26.9.6zm90.9-.7c12.4 3.8 17.7 10.7 10.6 14-3.7 1.6-4.9 1.4-9.6-1.9-2.4-1.7-6-3.3-8.1-3.7-4.9-.8-11.9 1.9-15.1 5.8l-2.5 3-4.1-2.1c-7.3-3.7-6.4-9 2.3-14 4.5-2.6 6.2-3 12.9-3 4.7 0 9.9.7 13.6 1.9zm-175 2.6c7.3 1.7 13.4 4.6 11.3 5.3-.8.3-4.4-.1-8.2-.8-9-1.7-14.8-.8-24.4 3.9-9.2 4.5-19.2 13.3-22.4 19.8-4.7 9.4-4.8 24.2-.3 34.2 2.4 5.2 1.8 7.2-3 10.1-1.7 1-3.5 2.9-4.2 4.1-.6 1.3-2.3 3-3.7 3.8-2.4 1.3-3.1 1.2-8-1-4.7-2.1-6.8-2.4-15.9-2.3-11.9.1-16.5 1.6-23.7 7.8-6.2 5.4-13.9 17.6-16.5 25.9-1.9 6.4-2 7.8-1 13.7.7 3.6 1.5 7.5 1.8 8.7 1 3.7-1.5 2.7-3.2-1.2-3-7.2-4.5-16.9-4.5-28.4 0-20.2 2.5-27.3 12.7-37.1 4.1-4 8.9-7.3 14.5-10 10.2-4.9 13.6-5.6 21.3-4.2 3.3.6 6.2.9 6.4.7.3-.2-.1-3.1-.7-6.4-.9-4.6-.9-7.1 0-10.8 3.2-12.9 15-28.8 25.2-33.8 2.9-1.3 8.4-2.9 12.2-3.4 8.9-1.2 26.1-.5 34.3 1.4zm274 .1c9.7 2.6 19.8 11.5 26 23.1 4.7 8.9 6.2 15.5 5 23.1-.5 3.5-.8 6.6-.5 6.8.2.2 2.8-.1 5.6-.7 7.2-1.5 12.7-.5 22.1 4.2 14.6 7.3 23.5 17.8 26 30.6 1.9 9.5.8 32.1-1.9 40.5-2 6.3-3.5 8.7-4.8 7.5-.2-.3.3-3.9 1.2-8.1 1.9-8.6 1.3-13.5-2.8-22.7-3-6.7-10.5-16.8-15.2-20.3-7.2-5.6-12.2-7.1-23-7.1-8.2 0-10.9.4-14.9 2.3-2.7 1.2-5.6 2.2-6.4 2.2-1.9 0-6.2-3.9-6.2-5.6 0-.7-1.2-1.9-2.7-2.6-1.4-.7-3.5-2.4-4.5-3.8-1.9-2.6-1.9-2.6.8-8.4 2.2-4.9 2.6-7.2 2.7-14.5 0-4.7-.5-10.4-1.2-12.7-2.6-9.7-12.4-19.4-25.9-26-8.8-4.3-16-5.2-24.9-3.1-10.6 2.6-8.1-1.4 2.7-4.3 11.4-3.1 31.7-3.3 42.8-.4zm-244.2 6.9c8.5 2.5 20.3 10.2 28.4 18.4 8.1 8.3 12.9 15.6 16 24.2 2.6 7.7 5 23.3 5 33.4 0 7.4-.3 8.7-2.2 10.5-1.3 1.1-3.2 1.9-4.3 1.8-1.9-.3-2-1-2-13.8-.1-12.4-.3-14.1-2.9-21-4.5-11.9-7.4-16.9-12.7-22-8.2-7.9-24.8-15-28.3-12.1-2.4 2-7.2 12.8-8.5 18.9-2.4 11.7-.9 19.6 6.5 34.3 3.6 7.3 5.7 9.9 12.9 16.5 4.7 4.3 8.5 8.4 8.5 9.1 0 1.6-3.2 3.3-6.5 3.3s-9.1-5.8-18.7-18.7c-10.1-13.5-13.8-22.8-15.3-38-1.4-13.5 3.8-34.8 10.2-42.3 3.9-4.5 5.9-4.9 13.9-2.5zm186.7 1.2c6.2 6.6 11.1 23.7 11.1 38.8 0 10.5-1.7 18.6-5.6 27.8-2.6 5.9-14.8 22.8-21.4 29.3-3.9 3.9-4.9 4.5-8.1 4.2-2.1-.2-4-1-4.7-2.1-.9-1.5.1-2.9 7.7-9.9 9.4-8.7 14-16 18.8-29.9 3.6-10.8 1.2-26-5.8-37.3-2.4-3.7-2.6-3.8-6.6-3.2-6.4 1-18.4 7.4-23.7 12.6-5.2 5-8.1 10.2-12.6 22-2.6 6.9-2.8 8.6-2.9 21 0 12.8-.1 13.5-2 13.8-1.1.1-3-.7-4.3-1.8-1.9-1.8-2.2-3.1-2.2-10.5 0-10.1 2.4-25.7 5-33.4 6.5-18.3 25.6-36.7 44.5-42.7 6.5-2.1 9.8-1.7 12.8 1.3zm-211 .5c4.2 1.3 4.3 1.5 2.3 6.3-1.8 4.2-3.5 5.1-11.3 5.8-8.4.7-18.7 6.2-25.3 13.4-6.2 6.8-8.5 13.7-7.6 22.4.6 4.7.4 5.9-.7 5.9-6.2 0-8.6-17.4-4.1-30.5 2.9-8.3 15.5-19.1 27.4-23.5 5.8-2.1 11.5-2.1 19.3.2zm244.4 1.3c12.6 5.7 22.1 14.6 24.9 23.2 2.7 8.2 2.6 20.6-.2 25.3-1.1 1.9-2.7 3.6-3.5 3.8-1.3.2-1.5-1.1-1.5-8 .1-7.2-.3-9-2.6-13.4-5.5-10.5-19.1-19.2-31.9-20.3-7.6-.7-7.1-.5-9.3-4.8-2.6-5.3-2.2-6 4.7-7.7 7.4-1.8 12.4-1.3 19.4 1.9zm-176.6.5c4.6 2.4 5.6 4.2 4.1 7.5-1.4 3.1-8.1 10.5-9.5 10.5-1.8 0-11.7-10.3-11.7-12.1 0-2 2.6-4.4 7-6.3 4.6-2 5.4-2 10.1.4zm97.6 0c2.5 1.1 4.8 3 5.5 4.5 1.1 2.4.8 2.9-4.2 8-3 3-6 5.5-6.6 5.5-1.5 0-8.1-7.3-9.6-10.5-1.5-3.3-.5-5.1 3.9-7.4 4.7-2.5 5.8-2.5 11-.1zm-61.2 2.7c-1.2 5.2-3.3 7.1-10 9.3-6.9 2.3-20.9 10.9-21.9 13.5-.9 2.4-4.5 1.8-5.2-.9-.8-3.2 2-8.2 5.7-10.5 1.7-1 3.7-2.8 4.5-4 2.9-4.1 16.4-9.9 23.3-10 4.2-.1 4.3 0 3.6 2.6zm9.9 1.5c1.4 2.4 3.8 8.3 5.4 13.3 3.5 10.7 9.5 36.2 8.9 37.9-.7 1.6-6.4-11.3-10.2-23.1-1.8-5.6-4.1-11.8-5-13.8-1.7-3.4-1.8-3.5-3.1-1.7-.7 1.1-3.1 7.3-5.3 13.8-4.4 13.3-9.8 26-10.7 25.1-1.3-1.3 7.1-35.1 11.2-45 2.3-5.9 5-10.7 5.9-10.7.2 0 1.5 1.9 2.9 4.2zm22.1.2c4.1 2 8.3 4.8 9.2 6.2.9 1.4 2.9 3.2 4.4 4 5.6 2.8 7.8 12.4 2.8 12.4-1.1 0-2.2-.7-2.5-1.5-1-2.5-13.7-10.5-20.9-13-7.3-2.5-9.9-4.8-11.1-9.9l-.7-2.9 5.6.5c3.8.3 8.1 1.7 13.2 4.2zm-210.1 1.4c.2.4-.8 3-2.2 5.7-2.2 4-4.1 5.7-9.7 9-6.8 4.1-8.1 5.4-14.9 16.3-3.1 5-10.8 9.4-12.8 7.4-.9-.9 0-3.5 4-11.5 2.9-5.6 6-11.1 7-12.2 2.9-3.5 8.4-7.2 16.7-11.4 7.9-4 10.9-4.8 11.9-3.3zm382.7 3.9c13.6 6.8 21.2 15.5 26.4 30.3 1.8 5.2.4 6-5.2 3.1-4.7-2.3-5.6-3.3-10.2-11.4-3.1-5.2-4.8-6.8-11.1-10.7-6-3.7-8-5.5-10.2-9.5-4.4-8.1-2.7-8.4 10.3-1.8zm-467.9-1c1.9 1.1 3.3 2.7 3.3 3.8 0 1.7-1.4 2.3-8.5 3.7-16.8 3.5-26.7 11-35.5 26.9-2.9 5.3-4.8 7.5-6.8 8.2-5 1.6-6 .4-5.4-6.2 1.3-15.3 18.5-34 35-38.2 4.9-1.3 14.3-.3 17.9 1.8zm560.6-.9c16.9 5.3 32.6 23.7 32.7 38.1 0 5.4-.1 5.6-2.7 5.9-3.4.4-6-2.2-10.8-10.8-8.5-15.4-19.2-22.5-38.3-25.5-6.8-1.1-5.8-5.3 1.9-8 5.4-1.9 10.2-1.8 17.2.3zM605 162.5c1 1.2 1 2.2-.1 5.2-1.4 3.5-1.9 3.8-7.3 4.9-10 2-14.7 7-15.4 16.4l-.4 6-4.1 1.1c-6.2 1.6-8.7.1-8.7-5.4 0-7.4 2.6-13 8.5-18.6 9.4-8.9 23.9-13.9 27.5-9.6zm243.7 2c3.2 1.6 8.3 5.4 11.3 8.4 5.9 6 8 10.6 8 18 0 5.4-2.9 7.1-9 5.2-3.7-1.1-4-1.4-4-4.8 0-10-5-16.3-14.7-18.4-3.2-.7-6.3-1.6-6.9-2.1-1.8-1.3-2.6-6.9-1.2-8.6 1.8-2.1 9.5-1.1 16.5 2.3zm-143.5 2.3c-.5 6.1-2.8 9-9.9 12.2-3.7 1.7-8.1 4.2-9.9 5.5-4.1 3.1-5.2 3.1-6 .1-1.4-5.7 5-13.1 16.1-18.7 7.7-3.8 10.1-3.6 9.7.9zm34.8-1.7c11 5 19 13.8 17.6 19.5-.8 3-1.9 3-6-.1-1.8-1.3-6.2-3.8-9.9-5.5-6.7-3-8.6-5.1-10.1-11.3-1.2-5.2 1.1-5.9 8.4-2.6zm-96.3 5.9c16.9 8.4 26.1 26.6 25.1 50.2-.4 11.2-1.4 12.8-7.4 12.8-1.7 0-3.7.7-4.4 1.6-2.8 3.2-4.9 3.6-8.3 1.5-4.5-2.8-14.6-13.5-18.4-19.6-8.9-14.2-9.9-31.5-2.6-45.9 2.4-4.7 2.6-4.8 6.1-4.2 2 .3 6.5 1.9 9.9 3.6zm165-.3c4.2 7.7 5.6 14 5.1 23.2-.8 13.9-5.5 24-16.6 35.4-9.7 9.9-13.1 11.1-17.2 6.3-.7-.9-2.7-1.6-4.4-1.6-6 0-7-1.6-7.4-12.8-1.1-26 10.3-45.5 30.6-52.8 6.1-2.2 7.6-1.8 9.9 2.3zm-362.7-.5c0 .7-.9 3.2-2 5.5-1.7 3.8-2.3 4.3-5.3 4.3-5.8 0-13.2 4.5-17.9 11-3.7 5.1-4.7 5.9-7.5 6-3.9 0-4.2-1.4-1.4-6.8 5.8-11.4 19.5-20.9 30.4-21.1 2.3-.1 3.7.4 3.7 1.1zm557.4 1.2c8.3 3 12.6 6.3 18.2 13.8 4.9 6.7 6.4 10.6 4.4 11.8-2.4 1.5-5.7-.5-10.2-6-5.7-7.1-9.8-9.8-16-10.6-4.7-.6-5.2-1-6.9-4.8-1-2.3-1.9-4.7-1.9-5.4 0-1.9 5.3-1.4 12.4 1.2zm-477.7 4.3c-.3 2.6-1.3 5.4-2.5 6.5-2.2 2.2-10.2 4.1-11.6 2.8-2.2-2.2 3.7-10.1 9.9-13.3 4-2 4.8-1.3 4.2 4zm392.5-2.2c4.2 2.9 8.2 8.9 7.4 11.1-.5 1.2-1.5 1.4-4.9.9-5.8-.9-9.7-5.1-9.7-10.5 0-4.8 1.7-5.2 7.2-1.5zm-197.1 5.7c1.2 4 4.2 12 6.6 17.8 2.4 5.8 5.3 12.7 6.4 15.5l2 5-5.3-5.5c-3-3-6.9-7.5-8.9-9.8l-3.5-4.4-4.2 5.4c-2.2 2.9-6.2 7.3-8.7 9.8l-4.6 4.5 1.9-5c1.1-2.8 3.6-8.7 5.6-13.2 1.9-4.5 4.9-12.5 6.6-17.8 1.8-5.2 3.4-9.5 3.6-9.5.2 0 1.3 3.3 2.5 7.2zm-228.3-1.5c.6 1.2.5 3.6-.3 6.8-.7 2.7-1.6 6.7-1.9 8.7-.8 4.2-9.4 13.8-12.4 13.8-.9 0-3.5-1.1-5.7-2.3-3.6-2.1-4-2.7-3.9-6.3.2-10.1 11.4-22.2 20.6-22.4 1.6 0 3.1.7 3.6 1.7zm111 7.5l.3 8.8h-5.4c-12 0-14.5-1.8-12.4-9.1 1.7-5.9 6.4-9.1 12.7-8.7l4.5.3.3 8.7zm240.8-7.6c3.7 1.8 5.3 4 6.4 9.1 1.1 4.9-.6 6.4-8.1 7.2-10.1 1-9.9 1.2-9.9-8.3 0-4.5.3-8.6.7-8.9 1.2-1.3 7.5-.7 10.9.9zm109.2.3c7.8 4 15.9 16 15 22.2-.3 2.5-6.8 6.9-10.2 6.9-1.1 0-4.1-2.2-6.6-4.8-4.2-4.4-4.9-5.7-6.7-13.8-2.3-9.8-1.9-12.4 2.3-12.4 1.4 0 4.2.9 6.2 1.9zM701 183c0 3.5-2.2 6.8-5.4 8.1-1.7.7-5.1 2.6-7.4 4.2-5.7 3.8-7.1 2.6-4.4-3.5 2.6-5.9 9.1-10.6 15-10.7 1.5-.1 2.2.5 2.2 1.9zm43.6.2c4.4 2 8.4 6.7 9.8 11.5 1.1 3.4-1 3.6-5.6.5-2.4-1.5-5.7-3.4-7.4-4.1-3.2-1.3-5.4-4.6-5.4-8.1 0-2.6 2.8-2.6 8.6.2zM440 192.5c0 6.2-.3 7.5-1.6 7.5-2.5 0-13.8-3.1-14.7-4-2.5-2.4 7.7-11 13-11h3.3v7.5zm564.8-6.1c4 2.1 9.8 8.4 8.6 9.5-1.4 1.3-14.1 4.4-15.6 3.9-.9-.4-1.2-2.5-1-7.7.3-6.8.5-7.1 2.8-7.1 1.4 0 3.7.6 5.2 1.4zm-307.4 12.8c-1.6 5.6-13.4 12.9-13.4 8.3 0-.9 2.7-4.3 6-7.7 4.5-4.7 6.3-5.9 7.2-5 .8.8.8 2.1.2 4.4zm51 1.9c2.5 2.8 4.6 5.7 4.6 6.5 0 2.4-3.7 1.5-8.2-1.9-4.5-3.4-6.6-7.3-5.5-10.1.9-2.4 3.4-.9 9.1 5.5zm-145.8-.8c4.2 3.6 2.7 5.7-3.8 5.7-6.7 0-13.7 1.9-22.6 6-6.8 3.1-6.9 3.1-11 1.5-6.8-2.8-5.3-5.2 6.3-10.6 4.8-2.3 9.2-3.5 14-4 12.9-1.2 14.2-1.1 17.1 1.4zm258.9.8c6.7 2.5 14.5 7.5 14.5 9.3 0 .8-2 2.2-4.5 3.2l-4.5 1.7-6.3-3.1c-7.7-3.8-16.5-6.2-22.9-6.2-6.1 0-7.4-2.2-3.4-5.7 2.6-2.2 3.2-2.3 12.4-1.7 5.4.4 12 1.5 14.7 2.5zm-427 2.7c6.3 2.1 6.8 4.2 1.9 7.2-3 1.9-5.4 2.4-13.7 2.7-21 .8-33.4 5.1-43.9 15.3-5.2 5-5.9 6.1-6.4 10.6-.8 6.9 1 15.6 5.1 24.3 4 8.4 7.4 13.1 15.6 21.6 3.2 3.3 6.3 7.3 6.8 8.8 1.5 4 1.3 7.7-.4 8.3-2.6 1-12.3-5.7-19.4-13.3-12-12.8-18-28.1-16.6-42.6.8-8.2 1.8-11.4 6.4-19.2 9.9-17 26-25.4 48.6-25.4 7.8 0 12.5.5 16 1.7zm292.9 8.6c3.7 4.3 6.4 8.1 6.2 8.4-.6.6-7-4.5-11.5-9.2l-3.4-3.5-7 6.4c-3.8 3.6-7.4 6.5-7.9 6.5-1.3 0-.4-1.3 7.6-10.8 5.6-6.7 7.2-8.1 8.2-7 .6.7 4.2 4.8 7.8 9.2zm306.5-8.9c9.8 2.4 18.1 6.9 24.9 13.7 10 10 14.2 20.3 14.2 34.9 0 10.1-2.7 18.7-8.8 28-9.2 14-26.4 27-28.5 21.5-1.3-3.4 1.6-9.2 8.2-16.1 8-8.4 12.2-14.3 16.4-23.3 2.6-5.6 3.1-8.2 3.5-16.2l.4-9.6-3.4-4.4c-4.8-6.3-12.3-11.2-22-14.5-6.8-2.3-10.7-2.9-21-3.3-10.5-.4-13.3-.8-16.5-2.6-8.9-5-1.3-9.5 16.2-9.5 5.6-.1 12.9.6 16.4 1.4zm-561 6c3.6 1.8 3.9 3.8 1.3 8-1.5 2.4-3.8 3.8-10.7 6.4-7.2 2.7-9.9 4.4-14 8.5-5.1 5.2-10.4 14.6-12.5 22.5-.6 2.4-2.2 6-3.4 8-4.8 7.6-7.9 17.3-8.4 26-.4 7.9-.3 8.9 3.3 17.6 3.9 9.8 4.2 14.8 1 17.5-3.1 2.6-13.8-4.3-18.1-11.6-5.6-9.5-7.5-16.7-7.5-28.8-.1-12.7 2.1-21.5 6.9-28.2 1.6-2.1 3.4-6.1 4.1-8.8 2.1-8.4 7-16.7 13.7-23.3 8-7.9 12.4-10.8 21-13.9 5.6-2 8.2-2.4 13.6-2 3.6.3 8 1.2 9.7 2.1zm513.4-.2c9.3 3.4 14.4 6.7 22 14.2 7 7 12.8 17.1 14.3 25 .4 2.2 1.8 5.6 3.1 7.6 4.3 6.6 6.6 14.7 7.1 25.9.4 9.5.2 11.3-2.3 18.5-4.3 13-9.5 19.4-18.7 23.6-3.7 1.6-5.5.6-6.9-3.9-1-3.6-.8-4.5 2.6-12.3 2-4.6 3.9-10.7 4.2-13.4.7-6.8-1.9-17-6.6-26.4-2.1-4.2-4.3-9.9-5-12.6-1.9-7.4-8-18.4-13.1-23.5-3.4-3.4-6.8-5.4-13.5-8-7.8-3.1-9.3-4-11-7.3-2.6-4.7-1.4-6.8 4.6-8.4 6.8-1.8 12.2-1.5 19.2 1zm-380 1.8c2.4 1.1 4.5 4.4 3.4 5.5-.2.3-2.9.9-5.8 1.4-3 .4-7.4 1.8-9.9 2.9-5.8 2.6-8.6 2.6-13.4-.2-5-2.8-5.4-4.1-2-6.4 7-4.5 21.1-6.2 27.7-3.2zm85.7 4.7c-1.2 2.8-3 5.8-4.1 6.8-1.7 1.5-1.9 1.5-2.5 0-1-2.6.4-6.3 3.8-10.1 4.2-4.9 5.6-3.2 2.8 3.3zm59.6 2.6c.3 1.4.3 3.3 0 4.2-.6 1.5-.8 1.5-2.5 0-2.5-2.3-6.4-11.3-5.5-12.8.9-1.5 7.1 5.2 8 8.6zm100-6.7c6.1 1.9 10 4.6 9 6.2-1.2 1.8-8.3 5.1-11.1 5.1-1.4 0-4.4-.9-6.6-2.1-2.2-1.1-6.2-2.3-8.9-2.6-6.1-.7-7.4-1.5-6.6-4.1 1.6-5 12.6-6.2 24.2-2.5zm-126 7.8c3.2 3 5.5 5.4 4.9 5.4-.5 0-3.5-1-6.5-2.2l-5.5-2.2-5.8 2.3c-3.3 1.3-6.1 2.1-6.3 1.9-.7-.6 10.8-10.7 12.1-10.7.7 0 3.8 2.5 7.1 5.5zM573.5 222c11.8 5.8 34.2 19.6 33.3 20.6-.8.8-12.5-3.9-23.8-9.6-13.2-6.6-16-7.5-16-5.1 0 1 2.6 7.2 5.9 13.7 6.2 12.6 10.7 24.1 9.8 25-.8.8-16.3-24.7-21.4-35-2.4-5.1-4.6-10.8-5-12.9-.6-3.8-.6-3.8 2.3-3.2 1.6.4 8.3 3.3 14.9 6.5zm307.2-3.3c-.4 2.1-2.6 7.8-5 12.9-4.9 10.1-20.6 35.8-21.4 35-1-1 3.8-13.4 9.7-25.1 3.3-6.5 6-12.6 6-13.6 0-2.4-2.8-1.5-16.5 5.4-11.6 5.7-23.2 10.3-24.1 9.5-.7-.7 23.1-15.5 32.6-20.3 7.1-3.6 16.4-7.4 18.4-7.5.5 0 .6 1.7.3 3.7zm-456.2.3c1.1 1.9-1.5 4.9-5.3 6-2 .5-6 1-8.8 1-6.1 0-16.7 4.9-22.6 10.5-4.4 4.1-4.8 7-2.2 16.8 2 7.7 3.6 10.9 8.3 16.1 5 5.4 6.3 8 5.5 11.1-.9 3.5-2.2 3.2-7.2-2.3-9.3-9.9-15.6-24-15.7-34.9 0-6 .1-6.3 4.5-10.8 7.9-8.1 23.9-14.2 37.7-14.4 2.8-.1 5.5.3 5.8.9zm111.5 1.2c7.1 3.6 6 5.4-3.1 5-6.2-.3-8.6 0-12.8 1.8-10.4 4.5-20.7 19.7-21.8 32.1-.3 3.5-1 7-1.6 7.7-1.3 1.6-7.6 4.4-8.7 3.7-1.3-.8-3-9.1-3-14.7 0-9.6 10.6-27.3 19.6-32.8 8.7-5.5 23.5-6.7 31.4-2.8zm389.3-.2c5 1.6 7.7 3.1 11.2 6.6 9.5 9.5 15.5 20.8 15.5 29.3 0 5.2-1.6 12.7-3.1 14.4-.4.5-2.7 0-5.1-1.1l-4.5-1.9-.6-7.4c-.8-9.6-5.1-18.5-12.6-26-7.2-7.2-13.3-9.4-23.3-8.6-7.2.6-8.7-.4-5-3.5 4.7-4.2 17.2-5 27.5-1.8zm108.2.5c9.1 2.3 17.8 7 22.4 12 3.9 4.3 4.1 4.7 4.1 11 0 11.5-6.4 25.7-16 35.7-5.2 5.4-7 5.5-7 .4 0-2.5 1.3-4.7 5.5-9.6 6.4-7.4 9.5-15.6 9.5-25 0-5.6-.2-6-4-9.3-7.6-6.5-13.5-9-23.3-9.8-9.7-.8-13.7-2.9-12.3-6.5.6-1.5 1.6-1.6 7.9-1.1 3.9.4 9.9 1.3 13.2 2.2zm-480.6 1.8c2.6 3.3 2.4 7.6-.7 14-3.5 7.1-6.2 17.1-6.2 23.4 0 2.3-.4 4.5-1 4.8-1.7 1-4.7-1.3-5.9-4.5-1.7-4.9.2-20.8 3.3-27.5 4.7-10.3 7.8-13.3 10.5-10.2zm60.2.3c4 2 3.2 3.7-2.2 4.6-2.4.4-6.1 1.5-8.2 2.3-3.6 1.4-4.1 1.4-7-.2-4.3-2.6-4.4-3.9 0-6.2 4.7-2.5 13.2-2.7 17.4-.5zm227.7.4c4.6 2.1 5 3 2.5 5.2-3.1 2.6-5.1 2.8-10.9.8-3.2-1.1-7-2-8.6-2-3.7 0-3.7-2.4 0-4.4 3.8-2.1 11.9-1.9 17 .4zm50.2 2.6c3.9 6.3 6.7 15.3 7.4 24.2.5 7.9-.6 12.7-3.4 14.2-3.3 1.8-3.7 1.1-4.3-6.3-.7-7.5-2.9-15.3-6.6-22.5-2.4-4.7-2.6-6.6-1-11.1 1.6-4.6 4.3-4 7.9 1.5zm-165.2 1.6c10.4 4.6 9.3 5.4-3.7 2.9-1.9-.4-6.8-.1-11 .6-4.1.7-7.7 1.1-7.9.8-.4-.4 13.2-7.2 14.8-7.4.3-.1 3.8 1.3 7.8 3.1zM472 232.1c0 6.6.2 6.3-10 14.8-2.6 2.1-5.2 5.9-7.4 10.5-11.1 23-10.1 19.8-10.1 33.3v12.2l-4 4.1c-2.1 2.2-4.5 4-5.3 4-.7 0-2.5-2.6-4-5.8-5.3-11.5-3.7-27.1 4.1-38.8 1.9-2.8 3.9-7.3 4.6-10C444 240 457.3 226 468.8 226h3.2v6.1zm502.6-4.4c9.9 3.4 19.2 15.5 22.4 29.3.7 3 2.7 8 4.5 11 4.8 8 6.7 14.5 6.9 23 .1 6.2-.4 8.5-2.6 13.3-3.4 7.3-5 7.9-9.4 3.6-5.3-5-5.7-6.2-4.3-12.3 1.4-6.5.2-14.8-3.4-23.4-1.4-3.1-3.3-7.8-4.2-10.5-2.5-7.1-7.5-13.8-13.1-17.5-5.8-4-6.2-4.9-6.3-12.5-.1-5.3.1-5.7 2.2-5.7 1.3 0 4.6.8 7.3 1.7zm-439.8 1.9c2.4 1.7 2.8 4.5 1.1 9.3-1 2.9-1.4 3.1-6.3 3.1-8.9 0-14.8 5.3-16.6 15-1.2 6.6-1.6 7-6.8 7.7-3.8.5-4.2.3-4.8-2.1-2.4-9.8 10-28.7 21.6-32.6 6.8-2.4 8.9-2.4 11.8-.4zm381.2 1.1c9.8 4 21.2 22.1 19.5 31-.5 2.9-1 3.3-3.9 3.3-4.7 0-6.5-1.8-7.6-7.9-1.8-9.7-8-15.1-17.3-15.1-3.7 0-4.6-.4-5.5-2.5-2-4.4-1.5-9 1.1-10.3 2.5-1.3 8.6-.6 13.7 1.5zm-500 1c0 2.2-3.9 6.3-6 6.3-1 0-3.8 1.6-6.4 3.5-4.4 3.5-4.6 3.8-4.6 8.8.1 2.9.7 6.3 1.5 7.7 1.8 3.2 1.9 7.1.2 9.4-1.2 1.7-1.5 1.6-4.4-1.7-3.4-3.9-6.8-11.9-7.8-18.8-.6-4.4-.5-4.6 3.5-8.3 5.6-5 13.3-8.5 19.3-8.5 3.8-.1 4.7.2 4.7 1.6zm619.5 1.1c3.3 1.6 7.5 4.1 9.3 5.6 2.7 2.3 3.2 3.5 3.2 7 0 5.8-2.3 13.1-5.9 18.8-3.4 5.4-5.6 6-7.3 2.3-.9-2.1-.8-3.3.6-6.3 1-2 2.1-6.2 2.3-9.2.5-5.5.5-5.6-3-8.3-2-1.5-5.6-3.6-8-4.6-3.3-1.4-4.7-2.7-5.5-5l-1.1-3.1h4.7c3.1 0 6.8 1 10.7 2.8zm-431.4 13.8l12.3 4.9-7 .3c-3.9.2-9.7-.1-12.8-.6l-5.8-.9.6 3.6c1.3 8.4 1.8 22.6.8 21.6-.5-.6-3.5-7.2-6.6-14.9-3.1-7.6-7.2-16.6-9.1-20.1-1.9-3.4-3.5-6.7-3.5-7.3 0-.6 4.2 1 9.4 3.7s15 7.1 21.7 9.7zm17.3-14c4.5 1.7-2.4 5.4-10.1 5.4-3.3 0-7.3-2.5-7.3-4.6 0-1.1 1.7-1.4 7.9-1.4 4.4 0 8.6.3 9.5.6zm211.6.8c0 2.3-4.1 4.6-8 4.6-5.1 0-11-1.9-11-3.5 0-2 1.6-2.3 10.8-2.4 6.5-.1 8.2.2 8.2 1.3zm25.7 10.8c-3 6.2-7.2 15.6-9.2 20.8-2 5.2-4.1 9.9-4.7 10.5-1.1 1-.4-15.1.9-21.5l.6-3.2-8.4.7c-4.6.3-10.3.8-12.6 1.1-2.4.3-4.3.1-4.3-.4s5.4-3 11.9-5.6c6.6-2.6 16.1-6.9 21.3-9.5 5.1-2.7 9.5-4.7 9.7-4.5.2.2-2.1 5.4-5.2 11.6zM562 241.7l2.2 4.7-2.6 6.5c-1.5 3.6-3 8.8-3.5 11.4-1 5.6-1.3 6-3.5 5.1-2.8-1.1-4.8-6.2-4.7-12.3 0-6.4 3.1-17.3 5.7-20.2 2.2-2.4 3.5-1.4 6.4 4.8zm321.7 0c4.7 10.2 4.2 24.7-.9 27.4-2.7 1.4-3.4.5-4.1-5-.3-2.7-1.8-7.7-3.2-11.1-2.8-6.6-2.6-9.1 1-14.7 2.5-3.7 4.4-2.8 7.2 3.4zm-146.9-2c5.7 1.4-1.3 2.3-18.3 2.3-22.1 0-26.6-1.5-10.5-3.4 4.3-.5 25.6.3 28.8 1.1zm-109.3 1.8c3.3 1.3 5.4 3.9 4.2 5.1-.7.7-11.8-2.4-13.4-3.8-.7-.6-1.3-1.4-1.3-1.9 0-1.4 6.7-1 10.5.6zm191.9-.6c.9 1.4-1.4 2.8-7.7 4.6-6.2 1.8-7.3 1.6-6.3-1 1.2-3.2 12.5-6.1 14-3.6zm-149.1 1.6c.9.8 1.8 3.4 2.2 5.7 1 5.6 4.6 12.8 8.5 16.7 2.3 2.2 5.8 3.9 13.3 6.2 11.7 3.6 13 4.4 10.2 6.6-4.4 3.3-19.4-.6-28.2-7.3l-3.2-2.4-.7 3.7c-2 11-7.6 21.3-13.3 24.6-5.3 3.1-5.1-.2.7-11.3 5.7-10.7 6.3-14.5 3.6-22.5-.8-2.6-2.8-6.7-4.4-9.2-2.7-4.2-2.8-4.8-1.6-7.7.9-2.2 1.9-3.1 3.4-3 1.2 0 2.2-.3 2.2-.8 0-1.4 5.8-.9 7.3.7zM774 242c0 .5.6.7 1.3.4 1.4-.5 4 2 5 4.8.3.9-.7 3.6-2.3 6.2-7.4 11.6-7.7 20.2-1.1 31.7 7 12 6.6 16.2-1 10-4.4-3.7-8.4-11.1-10.3-19-.8-3.5-1.7-6.5-1.9-6.7-.2-.2-3.1 1.2-6.3 3.1-9.4 5.7-19.7 8-24.5 5.5-4.2-2.3-2.6-3.4 11.3-7.5 6.3-1.8 9.5-3.4 11.8-5.6 3.9-3.9 7.7-11.5 8.6-16.9.4-2.3 1.3-4.8 2.1-5.6 1.6-1.6 7.3-1.9 7.3-.4zm-94.2.9c.7.4 2.4 3 3.6 5.8 1.4 3 4.2 6.5 7 8.8 4 3.3 7.6 8 7.6 10 0 1.2-4.7.3-9-1.6-6.6-3-9.7-6.4-12-13.5-2.8-8.3-1.6-12.3 2.8-9.5zm81.7 1.1c1 3-3.1 14.3-6.3 17.3-3.2 3-10.7 6.6-14 6.7-3.7 0-1.9-3.7 4.8-10 3.5-3.3 6.7-7.4 7.8-10.1 1.1-2.6 2.6-4.9 3.4-5.2 2.5-1 3.7-.7 4.3 1.3zM411 245.3c0 2.7-5.6 11-6.9 10.2-.5-.2-1.2-2.2-1.6-4.2-.6-3.3-.4-4 2.2-6 3.7-3 6.3-3 6.3 0zm620.4-.2c2.6 2 3.4 5.7 2 9.3-1.5 4-5.9-.7-7-7.3-.8-4.8.7-5.4 5-2zm-498.5 1.7c.5 1 1.2 4.9 1.6 8.8.7 6.9.7 7.1-1.6 7.7-1.3.4-5.4.4-9.2 0-6.1-.5-6.8-.8-7.3-3-.8-3.2 1.1-9.5 3.5-11.7 3.9-3.5 11.5-4.6 13-1.8zm159.7-1c.9.5 1.2 7.1.5 9-.1.1-1-.2-2.2-.8-2.3-1.3-6-7-5.3-8.2.6-1 5.5-1 7 0zm30.4.2c0 1.6-7.7 1.6-9.4-.1-.6-.5 1-.9 4.2-.9 2.9 0 5.2.4 5.2 1zm28.4-.2c.7 1.2-3 6.9-5.3 8.2-1.2.6-2.1.9-2.2.8-.7-1.9-.4-8.5.5-9 1.5-1 6.4-1 7 0zm163.3 1.4c3.4 1.6 6.9 9.4 5.9 13.1-.5 2.3-1.2 2.6-8.1 3.2-10.7 1-10.9.9-10.1-7.6.9-9.6 1.9-11.3 6.2-10.6 1.8.3 4.6 1.2 6.1 1.9zm-443.7.4c0 .9-1.4 4.8-3.2 8.7-1.7 4-3.5 9.2-4 11.6-.4 2.5-1.8 5.5-2.9 6.7-1.2 1.3-3.8 6.5-5.9 11.6-4.2 10.4-6.3 12.1-7.9 6.2-1.3-4.8.1-12.1 4-20.4 8.6-18.2 10.2-21.1 13-23.4 3.4-2.9 6.9-3.4 6.9-1zm501.1.5c4.7 3.3 7.6 9.1 15.5 30.9 2.5 7 3 11.4 1.4 15.4-1.5 3.9-2.9 3.2-5.6-3.2-6-13.6-6.8-15.3-8.6-16.9-1.1-.9-1.8-3-1.8-5 0-1.9-1.6-7.2-3.5-11.9-1.9-4.6-3.5-9.1-3.5-9.9 0-2.1 2.7-1.9 6.1.6zm-263.8 1c2 .5 3.7 1.3 3.7 1.8 0 .4 1.4 2.9 3 5.5 3.5 5.5 4.5 5.3 7.9-1.8 2.2-4.7 5.5-6.6 11.6-6.6 3.7 0 4.5 1.2 4.5 7.1 0 8-7.3 17.8-15.2 20.5-4.8 1.6-5.4 1.6-10.4 0-8-2.5-15.4-12.4-15.4-20.5 0-7.4 1.8-8.4 10.3-6zm-137.7 9.8c-1.5 7.5-4.3 16.2-5.1 16.4-1.6.3-4.5-6.5-4.5-10.6 0-3.8 2-9.8 4.2-12.5 1.8-2.2 6.2 3.2 5.4 6.7zm149.7-7.3c.3.4.1 1.6-.5 2.7-1 2-1.1 2-2.4.2-.7-1-1.1-2.2-.8-2.6.6-1 2.8-1.2 3.7-.3zm153.8 5.1c2.4 5.6 2.4 10.8.1 15.2-2.5 5.1-3.9 5-4.8-.6-.4-2.6-1.3-6.2-2-8-1.9-4.5-1.7-6.6.7-9.7 2.5-3.2 3.5-2.7 6 3.1zM659 259.6c3.3 6.6 3.3 13.3 0 19.9-1.4 2.7-3 5.1-3.7 5.3-1.8.5-3-5.6-2.5-12.8.3-4.6-.1-7.7-1.2-10.4-1.9-4.6-2-6.8-.4-8.4 1.8-1.8 4.8.7 7.8 6.4zm-52.3-5c5.4.3 10.3.9 10.8 1.3 1.6.9-4.3 1.9-12.2 2l-7.3.1-.1 8.2c-.1 10-1.3 14.5-2.2 8.3-.4-2.2-.9-8-1.3-12.9-.6-7.8-.5-8.8.9-8.3.8.3 5.9.9 11.4 1.3zm180 0c.3.9-.1 3.7-1.1 6.3-1 2.9-1.6 7.7-1.6 12.8 0 8.9-.5 11.3-2.5 11.3-1.6 0-5.6-8.4-6.2-13.1-.6-4.4 1-10 4.3-15.2 2.6-3.9 6-4.9 7.1-2.1zm55.9 6.1c-1.2 14.5-1.8 18-2.7 15.8-.4-1.1-.8-5.7-.8-10.3l-.1-8.2-7.7-.1c-8.3-.1-14-1.2-11.3-2.2.8-.3 6-.9 11.5-1.5 5.5-.5 10.4-1 10.9-1 .4-.1.5 3.3.2 7.5zm-364.6 17c0 .7-1.9 2.1-4.2 3.2-2.4 1.1-7.1 3.6-10.6 5.6-6 3.4-6.3 3.4-5.6 1.3 1.1-3.8 4.5-10.2 6.5-12.4 1-1.1 2.3-4.2 2.8-7 .5-2.7 1.7-6.7 2.7-8.9l1.7-4 3.3 10.5c1.9 5.8 3.4 11 3.4 11.7zm491.8-8.7c.3 2.7 1.7 6.1 3.7 9 3.4 4.8 6.1 10.7 5.3 11.6-.3.2-3.6-1.2-7.4-3.3-3.8-2.1-8.2-4.5-9.8-5.3-1.6-.8-2.9-2-2.8-2.5 0-.6 1.5-5.9 3.4-11.9l3.3-10.9 1.9 4.4c1 2.4 2.1 6.4 2.4 8.9zm-352.3-7.1c-.6.4-3.1 1.6-5.6 2.6-4.2 1.5-4.9 2.3-7.5 7.8l-2.8 6.2-.4-6.1c-.1-3.3.2-7.2.7-8.7 1-2.6 1.3-2.7 8.8-2.7 4.4 0 7.3.4 6.8.9zm32.7 5.3c.2 5.1-1 6.4-3.3 3.9-1.1-1.2-2.4-2.1-2.9-2.1-1.8 0-1.1-3.6 1.1-5.9 1.8-2 2.3-2.1 3.5-.9.8.8 1.5 3 1.6 5zm143.8 0c0 1-.4 1.8-1 1.8-.5 0-1.8 1-3 2.2-1.1 1.2-2.3 1.8-2.7 1.4-1.2-1.2-.7-8.4.7-10.1 1.2-1.4 1.6-1.3 3.7.6 1.2 1.3 2.3 3.1 2.3 4.1zm39.9-5.3c.9.6 1.6 3.6 1.9 8.6.6 9-.4 9.3-3.7 1.2-2-4.9-2.6-5.5-7.1-7.1-2.8-1-5.3-2.2-5.6-2.7-.7-1.2 12.7-1.2 14.5 0zm-257.5 3.3c2.9 4.1 1.5 16.8-1.8 16.8-1.8 0-2.6-3.1-2.6-11.1 0-8.4 1.3-10.1 4.4-5.7zm48.6-1.3c0 .4-2.7 2.7-6 5-3.7 2.6-7.6 6.5-10.1 10.2-2.2 3.4-4.3 5.8-4.6 5.5-.3-.3.6-3.9 2.1-8l2.8-7.5 7.6-3c4.2-1.6 7.8-3 8-3 .1-.1.2.3.2.8zm239.4.7c1.8 4.6 0 18.4-2.3 18.4-1.4 0-3.1-5.8-3.1-10.9 0-6.4 3.8-11.7 5.4-7.5zm-43.7 1.9l6.9 2.6 2.8 7.5c1.5 4.2 2.6 7.8 2.3 8-.3.3-2.6-2.3-5.1-5.9-2.8-3.9-6.7-7.8-10.1-10.1-8.3-5.4-7.4-6 3.2-2.1zm-282 2c9.8 1.9 19.4 6.5 30.3 14.8 8.4 6.4 18 15.7 18 17.6 0 2.7-2.1 6.1-3.8 6.1-1.1 0-5.2-3.6-9.6-8.5-6.3-6.9-9.1-9.1-15.1-12-20.2-9.8-33.1-10.1-49.9-1.2l-5.8 3.1.6 4.5c.9 6.5 7 18.2 12.5 23.9 5.1 5.4 10.2 8.3 22.1 12.8 6.9 2.6 8.6 2.8 21 2.9 15.1 0 16.3.7 11.7 6.1-2.4 2.7-2.8 2.8-10.8 2.6-4.6-.1-13.6-1-19.9-2.1-16.3-2.8-25.5-7.6-37-19.1-11.5-11.5-19.9-26.4-20-35.1-.1-12.1 30.8-21.1 55.7-16.4zm96.3-.6c0 1.2-25.9 27.1-27.1 27.1-.5 0-.9-.3-.9-.6 0-1.7 12.3-15.5 18.9-21.1 7.2-6.1 9.1-7.3 9.1-5.4zm175.5 5.1c5.9 4.9 19.5 19.8 19.5 21.4 0 1.9-3.1-.6-13.7-11.2-6.5-6.4-12.7-12.8-13.8-14.1-3.6-4.2.8-2.1 8 3.9zm122.3-3c8.5 2.4 15.9 5.9 18.5 8.8 6.5 7.2-5.6 32.2-22.1 45.8-12 9.9-22.7 13.7-45.4 16.4-15.4 1.8-20.6-.3-19.9-7.8.1-1.1 2.4-1.2 11.9-.7 12.8.7 18.4-.4 31.8-6.5 11.4-5.1 20.5-16.1 24.6-29.4l2.1-6.9-2.9-2.4c-8.8-7-27.7-10.3-38.5-6.8-14.6 4.8-20 8.2-29.7 18.2-8 8.4-9.4 9.5-10.7 8.2-.7-.8-1.7-2.6-2-4.1-.6-2.3.1-3.5 4.2-7.9 6.4-7 22.4-18.8 29.8-22.1 13.7-6.1 32.7-7.2 48.3-2.8zM646 276.7c2.7 2.8 4 5.2 4.9 9.1 1.6 7.8 1.4 10.7-1.4 16.2-3.6 7.2-8.3 9.4-18.5 8.8-8.8-.5-13.4-2.7-16.4-7.9l-1.9-3.3 3.8-3.3c4.3-3.7 5.7-3.9 13.2-1.9 3 .8 5.5 1 5.9.5.3-.5-.2-3.6-1.2-6.8l-1.6-6 2.8-4.6c3.6-5.5 5.5-5.7 10.4-.8zm155.4 1l2.9 4.2-1.7 5.9c-2.6 9.2-2.9 8.9 6.6 6 4.6-1.3 7.4-.6 11.7 3l3.5 2.9-2.2 3.5c-2.9 4.7-8.1 7.1-16.6 7.6-5.5.4-7.7 0-11.5-1.7-3.9-1.9-5-3.1-7-7.7s-2.3-6.4-1.7-11.2c.8-7.1 3.7-13.2 7.3-15.4 3.8-2.4 5.2-1.9 8.7 2.9zM677 276c0 .5-.4 1-1 1-.5 0-1-.5-1-1 0-.6.5-1 1-1 .6 0 1 .4 1 1zm85 0c0 .5-.4 1-1 1-.5 0-1-.5-1-1 0-.6.5-1 1-1 .6 0 1 .4 1 1zm-395.4 3.4c1.5 3.1 1.5 3.8.1 8.2-2.6 7.9-4 18.2-3.4 25 .5 6.9 4.1 15.6 10.1 24.5 3.1 4.7 3.4 5.5 2.1 6.8-2.4 2.4-9-.2-14.6-6-10.3-10.5-13.4-29.3-7.9-47.1 2-6.6 7.9-14.8 10.6-14.8.8 0 2.2 1.5 3 3.4zm217.9 1.3c2.1 4.9 3 11.3 1.7 11.3-3.4 0-8-11.8-5.5-14.3 1.3-1.4 2.3-.6 3.8 3zm272.3-1.4c.8 4.2-3.2 12.7-6 12.7-1.3 0-.3-6.8 1.7-11.7 1.5-3.5 3.7-4.1 4.3-1zm221.9 2.5c5 6.6 6.8 13.8 6.8 27.2-.1 14.5-2.2 20.7-9.9 28.6-5.5 5.6-12.6 8.8-14.8 6.6-1.3-1.3-.9-2.3 4.8-11.2 8.1-12.9 9.7-24.3 5.5-40.4-2.4-9.2-2.5-10.9-.8-13.6 1.8-3 4.7-2.1 8.4 2.8zm-450.6 1c-1.5 2.7-4.9 5.4-6.3 5-.9-.3-.2-1.5 1.9-3.6 3.5-3.5 6-4.3 4.4-1.4zm85.9 2.4c.6 2.4 1.9 6.7 2.9 9.7l1.7 5.4 2.3-7.9c1.2-4.3 2.5-8.7 2.8-9.7.6-2.2 2.3-2.2 2.3 0 0 .9-.9 4.4-1.9 7.7-1.1 3.4-2.2 7.3-2.5 8.7-1.1 5.1-6.6 3.8-6.6-1.6 0-.8-.9-4.1-2-7.2-2.2-6.3-2.5-9.3-1-9.3.5 0 1.4 1.9 2 4.2zm98.9-1.1c1.7 1.7 3.1 3.5 3.1 4 0 1.7-5.8-2.3-6.9-4.8-1.5-3.2.2-2.9 3.8.8zm-265.1 1.1c8.2 3 18.3 10 24.7 17.1 6.9 7.6 7.6 9.9 4.1 13.6-1.4 1.5-2.6 3.6-2.6 4.7-.1 7.3-4 8.9-20 8.1-15.7-.8-26.2-5-35.5-14.3-5.2-5.2-10.1-14.2-11.1-20.2l-.6-4 5.3-2.8c3-1.5 7.7-3.3 10.4-4 6.5-1.7 18-.9 25.3 1.8zm149.2.2c6.2 3.1 8.5 7.3 8.5 15.6-.1 7.6-3 15.2-7.5 19.5-2.6 2.5-3.4 2.7-7.9 2.2-12.2-1.4-23.1-11.3-23.1-20.8 0-3.7 3.9-13.1 5.2-12.7.6.2 1.2 2.6 1.4 5.3 1 12.3 7.2 21.6 15.5 23 3.9.7 4.5.5 6.6-2.1 5.6-7.1 4-17.8-4.3-28.1-1.9-2.3-3.4-4.4-3.4-4.8 0-.9 3.8.3 9 2.9zm9.8-.7c3.1 4.4 5.3 12.3 5.5 19.3.1 5.8-.3 7.3-3.7 13.8-5.2 9.8-9.8 12.7-18.9 12-9.6-.8-16.9-4.7-22.3-12-5.3-7.2-8.4-15.9-6.5-18.2 1.9-2.3 2.8-1.2 3.6 4.4 1.7 12.1 14.2 22 27.8 22.1 6 .1 8.6-2 13-10.6 2.6-5.1 3.1-7.1 3.1-13.5.1-7.6-.1-8.1-5.5-16.8l-2.1-3.2h2c1.2 0 2.9 1.2 4 2.7zm28.2-1.4c0 .7-1.1 2.8-2.5 4.7-5.5 7.4-5.7 17.8-.6 27.8 3.1 6.1 6.3 9.6 9.8 10.6 3.6 1.1 14.3-2.1 19.8-5.9 6.3-4.3 9.1-8.5 10.6-15.5 1.3-6.5 2.3-7.9 3.8-5.2 2.5 4.6-5.9 20.6-13.1 25-4.9 3-12.7 5.4-17.5 5.4-7.3 0-12-3.5-16.7-12.2-3.6-6.6-4.1-8.3-4-13.6.2-7.3 2.6-16.1 5.5-19.7 2.2-2.8 4.9-3.6 4.9-1.4zm14-.7c0 .3-1.5 2.4-3.4 4.7-4.9 6.1-6.8 10.3-7.3 16.6-.3 4.3 0 6.4 1.5 9 2.5 4.6 4.2 5.5 8.6 4.7 7.8-1.5 14.7-12.5 14.9-23.7.1-3 .5-4.8 1.1-4.6 1.8.5 5.5 9 5.6 12.5.1 10-13.1 21.2-25 21.2-4.4 0-7.9-3.3-11-10.2-5.9-13.5-2.2-25.1 9.3-29.1 4.8-1.8 5.7-1.9 5.7-1.1zm163.1.4c6.4 1.2 17.9 6.6 17.9 8.4 0 2.9-4.1 12.8-6.9 17-9.8 14.2-25.4 21.1-46.2 20.4-12.3-.3-13.6-1-14.6-7.4-.3-2.1-1.5-4.9-2.6-6.1-1.3-1.5-1.7-3-1.4-4.5 1-3.8 11.2-14.3 18.5-19.1 12.7-8.3 23.3-10.9 35.3-8.7zm-192.7 4.5l-.7 2.9-.9-2.4c-1.1-2.9-.2-5.8 1.3-4.3.6.6.7 2.2.3 3.8zm-32.7-.6c4.6 3.3 9.3 11.8 9.3 16.8 0 4.2-2.9 10.3-4.9 10.3-.9 0-3.4-.9-5.7-1.9-3.1-1.4-4.7-3-6.3-6.4-3-6.2-3.7-13.3-1.8-18 2-4.6 4-4.7 9.4-.8zm71.7-1.4c3.5 3.5 3.2 12.4-.6 20.4-1.6 3.2-3.1 4.8-6.2 6.2-2.3 1-4.8 1.9-5.7 1.9-1.9 0-4.9-6.1-4.9-10.1 0-6.4 5.5-15.4 11.2-18.2 4.1-2 4.3-2.1 6.2-.2zm-281.5 1c-.1.6-3 2.8-6.3 5-11.6 7.6-17 20-17.1 39 0 9.7.3 11.5 2.4 15.5 4 7.6 13.4 16.5 20.7 19.7 7.1 3.1 8.6 5.4 6.6 10.5-.7 2-.7 3.6 0 5.6 2 5.2.5 7.4-6.7 10.6-7.7 3.3-15.6 10.8-20 18.7-2.8 5.1-3 6-3 16.4.1 18.3 5.6 31.4 16 38.3 7.4 4.9 9.2 6.5 7.7 7-2.1.7-11.7-4.5-19.2-10.5-8.6-6.7-19.1-18.7-22.6-25.9-3.8-7.7-4.3-18.3-1.5-29.4 3.3-13.1 6.3-18.5 13.2-23.3 3.2-2.3 5.8-4.4 5.8-4.7 0-.3-2.6-2.4-5.8-4.7-6.9-4.8-9.9-10.2-13.2-23.3-2.8-11.1-2.3-21.7 1.5-29.4 5.6-11.4 21.4-26.9 34.1-33.4 6-3.1 7.9-3.5 7.4-1.7zm493.5 4.2c12.3 7.5 25.1 20.5 30.7 31.3 3.5 6.8 3.9 21.3.9 31.2-3.6 11.8-6.4 16.3-13.1 21.3l-6 4.4 5.3 3.5c6.3 4.2 9.2 8.2 12.5 17.3 3.4 9 4.3 24.9 2 31.8-3.9 11.4-21 29.3-34.9 36.5-4.4 2.3-8.3 3.9-8.6 3.5-.7-.7.8-2 8.8-7.8 5.5-4 9.1-9.2 12.1-17.7 2-5.5 2.4-8.4 2.4-18.5 0-14.7-.9-17-10.9-27.1-5.5-5.5-8.3-7.5-12.4-8.8-6.3-2.1-8.1-5.1-6.2-10.3.8-2.3.8-3.8.1-5.2-.6-1.1-.8-3.3-.5-5 .5-2.5 1.5-3.3 5.3-4.7 10-3.7 21.5-15.3 24.2-24.4 1.5-5 .6-23.1-1.4-29.5-2.9-9.1-7.6-15.5-14.7-20.2-3.6-2.4-6.7-4.9-6.9-5.5-.6-1.8 4.9.1 11.3 3.9zm-338.4-.6c0 2.3-2.8 2.6-3.7.3-.6-1.6 1.5-3.7 2.9-2.8.4.3.8 1.4.8 2.5zm176.3 1c-.6.6-1.8.9-2.6.7-1.1-.2-1.2-.9-.5-2.7.8-2.3 1-2.4 2.5-.8 1.3 1.2 1.4 2 .6 2.8zm-434.2-1.4c1 1.1 1.4 4.8 1.4 12.9 0 11.1 0 11.3 3.3 15.9l3.3 4.7-1.6 4.9c-.9 2.7-2.2 4.9-2.9 4.9-2.9 0-7.7-8.4-10.1-17.5-1.6-6.4-.7-17.6 1.9-24 1.7-3.9 2.7-4.3 4.7-1.8zm693.6 4c1.3 3.4 1.8 7.5 1.8 13.8 0 8.1-.3 9.7-3.4 16.2-4 8.5-6.2 11.1-8 9-.6-.8-1.7-3.1-2.4-5.2-1.3-3.7-1.2-4 1.9-8.7 4.2-6.1 4.9-10.3 3.6-18.6-.9-5.5-.9-7 .4-8.9 2.2-3.5 4.1-2.8 6.1 2.4zM481.4 295c2.1 5.4 2.1 5.4-1.8 9.7-9 10.2-12.8 26.4-9 39.4 1.3 4.3 2.8 6.6 7.6 11.2 4.7 4.5 5.8 6.1 4.7 6.7-3.3 2.1-10.8-1.8-17-8.8-8-9.1-10.2-16.5-8.8-29.1 1-9.3 4-18.2 7.5-22.8 2.6-3.4 11.8-10.2 14-10.2.7-.1 1.9 1.7 2.8 3.9zm486.8 3.2c4.5 3.5 8.3 11 10.3 20.3 3.3 15.7 1 24.8-8.9 35.2-6.1 6.4-11.9 9.6-15.7 8.6-2.8-.8-2.3-2.1 1.6-4.5 3.7-2.1 8.2-8 10.4-13.5.9-2.2 1.2-6.3.9-12.5-.6-11.3-3.2-18.7-8.8-25.1-4.3-4.9-4.8-6.9-2.6-12.2l1.5-3.5 3.8 2.2c2.1 1.2 5.5 3.5 7.5 5zm-577.5 5.7c2.4 1.4 4.3 2.9 4.3 3.3 0 .4-2.4 2.9-5.2 5.7l-5.3 5-2.4-2.4c-1.9-1.9-2.6-3.7-2.9-8.4-.2-3.3-.2-6.7.2-7.6.5-1.4.9-1.4 3.8.1 1.8.9 5.2 2.8 7.5 4.3zm666.7-2.3c1.1 4.1-.4 11.3-2.9 14.2l-2.3 2.7-5.5-5c-3-2.8-5.5-5.3-5.6-5.7-.1-.9 13-8.8 14.5-8.8.7 0 1.5 1.2 1.8 2.6zm-444.9 7.5c-.7 1-6.5 1.2-8.9.3-2.5-.9-1.9-3.8 1.2-5.6 2.6-1.6 2.8-1.6 5.5 1.3 1.5 1.7 2.5 3.5 2.2 4zm220.7-4.4c3.7 3.3 1.7 5.3-5.3 5.3-4.5 0-4.8-.8-1.6-4.4 2.6-3 4.3-3.2 6.9-.9zm-173.3 6.5c1.6 3.5 3.8 7.5 4.7 9 1.6 2.4 1.6 2.7.1 4.3-1.6 1.5-1.9 1.5-4.4-.3-1.6-1.1-5.6-3.4-9-5.1-3.5-1.7-6.3-3.6-6.3-4.1 0-1.6 1.3-1.2 9.8 3.4l8.1 4.4-4.2-8.2c-2.3-4.4-4.3-8.4-4.5-8.9-.2-.4.3-.7 1.2-.7 1 0 2.7 2.5 4.5 6.2zm123.1-5.9c0 .2-2 4.1-4.5 8.7s-4.5 8.5-4.5 8.6c0 .1 3.7-1.8 8.2-4.2 8.5-4.6 9.8-5 9.8-3.4 0 .5-2.8 2.4-6.2 4.1-3.5 1.7-7.5 4-9.1 5.1-2.5 1.8-2.8 1.8-4.4.3-1.5-1.5-1.4-1.9.6-5.3 1.2-2 3.3-6.1 4.6-9 1.4-3 3-5.2 3.9-5.2.9 0 1.6.1 1.6.3zm-294.3 4.2c1.8 3.7 1.7 3.9-3.2 12-4.2 6.8-2.9 14.1 3.6 21l2.8 3-2.2 4c-1.8 3.1-2.9 4.1-5.4 4.3-6.5.6-13.1-12.6-11.9-23.6 1.5-12.9 7.4-24.2 12.5-24.2 1.4 0 2.7 1.1 3.8 3.5zm467.2-.5c4.2 4.2 7.2 13 7.8 22.5.5 7.6.3 8.3-2.9 14.5-5.1 9.8-9.9 10.7-14.3 2.7l-2-3.6 3.1-3.3c4.4-4.6 5.4-6.9 5.4-12.5 0-3.9-.7-5.9-3.5-10-1.9-2.9-3.5-5.6-3.5-6 0-1.8 4.1-7.3 5.4-7.3.8 0 2.8 1.4 4.5 3zm-551.9.2c0 .7-1.4 3.3-3.1 5.8-15.4 22.8-16.9 43.1-4.3 58.6l4.4 5.4-4.4 5.4c-12.6 15.5-11.1 35.8 4.3 58.6 2.9 4.2 3.9 7 2.6 7-1.9 0-6.7-3.5-10.4-7.5-12.2-13.2-16.8-40.1-9.9-57.3l2.6-6.2-2.6-6.3c-3.4-8.3-4.1-22.3-1.8-32.9 3-13.3 10.1-25 18.1-30 3.5-2.1 4.5-2.2 4.5-.6zm196.3 1.5c2.4 1.3 5.7 1.8 12.9 1.8 14.5.1 15.9 3.3 3.3 7.5-7.1 2.4-10.7 1.9-17.9-2.3-5.4-3-6.7-5.4-4.2-7.3 2.4-1.7 2-1.7 5.9.3zm441.2 3.4c13.8 13 19 38.3 12 57.7l-2.4 6.7 2.4 7c6 17.6 3.5 36.6-6.9 51.7-4.8 7-12 12.8-13.8 11-.8-.8-.1-2.5 2.7-6.4 8.5-11.7 14.2-28.3 13.1-37.8-.8-6.6-4.4-14.9-9.1-20.6-1.9-2.3-3.5-4.5-3.5-4.9 0-.4 1.6-2.5 3.5-4.8 4.6-5.4 8.2-13.1 9-19.3 1.3-9.6-3.5-24.6-11.8-37.2-2.6-3.8-4.7-7.2-4.7-7.6 0-.3.9-.6 2.1-.6 1.1 0 4.4 2.3 7.4 5.1zM656 315.2c0 .5-1.1.1-2.5-.8s-2.5-2.3-2.5-3.2c0-1.2.6-1 2.5.8 1.4 1.3 2.5 2.7 2.5 3.2zm187.6-3.7c.9 2.2-1.2 4.3-7 7.2-6.8 3.5-12.4 3.5-20 0-5.6-2.6-5.9-2.9-4.3-4.5 1.4-1.3 3.7-1.7 11.5-1.7 5.7 0 10.5-.5 11.7-1.2 2.8-1.7 7.4-1.6 8.1.2zm-58.2.8c-.5 1.4-4.4 4.1-4.4 3 0-1 3.2-4.3 4.1-4.3.5 0 .6.6.3 1.3zm-147.8 3.2c1.9 4.8-13.8 15.1-24.8 16.2l-5.6.6 3.3 4.6c6.1 8.5 9.7 20.9 7.6 26.3-1.7 4.6-3.9 3.4-5.6-3-3.9-13.7-4.8-15.7-9-19.8-4.2-4-8.7-6.2-17.1-8.4-3.3-.8-4.4-1.7-5.5-4.1-1.1-2.8-1-3.3.4-4.4.9-.7 1.7-2.1 1.7-3.2 0-1.3 1.1-2.5 3-3.3 2.8-1.2 3.5-1 8.1 1.9 6.5 4 14.9 6.4 19.7 5.6 2-.3 7.8-2.8 12.7-5.5 5-2.7 9.4-5 9.8-5 .4 0 1 .7 1.3 1.5zm175.2 4.7c5.1 2.6 10.2 4.8 11.5 4.8 4.5 0 13.5-3 18.5-6.1 4.8-2.9 5.4-3.1 8.3-1.9 2.4 1 3 1.8 2.6 3.6-.2 1.4.2 2.5.9 2.8 1.8.7 1.8 3.6-.1 6.3-.9 1.3-3.1 2.4-5.7 2.8-5.8 1-15.5 6.2-18.3 9.9-1.3 1.7-3.7 7.7-5.5 13.4-2.5 8.2-3.5 10.3-4.8 10-1.3-.2-1.8-1.6-2-6.1-.4-7.2 1.6-13.6 6.8-21.6l4-6.1h-3.1c-10.4 0-28.6-11.2-26.5-16.5.6-1.8 1.3-1.6 13.4 4.7zm-402.8-2c2.7 2.9 2.6 3.9-1.2 11.7-3 6-3.3 7.4-3.3 16.1 0 10.9 1.4 14.6 7 18.3 4.3 2.8 4.6 3.4 3.6 9.6-.4 2.8-.4 7.4 0 10.2 1 6.2.7 6.8-3.6 9.6-5.6 3.7-7 7.4-7 18.3 0 8.7.3 10.1 3.3 16.1 1.7 3.7 3.2 7.3 3.2 8.1 0 1.9-3.7 5.8-5.5 5.8-3.6 0-12.4-17.5-14.5-28.8-1.9-10.9 2.5-23.2 11.2-30.6l4.1-3.6-4.6-4c-4.9-4.4-9-11.7-10.7-19.5-1.2-5.4-.1-13.6 3.1-22.1 2.6-6.8 9.5-17.4 11.3-17.4.9 0 2.4 1 3.6 2.2zm625.7 4.6c5.7 8.8 9.7 21.3 9.1 28.9-.6 8.3-5 17.4-10.9 22.7l-4.9 4.4 4.5 3.6c5.7 4.7 10.5 14.2 11.2 22.4 1.2 12.6-10.3 38.1-16.1 35.9-.8-.3-2.2-1.8-3.2-3.2-1.6-2.5-1.6-2.8 1.5-8.8 7.3-14.7 6.2-29.3-2.7-35.2l-4-2.6.2-11.9.1-11.8 4.6-4.3c4-3.7 4.9-5.3 5.9-10.3.7-3.3.9-7.8.5-10.4-.9-5.9-4.1-14.7-6-16.2-.8-.7-1.5-2-1.5-3 0-2.5 4-7.2 5.9-6.8.9.2 3.5 3.1 5.8 6.6zm-319.2-1.1l1.9 4.8 1.9-4.8c1.1-2.6 2.4-4.6 3-4.4.6.2 2.2 2.4 3.6 5l2.6 4.6-2.6 2.7c-3.6 3.5-10.1 4.3-14.9 1.6-1.9-1.1-3.6-2.7-3.8-3.6-.4-1.8 4.4-10.6 5.7-10.6.5 0 1.6 2.1 2.6 4.7zm-215.8 1.5c2.9 2.9 5.3 5.8 5.3 6.4 0 1.7-8.9 9.3-11.7 10-4.6 1.2-9.1-5.7-7.9-12.1.8-4 5-9.5 7.4-9.5.9 0 4 2.3 6.9 5.2zm445.7-2.3c4 4.1 4.6 10.7 1.6 15.5-1.5 2.5-2.9 3.6-4.5 3.6-2.1 0-11.4-6.4-13-9.1-.8-1.2 10.1-12.9 12-12.9.6 0 2.4 1.3 3.9 2.9zM651.6 323c11.8 5.8 18.6 16.1 18.8 28 0 4.6-.5 6.2-3.2 10.2-3.8 5.5-13.4 10.8-21 11.6-9.2.8-24.2-4.7-24.2-8.9 0-2.4 1.1-2.4 4.1 0 5.7 4.4 9 5.4 16.9 4.9 8.8-.5 16.1-3.8 21.2-9.7 2.8-3.2 3-3.8 2.4-9-1.6-13.6-12.7-26-23.6-26.1-2.3 0-4.3-1.7-3.6-2.9 1.2-1.9 6.1-1.2 12.2 1.9zm146.1-1.3c.3.7-.8 1.5-2.4 1.9-8.7 1.9-10.9 2.9-14.9 6.6-5.4 5-9.3 12.8-10.1 20.1-.7 7.1 1.3 10.1 9.9 14.8 5.7 3 7.1 3.4 14.3 3.4 7.4 0 8.5-.3 13.1-3.3 5.3-3.3 7.4-4 7.4-2.2 0 4.3-12.7 9.4-23 9.4-11.5 0-22.6-7.4-25.1-16.7-1.3-4.8-.9-8.1 2.1-15.9 2.2-6.1 5.8-10.3 12.1-14.5 7.2-4.7 15.7-6.6 16.6-3.6zm-374.1 6.2c3.7 1.7 4.2 2.3 4.8 6.3 1 6.5-.5 11.3-5.7 19.5-4.9 7.6-7 8.8-10 5.5-5.7-6.3-4.9-24.1 1.5-30.9 2.6-2.8 4-2.8 9.4-.4zm226.3 1.1c2.2 1.1 5.3 3.6 7 5.7 3 3.6 7.1 14.3 7.1 18.3 0 2.8-7 8.9-12.8 11-9.2 3.5-18 2.5-23.4-2.7-2.7-2.6-6.6-11.9-5.4-13 .3-.3 2.4 1.1 4.7 3.2 8.9 8 19.5 10 27 5 4-2.6 4.1-2.9 3.7-7-.3-2.4-1.5-5.7-2.7-7.3-3-4.2-12.1-8.4-19.8-9-3.5-.2-6.3-.8-6.3-1.1 0-.4 1.9-1.7 4.3-2.8 5.3-2.8 11.7-2.9 16.6-.3zm152.7-.1c6.3 2.9 6 3.8-1.1 4.4-7.9.8-16.7 4.7-19.6 8.9-1.3 1.7-2.4 5.1-2.6 7.7-.4 4.3-.2 4.7 3.1 6.9 6.8 4.6 18 2.4 26.3-5.2 2.2-2 4.3-3.6 4.7-3.6 1.3 0 .5 3.9-2 8.7-3.4 7-8.9 9.8-17.8 9.1-6.8-.6-14.6-4-18.5-8.1-2-2.3-2.3-3.2-1.6-7.2 2.6-17.7 16-27.5 29.1-21.6zm221.1 2c4.7 7 5.5 17.7 1.9 25.3-3.5 7.3-6.6 6.3-12.8-4.2-4.4-7.3-4.8-8.5-4.8-14.5 0-6.3.1-6.6 3.3-8.5 4.9-3.1 9.6-2.3 12.4 1.9zM685.6 333c2.3.5 4.4 1.7 4.7 2.5.6 1.5-.4 6-2.2 9.2-1.3 2.5-6.9 5.3-10.5 5.3-2.8 0-4.2-2.4-5.3-8.8-.6-3.7.3-4 4.8-1.6 4 2 4.7 1.2 2.6-3.1-2.2-4.5-2.1-5.8.1-5.1.9.3 3.6 1 5.8 1.6zm24.4.5c7.4 3.1 10.1 3.1 16.8 0 6.3-2.9 7.5-3 9.2-1 .7.8 2.1 1.5 3.1 1.5 1.4 0 2.9 2 5.4 7.5 3.3 7.3 3.6 7.7 9.2 10.1 8.3 3.5 8.8 3.8 9.1 6.5.2 1.3.8 2.8 1.3 3.4 1.4 1.4 1.1 3.4-1.7 10.6l-2.6 6.6 2.6 6.5c2.9 7.1 3.2 10.3 1.4 11.5-.7.4-1.3 1.7-1.3 2.8 0 1.5-1.9 2.9-7.6 5.7-7.9 3.7-8.1 4.1-12.3 14.1-.8 2-2.3 4-3.3 4.3-1 .3-2.9 1.1-4.3 1.9-2.2 1.1-3.4.9-9.7-1.6l-7.3-3-7.2 3c-6.5 2.6-7.5 2.8-9.5 1.5-1.2-.8-3.2-1.4-4.3-1.4-1.6 0-2.8-1.7-5.5-7.5l-3.4-7.6-7.6-3.4c-6.4-2.9-7.5-3.8-7.5-5.9 0-1.4-.4-2.8-1-3.1-1.6-1-1.2-3.9 1.5-9.9 1.4-3.1 2.5-6.5 2.5-7.6 0-1.1-1.1-4.5-2.5-7.6-2.9-6.5-3.1-8.7-1.1-10.4.8-.6 1.6-2.1 1.8-3.3.3-2.1 1-2.6 10.3-7 4.5-2.1 5.2-2.9 7.7-8.8 3-7.3 4.4-9.3 6.3-8.5.8.3 1.9-.2 2.5-1 1.6-1.9 2.1-1.8 9 1.1zm49-2c0 .2-.7 2.3-1.6 4.5-.9 2.3-1.4 4.3-1.1 4.6.2.3 2.1-.3 4.1-1.2 1.9-1 3.9-1.5 4.2-1.1.4.4.1 3-.7 5.9-1.2 4.6-1.8 5.3-4.1 5.6-3.9.5-9.5-2.3-11.1-5.5-2-4-2.7-7.6-1.8-9.1.9-1.6 12.1-5 12.1-3.7zm-245.6 3.1c2.4.9 2 2.1-2.3 7.2-4.8 5.8-9.3 14-11.6 21-1.3 3.9-2.6 5.9-4.9 7.3-6.5 4-8.3 1.9-6-6.7 2-7.7 5.9-15.4 9.3-18.4 1.5-1.4 3.4-3.5 4-4.8 1.3-2.4 6.7-6.2 8.8-6.2.6 0 1.8.3 2.7.6zm82.6 4.2c4 2 6.1 3.8 7.8 6.7 2.7 4.8 4.8 11.3 3.9 12.1-1.4 1.4-6.9-2.1-9.6-5.9-1.7-2.5-5.2-5.4-9.2-7.7-6.3-3.6-8.4-6.4-5.7-8.1 1.8-1.2 6.4-.2 12.8 2.9zm21.2-2.6c-.9.9-1.5.9-2.4 0-.9-.9-.7-1.2 1.2-1.2s2.1.3 1.2 1.2zm204.6-.1c-.2.6-.8 1-1.3 1s-1.1-.4-1.3-1c-.2-.6.4-1.1 1.3-1.1s1.5.5 1.3 1.1zm110.9 2.6c1.9 2.1 4.8 5.1 6.4 6.8 3.6 3.8 8.8 15.1 9.6 21 .7 5.5-1 6.5-6.3 3.8-3.2-1.5-4.1-2.8-6.1-8.6-3-8.5-7.4-16.1-12-20.9-4.1-4.2-3.7-5.8 1.4-5.8 2.8 0 4.2.8 7 3.7zm-285.9.3c3 1.7 4.6 3.6 6.1 7.1 1.2 2.6 2.1 5 2.1 5.4 0 .3-2.4 1.7-5.4 3.1-3.8 1.7-6.3 2.3-8.3 1.8-4.4-1-10.7-5-14.2-8.9-6.4-7.3-2.7-11.8 9-11.2 4.5.3 7.9 1.2 10.7 2.7zm162.7-1.8c7.9 3.6-5.2 18.7-16.5 19-1.7.1-4.8-.7-7.1-1.7-4.4-2-4.5-3.2-1.3-10 3.1-6.7 17.2-10.8 24.9-7.3zm44.5 1.2c0 2-1 2.9-5.3 4.9-3.4 1.5-6.8 4.2-9.3 7.2-4.3 5.2-9.1 8.2-10.6 6.7-1.4-1.4 2.9-11.7 6.3-15.1 3.3-3.4 9.7-5.9 15.2-6 3.3-.1 3.7.2 3.7 2.3zM526 340c1.1.7 1.2 1.3.5 2.3-4 5.6-6.9 10.6-8.2 14.3-.8 2.3-2.2 4.9-3.1 5.7-2 1.6-7.6 3.7-10.3 3.7-6 0 4.6-20.6 12.8-24.9 4.3-2.3 6.1-2.5 8.3-1.1zm394.7 2.7c5.8 4.2 14.5 19.6 12.8 22.4-.9 1.4-4 1.1-8.6-.7-3.6-1.5-4.5-2.5-7.5-9.1-1.8-4.1-4.5-8.9-6-10.6-2.4-2.9-2.5-3.2-.8-4.4 2.2-1.6 6-.7 10.1 2.4zm-382.7 1c0 .5-1.4 2.5-3 4.7-1.6 2.1-3.4 5.4-4.1 7.3-1.1 3.4-3.9 5.3-8 5.3-4.4 0-.6-10.8 5.4-15.1 3.6-2.6 9.7-4 9.7-2.2zm367.8.7c4 2.1 7 5.6 8.7 10.5 2 5.8 1.9 6.1-1.1 6.1-4.2 0-6.2-1.8-9.4-8-1.6-3.2-3.4-6.1-4-6.5-.5-.3-1-1.3-1-2.1 0-1.8 3.3-1.8 6.8 0zM549 345.8c0 2.4-5.3 9.7-7.9 11.1-2.8 1.6-7.1 1.4-7.1-.3 0-1.8 11.6-12.6 13.6-12.6.8 0 1.4.8 1.4 1.8zm344.6 1.2c4.6 3.6 8.4 8 8.4 9.7 0 1.9-4.1 1.6-7-.4-5.8-4-9.9-12.3-6.1-12.3.5 0 2.6 1.4 4.7 3zm-330.2-1.1c.7 1.1-2 3.4-7.1 6-7.2 3.6-9.4 2.5-4.5-2.2 4-3.9 10.3-5.9 11.6-3.8zm319.8 2.6c4 2.6 5 5.5 2.1 5.5s-12.3-5.9-12.3-7.6c0-2.3 5.3-1.1 10.2 2.1zm-291.9 0c4 3.8 3.6 5.4-1.5 5.2-3.6-.2-4.3-.6-4.8-2.7-1.4-5.5 1.7-6.7 6.3-2.5zm260.2-1.5c.4.6.4 2.4 0 4-.6 2.7-1 2.9-5.1 2.8-5.3-.1-5.7-1.5-1.3-5.2 3.2-2.7 5.4-3.3 6.4-1.6zm-420.8 8.6c1.5 4.2 1.3 8.6-.8 17.6-1.1 4.9-1.1 6.7 0 11.5.8 3.2 1.6 7.6 1.8 9.8.4 4.3-1.6 11.6-3.5 12.3-2.7.9-9.2-18.6-9.2-27.9 0-9.3 6.4-28.6 9.2-27.7.6.2 1.8 2.2 2.5 4.4zm581.3.5c1.2 2.8 3.1 8.8 4.2 13.2 1.8 7.2 1.9 8.8.8 14.7-.6 3.6-2.4 9.9-3.8 14-3.4 9.4-5.3 10.2-7.7 3-1.6-4.9-1.6-5.4.5-13.9l2.2-8.9-2.3-8.2c-2.1-8-2.1-8.4-.5-13.6.9-3 2.3-5.4 3-5.4.8 0 2.3 2.3 3.6 5.1zm-636.6-.5c.8 2.2-.9 9.1-3.9 15.5-1.3 3-2.5 6.5-2.5 7.9 0 1.4 1.2 4.9 2.5 7.9 4.4 9.3 5.3 17.1 2.1 17.1-.6 0-3.7-2.3-6.8-5-4.3-3.9-6.1-6.2-7.4-10.3-3.9-11.6-1.3-21.9 7.4-29.7 5.9-5.3 7.6-6 8.6-3.4zm693.5 2.6c6.8 5.7 9.6 11.4 9.6 19.8 0 9.7-2.4 15-9.7 21.1-3.3 2.7-6.4 4.7-6.9 4.4-1.8-1.2-.8-7.8 2.2-14.7 3.8-8.7 3.8-11.6.3-19.3-3.3-7.1-4.5-15.5-2.1-15.5.8 0 3.8 1.9 6.6 4.2zm-467.3 1.4c6.2 3 12.1 9.1 13.9 14.4 1.5 4.7 1.5 5.3 0 10-1.1 3.4-3 6.2-6.1 8.9-7.6 6.6-13.6 8.5-19.9 6.1-2.3-.9-2.5-1.3-1.9-4.7 1-6 2.6-8.5 6.9-11 7.2-4.1 7.2-4.2 5.5-5.3-.8-.6-3.3-2.1-5.5-3.3-4.3-2.5-5.9-5-6.9-11-.6-3.3-.4-3.8 1.6-4.7 3.6-1.4 8.7-1.2 12.4.6zm245.8-.3c1.6 1.2 1.7 1.9.7 6.9-1.1 5-1.6 5.7-4.9 7.2-2 .9-4.8 2.5-6.1 3.5l-2.4 1.8 3.9 2.7c2.1 1.4 4.4 2.6 5.1 2.6 2 0 4.1 4.1 4.8 9.2l.7 4.7-3.9 1c-8.7 2.4-20.7-5.3-24.6-15.7-1.4-3.9-1.4-4.7 0-9 1.9-5.7 5.2-9.5 11.8-13.3 5.5-3.2 11.8-3.8 14.9-1.6zM581.8 379c0 9.1-.3 17.4-.8 18.5l-.8 2-.8-2c-.5-1.1-.9-9.4-.9-18.5s.4-17.4.9-18.5l.8-2 .8 2c.5 1.1.8 9.4.8 18.5zm275.7-14.8c1.6 11.5.4 36.1-1.7 34-.8-.8-1.4-21.7-.9-35.5.2-5.4 1.8-4.5 2.6 1.5zM543 361.9c0 1.3-12.9 6.8-25 10.7-5.9 1.9-11.5 4.1-12.6 4.9-1.9 1.5-1.9 1.5 0 3 1 .7 6.7 3 12.6 4.9 11.3 3.6 26.7 10.3 25.8 11.1-.6.6-24.1-4.6-34.3-7.6-8.1-2.4-21.5-8.5-21.5-9.9 0-1.4 13.4-7.5 21.6-9.9 5.9-1.7 29.9-7.6 32.7-8 .4-.1.7.3.7.8zm366 2.6c20.2 4.4 37.6 10.8 38.7 14.2.6 1.8-11.3 7-24.8 10.7-14.8 4-28.9 7-29.6 6.2-.9-.8 11.9-6.4 23.3-10.1 5.5-1.8 11.6-4 13.4-5 3.2-1.7 3.3-1.8 1.4-3.2-1-.7-6.8-2.9-12.9-4.8-10.4-3.3-25.5-9.8-25.5-11 0-.3 1-.3 2.3 0 1.2.2 7.4 1.6 13.7 3zm-353.6-1.3c-.5 1.2-11.1 10.6-15.9 14.2-2 1.5-1.9 1.6 1.5 4.3 6.5 5.3 14.5 12.5 15.3 13.9.5.8-2.6-.1-7.5-2.3-12.6-5.4-23.6-9.7-30.5-11.8-3.5-1-6.3-2.1-6.3-2.5 0-.3 3.9-1.8 8.8-3.3 4.8-1.5 14.3-5.1 21.2-8.1 13.7-6 14.2-6.2 13.4-4.4zm337.1 3.5c6 2.6 16 6.3 22 8.4l11 3.6-8.5 2.7c-4.7 1.4-14.8 5.3-22.5 8.5-7.7 3.2-14.2 5.7-14.5 5.4-.6-.6 6-6.5 13.7-12.5l5.2-4-7.2-5.8c-7.8-6.3-12.6-11-11.2-11 .5 0 5.9 2.1 12 4.7zM561 364c0 .5-3 4.1-6.6 8l-6.6 7 6.6 7c6.5 7 8.8 10.9 4.2 7.3-7.1-5.5-16.1-13.5-16.1-14.3 0-.7 17.4-16 18.2-16 .2 0 .3.4.3 1zm331.4 12.6l2.8 2-7.3 6c-4 3.2-8.4 6.7-9.6 7.7-4.5 3.6-2.2-.6 3.7-6.7 3.3-3.5 6-6.7 6-7.2s-2.7-3.6-6-6.8c-8.2-8.1-7.6-10.2.8-2.9 3.7 3.2 8 6.7 9.6 7.9zm-321.7-6.9c-.5 3.2-1 7.4-1 9.3 0 1.9.5 6.1 1 9.2.6 3.2.7 5.8.3 5.8-.7 0-7-13.6-7-15.1 0-1.6 6.3-14.9 7-14.9.4 0 .3 2.6-.3 5.7zm298.3.9c1.7 3.6 3 7.3 3 8.3 0 .9-1.6 4.8-3.5 8.6l-3.5 7 .7-6c1-7.9.9-12.8-.1-19.3-.4-2.8-.5-5.2-.2-5.2.4 0 2 3 3.6 6.6zm-306.2 1.6c-1.1 2.9-2.1 6-2.1 6.8 0 .8 1 3.9 2.1 6.7 1.2 2.9 1.8 5.3 1.3 5.3-1.2 0-10.1-10.6-10.1-12.1s8.8-11.9 10.1-11.9c.5 0-.1 2.4-1.3 5.2zm314-1.1c7 7.8 7 7.2 1 14-2.9 3.3-5.4 5.6-5.6 4.9-.2-.6.6-3.5 1.7-6.4l2.2-5.2-2.1-4.8c-3.3-7.9-2.7-8.5 2.8-2.5zm-205.4 2.3c.9 1.9 1.6 4.4 1.6 5.6 0 3-2.9 8.9-4.9 10-1.3.6-3.2 0-7.2-2.2l-5.4-3.2 4.7-2c2.6-1.2 4.8-2.3 4.8-2.6 0-.3-2.2-1.4-4.8-2.6l-4.7-2 5.4-3.2c6.3-3.5 7.9-3.2 10.5 2.2zm103.7-2.7c2.7 1.6 4.9 3.1 4.9 3.4 0 .3-2.1 1.4-4.7 2.6l-4.8 2 4.8 2.1c2.7 1.2 4.6 2.5 4.3 2.9-.2.5-2.5 1.9-5 3.3-3.6 1.9-5 2.2-6.4 1.4-2.7-1.7-5.4-8-4.7-11.2.8-3.6 4.2-9.2 5.6-9.2.6 0 3.3 1.2 6 2.7zm229.4 4.8c.7 4.2-.8 12-2.4 13-.5.3-2.3-1.1-4-3-4.2-4.8-4.2-9.2.1-14.1 2.9-3.3 3.3-3.5 4.4-1.9.7 1 1.6 3.7 1.9 6zm-566.1-3.6c2.2 2.3 2.9 4 2.9 7.1 0 3.1-.7 4.8-2.9 7.1-3.4 3.6-4.2 3.6-5.5.1-2.1-5.2-.7-17.2 1.9-17.2.4 0 2.1 1.3 3.6 2.9zm-58.9 2.8c1.2 2.9 1.3 4.3.3 7.4-1.8 6.1-3.5 6.9-5.3 2.6-1.9-4.5-1.9-6.8 0-11.3 1.7-4.1 2.9-3.7 5 1.3zm683-.5c1.4 3.8 1.4 4.8.2 8.2-.7 2.2-1.9 4.2-2.5 4.4-1.3.4-4.2-4.9-4.2-7.8 0-2.8 2.7-9 3.9-9 .5 0 1.7 1.9 2.6 4.2zm-431.6-.6c4.7 1.5 9.2 2.8 9.9 3 .7.2 1.2 1.3 1 2.5-.2 1.7-1.8 2.6-8.3 4.5-13.1 3.9-12.8 3.8-12.3 2.3.2-.7 4.1-2.4 8.6-3.8 4.5-1.3 8.2-2.7 8.2-3.1 0-.4-3.7-1.8-8.2-3.1-4.5-1.4-8.3-3-8.6-3.7-.5-1.6 0-1.6 9.7 1.4zm183.9-1.5c-.2.6-4.2 2.2-8.8 3.6-4.7 1.3-8.6 2.6-8.8 2.8-.3.2 3.7 1.6 8.7 3.1 5 1.5 9.1 3.1 9.1 3.6 0 1.3-3.2.9-9.6-1.1-3.2-1.1-7.1-2.2-8.6-2.5-2.2-.5-2.7-1.1-2.4-2.9.2-1.8 1.5-2.5 6.2-3.8 3.2-.9 7-2.1 8.4-2.7 3.3-1.4 6.3-1.5 5.8-.1zM587 379c0 4.6-1.7 6.2-2.6 2.5-.8-3.1.3-7.8 1.6-7 .6.3 1 2.4 1 4.5zm265 0c0 2.1-.4 4.1-.9 4.4-1.2.8-2.4-4.8-1.6-7.4 1-3.1 2.5-1.3 2.5 3zm-257-1c1.3.9 1.3 1.1 0 2-2.4 1.6-4 1.2-4-1s1.6-2.6 4-1zm250.4-.2c.2.4.1 1.4-.3 2.1-.7 1-1.3 1.1-3.1.1s-2-1.4-.9-2.1c1.8-1.1 3.6-1.1 4.3-.1zM628.5 379c.4.6-.7 1-2.4 1s-3.1-.5-3.1-1c0-.6 1.1-1 2.4-1 1.4 0 2.8.4 3.1 1zm185 0c-.8 1.3-3.5 1.3-5.5 0-1.1-.7-.5-1 2.3-1 2.3 0 3.6.4 3.2 1zm-156.1 9.9c11.4 5.6 14.6 13.3 10.7 26-2.3 7.7-5.8 12.4-12.5 17-5.1 3.5-13.2 6.4-15.8 5.5-3.4-1-1.4-2.7 4.9-4.1 11.2-2.5 19.7-13.4 21-26.7l.6-6.2-4.3-3.7c-5.7-4.9-13.5-7.7-21.3-7.7-5.3 0-6.9.5-11.9 3.6-5.7 3.4-8.3 3.8-7.2.9.9-2.2 6.4-5.3 12.5-7 8.1-2.2 15.5-1.5 23.3 2.4zm149.1-1.4c4.6 1.9 8.5 5.2 8.5 7.2 0 1.9-.5 1.7-7.3-2.5-5.6-3.4-6.6-3.7-13.1-3.6-8.4.1-14.5 2.5-20.6 8.1l-4.2 3.7.4 6.6c1 12.9 9.5 23.7 20.9 26.2 6.7 1.4 7.8 3.1 2.4 3.6-4.6.4-14.2-4.7-19.4-10.3-7.3-7.9-10.1-20.7-6.2-28.3 2.4-4.7 4.2-6.2 11.6-10.1 5.6-3 6.5-3.1 14.5-2.7 4.8.2 10.2 1.1 12.5 2.1zm142.2-.9c1.6 4.2-4.7 20.4-9.8 25.1-1.7 1.5-3.7 4.1-4.5 5.6-1.9 3.5-7.3 6.2-10.8 5.3-3.5-.9-3.3-2.1 1.2-7.1 4.9-5.2 8.7-11.7 11.3-19.2 2.5-6.9 3.4-8.2 7.4-9.9 3.9-1.7 4.4-1.7 5.2.2zm-454.1 1.3c2.3 1.4 3.6 3.4 4.9 7.3 2.3 7.1 7.6 16.6 11.9 21.3 4.2 4.6 4.5 6.2 1.2 7.1-3.2.8-8.2-1.9-10.5-5.6-.9-1.6-2.8-3.8-4.2-4.9-3-2.4-7.4-11-9.3-18.6-2.3-8.5-.5-10.5 6-6.6zm310.4 5.6c4.6 2.4 9 9.4 9 14.6 0 1.8-.5 1.6-4.6-2-4.9-4.3-13.5-8.1-18.5-8.1-3.8 0-8.9 2.2-11.2 4.8-3.9 4.3 1.1 14 9.2 18.1 4.6 2.4 13.1 4.2 15.9 3.4 2.9-.7 2.8 1.2 0 3.1-4.7 3-10.5 4-14.9 2.7-8.5-2.6-16.9-15-16.9-25.1 0-3.2.6-4.3 3.3-6.3 9.5-7.2 20.8-9.2 28.7-5.2zm16.8-1.2c.6.7 2.1 4.9 3.3 9.2 1.2 4.4 2.7 9.1 3.4 10.5 3 5.7 11.7 11.4 19.6 12.6 2.3.4 5 1.5 6.1 2.6 2.2 2.2 2.4 6.4.3 7.2-.9.3-1.2 1.2-.9 2.1.8 2-2.2 4.4-5.4 4.5-1.2 0-3.9-1.1-6-2.5-5.2-3.4-11.7-5.5-17.2-5.5-3.8 0-6.8 1-14.5 5.1-10.7 5.6-13.6 5.9-11 .9 3-5.8 14.2-11.9 24.7-13.5l4.5-.7-3.3-4.9c-4.4-6.6-7.4-15-7.4-20.9 0-7.3 1.4-9.7 3.8-6.7zm111.4 2.1c-1 9.3-13.1 23.6-20 23.6-4.1 0-4.3-2.1-.6-7.1 1.9-2.6 4.2-6.8 5-9.2 1.8-5.3 3.9-7.4 9.1-9.3 5.4-1.9 6.9-1.4 6.5 2zm-420.5-.2c2.8 1.3 3.1 1.9 7.8 11.8 1.5 3 3.5 6.4 4.6 7.6 2.5 2.7 2.4 4.2-.5 5-3.3.8-9-2.1-12.7-6.5-3.9-4.7-8.9-14.8-8.9-17.9 0-2.3.3-2.4 3.5-1.9 1.9.3 4.7 1.2 6.2 1.9zm105.4.5c2.1 5.5-1.5 17.9-7.6 26.4l-3.3 4.6 5.3.6c9.9 1 24.5 10.1 24.5 15.2 0 2.4-2.5 1.8-12.7-3.5-6.4-3.3-10.9-5-13.3-5-5.3 0-12.3 2.3-18 6-4.5 2.9-5.1 3-7.7 1.8-1.9-.9-2.8-2.1-2.7-3.6 0-1.2-.5-2.2-1.3-2.2-1.6 0-1.7-2.1-.1-5.5.8-1.7 2.4-2.8 5.2-3.5 8.4-2.2 12.9-4.4 17.1-8.4 4.2-4.1 5.1-6.1 9-19.9 1.7-6.3 3.9-7.5 5.6-3zm31.8-1.2c5.9 2 12 6.6 12.7 9.4.4 1.3-.1 5-1 8.3-4.4 15.7-16.3 23.3-28.2 17.9-6.2-2.8-6-3.7.7-4.5 9.6-1 18.1-5.5 21.2-11.1.6-1.1 1.4-3.7 1.7-5.8.7-3.6.5-4-2.9-6.2-7-4.8-18.5-2.6-27 5.1-2.3 2-4.4 3.4-4.7 3.1-.3-.3.1-2.8 1-5.5 1.7-5.1 5.4-9.4 9.6-11.1 3.7-1.5 12.2-1.3 16.9.4zm313.2 4.3c9.6 6.1 16.9 18.4 16.9 28.2-.1 10.9-4.5 25.6-9.3 30.9-1.2 1.3-4.6 3.9-7.6 5.9-5.1 3.3-5.5 3.4-6.8 1.7-2.1-2.9-2.7-8.3-1.2-10.4.8-1 2.9-3.7 4.7-6.1 7.2-9.6 9.5-27.7 4.7-37.5-2.8-5.9-3.8-7.1-8.8-10.8-2-1.6-3.5-3.3-3.2-3.8 1.2-1.8 6.2-.9 10.6 1.9zM484 397c0 .5-1.6 2-3.6 3.3-14.7 10.1-15.1 36.9-.8 53 1.9 2 3.4 4.1 3.4 4.7 0 2-3.2 9-4.2 9-2 0-11.7-7-14.1-10.2-5.5-7.4-9.4-25.4-7.6-35.2 2.3-12.2 14.3-25.6 23.1-25.6 2.1 0 3.8.4 3.8 1zm431.6.4c.8 2.1-2.9 9.9-6.2 12.9-3.3 3.1-9.2 5.3-10.5 4-.5-.5.5-2.8 2.5-5.6 1.9-2.6 3.7-5.9 4-7.3 1-3.8 9.1-7 10.2-4zm109.1 2.4c4.5 6.8 4 19.5-1.2 27.4-2.9 4.4-4.9 4.7-11.4 1.8l-4.3-2 .4-7.7c.3-7 .8-8.4 4.2-13.8 7-10.9 8.3-11.5 12.3-5.7zm-605.6-1.1c.8 1 3.3 4.7 5.4 8.3 3.5 5.9 3.9 7.1 3.9 13.3 0 7.7-.8 8.8-7.6 10.9-3.5 1-4.1.9-6.3-1.2-4.9-4.6-7.4-19.1-4.5-26.5 2.4-6.2 6.3-8.2 9.1-4.8zm108.3-.6c1.4.7 3 2.6 3.6 4.4.6 1.8 2.4 5 4 7.1 3.7 4.9 3.7 5.4.2 5.4-4.2 0-10.6-5.1-12.6-9.9-3-7.7-1.5-9.8 4.8-7zm374.6 2.8c0 1.1-2.5 4.2-5.7 7-8.7 7.8-12.5 6.5-6-2.1 4.8-6.3 11.7-9.2 11.7-4.9zm-360.9.2c2.6 1.4 7.9 8.7 7.9 11.1 0 1-.6 1.8-1.4 1.8-2 0-13.6-10.8-13.6-12.6 0-1.7 4.3-1.9 7.1-.3zm66.9.6c0 3.9-5.9 14.3-9.2 16.3-4.4 2.7-13.1 5.2-15.2 4.4-2.6-1-1.5-4.7 1.9-6.4 6.7-3.4 10.5-6.3 12.5-9.6 3.3-5.2 10-8.4 10-4.7zm226.5.1c1.1.9 3.2 3.3 4.7 5.3s5.2 4.9 8.5 6.6c4.7 2.4 5.8 3.4 5.8 5.4 0 2.2-.4 2.4-4.3 2.2-2.4-.1-6.5-1.4-9.5-3-4.3-2.3-5.7-3.8-7.9-8.3-4.1-8.6-4.4-10-1.6-10 1.3.1 3.2.8 4.3 1.8zm-34 1.6c9.6 4.4 14.7 13.7 9.3 16.8-3.4 1.8-13.7 1.5-17.8-.7-4.9-2.5-7-4.5-8.6-8.4-2.1-4.9-1.8-5.8 2.4-8 4.9-2.6 8.6-2.6 14.7.3zm-150 .3c1.9.9 3.5 2.1 3.5 2.5 0 1.9-3.2 8.4-5.3 10.6-4.3 4.6-19 6.7-23.2 3.2-3.7-3.1 0-9.8 8.4-15.2 5.3-3.3 11.2-3.7 16.6-1.1zm200.6 1.3c1.2 2 1.1 5.7-.1 6.5-1.9 1.2-8.9-4.4-9-7.1 0-1.6 8-1 9.1.6zm35.9-.7c0 2.9-7.1 7.7-11.4 7.7-4.9 0-2.1-3.5 5.4-6.9 5.3-2.4 6-2.5 6-.8zm69.8 1.2c1.6 1.3 4 4.8 5.2 7.7 1.9 4.4 2.2 6.4 1.7 12.8-.6 8.9-3.9 18.4-7.9 22.3-3.4 3.5-5.6 3.2-8.1-1l-1.9-3.2 3.6-5.8c2.8-4.6 3.6-6.9 3.6-10.6 0-5.5-1-7.9-5.2-12.3-3.3-3.5-3.2-5.3.3-9.8 2.6-3.3 4.9-3.3 8.7-.1zm-467.2 2.9l2.2 4-3.9 4.4c-6.2 7.1-6.4 14-.8 22.6 3.2 4.8 3.4 7.2.5 11.1-4.1 5.7-12.5-6-14.7-20.5-1.4-9.2.3-16.4 5.2-22.3 2.6-3.1 3.7-3.8 6.2-3.5 2.5.2 3.6 1.2 5.3 4.2zm67.2-2c5.5 2.8 7.9 5.1 6.2 6.1-1.9 1.2-7.1-.6-10.6-3.7-5.9-5.2-3.6-6.5 4.4-2.4zm37.2-1.1c0 1.8-5.3 6.7-7.2 6.7-2.1 0-2.6-2.7-1.3-6.7.5-1.5 8.5-1.5 8.5 0zm169.4 8c1 3.2 1.6 6 1.4 6.3-.3.2-2.6-.4-5.2-1.5-2.5-1.1-4.6-1.9-4.6-1.6 0 .2.9 2.5 2 5l2 4.8-3.9-.7c-6.4-1-9.1-2.6-9.1-5.4 0-4.6 3.1-9.3 7.4-11.3 6.4-2.9 7.8-2.3 10 4.4zm-79.4-3.1c3.5 2.4 6.4 8.8 5.5 11.9-.4 1.2-2.4 2.2-6.1 3-3 .7-5.7 1-5.9.7-.3-.3.2-2.2 1.1-4.2 1-1.9 1.5-3.8 1.2-4.1-.3-.3-2.1.2-4.1 1-4.9 2-5 2-4.4-1.8 1.1-6.9 2.4-8.7 6-8.7 1.9 0 4.9 1 6.7 2.2zm-308.2 4.1c.9 1 .3 2.6-2.4 6.6-6 8.9-9.6 17.6-10.1 24.5-.6 6.8.8 17.1 3.4 25 1.4 4.4 1.4 5.1-.1 8.2-.8 1.9-2.2 3.4-3 3.4-2.7 0-8.3-8-10.7-15.3-6.6-20 .3-44.6 14.3-51.5 5-2.5 7.1-2.7 8.6-.9zm696.7 2.1c8.9 6.8 13 17.2 13 33.1 0 12.3-1.5 18.1-6.6 25.8-3.7 5.6-5.8 6.5-8.1 3.7s-2.3-4.9.3-14.6c4.3-16.7 2.6-27.9-6.6-42-2.5-3.8-4.5-7.5-4.5-8.3 0-2.3 8.5-.8 12.5 2.3zm-174.4 2c19.1 3.5 34.8 14.2 46 31.4 9.1 13.9 11.3 24.1 6.4 29.2-5.9 6.1-22.9 11.1-38 11.2-17.8.1-28.2-3.6-44.3-15.6C857.1 466.3 850 459 850 456c0-2.9 1.8-6 3.4-6 .8 0 4.9 3.9 9.1 8.6 6 6.6 9.3 9.3 14.6 12 9.4 4.7 20.9 8.4 26.2 8.4 6.7 0 19.5-3.7 25.4-7.2 5.1-3.1 5.3-3.3 4.7-6.8-2.2-11.7-11-25.3-19.8-30.5-2.2-1.3-8.4-4-13.6-6.1-9.3-3.6-9.7-3.6-22.7-3.5-10.1.1-13.3-.2-13.4-1.1-.3-2.9.3-4.4 2.4-6.2 2-1.7 3.4-1.8 13.2-1.2 6.1.3 14.4 1.2 18.6 2zM571 419.7c4.1 5.2 2.9 5.8-12 5.8-12.3.1-14.1.3-21 2.9-11.8 4.5-17 7.4-21.9 12.5-5.2 5.3-10.4 14.9-12.5 22.9l-1.4 5.3 4.1 2.6c11 6.9 26.4 9.1 37.6 5.3 13.5-4.5 20.1-8.6 29.4-18.3l8.7-9.2 2 2.4c2.9 3.4 2.5 5.6-2.2 10.8-6.3 6.8-24.4 19.9-31.4 22.7-9.9 4-21.6 6-30.9 5.2-14.2-1-28.5-5.6-34.2-10.9-6.6-6 1.9-25.8 17.7-41.7 6.7-6.7 10.3-9.5 17-12.9 10.2-5.1 23.9-7.9 39.2-8 9.3-.1 9.7 0 11.8 2.6zm376.7 1.2c3.7 5.5 2.3 13.9-2.9 17.3-2.4 1.6-2.6 1.5-8.6-3.9-3.4-3-6.2-5.9-6.2-6.5 0-1.3 5.6-6.5 9.5-9 3.9-2.4 5.4-2 8.2 2.1zM497 419.7c3.8 2.5 9 7.6 9 8.8 0 .6-2.6 3.7-5.8 6.8l-5.9 5.8-3.1-2.6c-3.5-2.9-5.8-9-4.9-12.7.9-3.5 4.5-7.8 6.6-7.8.9 0 2.8.7 4.1 1.7zm324.2 1.8c0 .5-.5 1.1-1.1 1.3-.6.2-1.1-.4-1.1-1.3s.5-1.5 1.1-1.3c.6.2 1.1.8 1.1 1.3zM617 422c0 .5-.4 1-1 1-.5 0-1-.5-1-1 0-.6.5-1 1-1 .6 0 1 .4 1 1zm448.5 10.4c3.7 7.4 4 8.4 4 16.5 0 9.3-1.9 18-4.2 18.8-.8.3-2.4-.3-3.5-1.4-1.8-1.8-1.9-2.5-.8-8.4 1.5-8.4.6-13.8-3.4-19.6-1.8-2.6-3.1-5.5-2.8-6.3 3.2-10.4 5.3-10.3 10.7.4zm-685-2.5l1.6 4.8-3.7 5.4-3.6 5.4.5 10.6c.6 9.6.5 10.8-1.3 12.4-1 .9-2.3 1.4-2.9 1-2-1.2-4.3-11.6-4.4-19.5 0-7.4.2-8.5 4.2-16.5 5.1-10.3 7.1-11.1 9.6-3.6zm344.6-3.2c1.5.9 3.1 2.4 3.4 3.2.6 1.6-4.5 10.5-5.9 10.3-.6 0-1.7-2-2.7-4.4l-1.7-4.3-2.1 4.7c-1.1 2.7-2.3 4.8-2.5 4.8-.9 0-5.6-8.6-5.6-10.3 0-4.9 11.1-7.5 17.1-4zm-24.6 3.7c5.8 3.1 11.5 14.3 11.5 22.6 0 10.3-5.3 23-9.7 23-2 0-1.6-1.5 1.7-6.2 5.3-7.6 5.7-18.5 1-27.9-4.8-9.5-9.1-11.8-18.3-9.9-12.2 2.5-21.7 11.6-23.1 21.9-.4 3.3-1.1 5.1-2 5.1-6.8 0 3.6-21.9 12.7-26.7 10.5-5.4 18.6-6 26.2-1.9zm57.9.4c6.5 3 10.5 7.2 14.6 14.9 2.7 5.2 3.7 11.7 2 12.8-1.7 1-2.7-.9-3.4-6.6-1.4-10.2-13.6-19.8-26.5-20.7-5.7-.4-5.8-.4-9.4 3.9-4.9 5.7-7.7 13.4-7.7 21.2 0 5.4.5 7.1 3.5 12.1 3.8 6.4 4.2 7.6 2.2 7.6-3.6 0-8.3-10.1-9.4-20-1-10.3 5-22.4 13.5-27 4.9-2.7 12.3-2.1 20.6 1.8zm139.7.1c15.8 4.9 28.3 18 31.4 32.8.6 2.9.3 3.3-3.7 5.6-9.6 5.6-23.2 7.2-33.9 4.1-9.6-2.8-17-7.5-25.6-16.2-9-9-10.2-12.1-6.3-15.7 1.1-1 2-3 2-4.4 0-4.8 2.2-7.5 6.5-8.3 6.9-1.2 22.6 0 29.6 2.1zm-329.7-.9c4.4 1 5.6 2.3 5.6 6.3 0 1.5 1 4.1 2.1 5.7 3.1 4.2 2 6.7-6.9 15.7-11.7 11.8-23.9 17.5-37.7 17.6-7.6 0-16.1-2.1-21.2-5.3-4.3-2.6-4.3-5.5.1-14.6 6-12.5 16.1-20.5 30.8-24.4 7.8-2 20.8-2.5 27.2-1zm95.3 3.6c1.5 1.5 1.5 1.8-.1 4.2-.9 1.5-3.1 5.5-4.9 8.9-1.7 3.5-3.7 6.3-4.4 6.3-.7 0-1.3-.2-1.3-.4s2.1-4.3 4.7-9.2l4.7-8.8-8.8 4.8c-4.9 2.6-9 4.5-9.3 4.2-1-1 1-2.7 6.8-5.6 3.3-1.6 6.9-3.6 8.2-4.5 2.6-1.8 2.5-1.9 4.4.1zm117 2c10 5.4 11.4 6.4 10.8 7.4-.3.5-4.4-1.1-9-3.6-4.7-2.5-8.5-4.2-8.5-3.8 0 .4 1.8 4 4 8s4 7.8 4 8.4c0 2.9-2.5-.3-6.9-8.7-3.5-6.6-4.6-9.4-3.8-10.2 1.6-1.6 1.9-1.5 9.4 2.5zm232.8-1.5c12 6.3 19.5 21.3 19.5 38.9 0 10.5-2 18.4-6.7 27-1.9 3.6-4.2 8.9-5 11.9-2.2 8.5-6.2 14.9-14.3 22.9-12.1 12-25.7 17.3-37.9 14.8-8-1.6-9.3-2.9-7.8-7.6 1.3-3.7 1.5-3.8 16.9-11 9.7-4.5 15.6-12.1 20.5-26.3 1.3-3.9 4.2-10.8 6.4-15.2 8.1-16.5 8.7-26.2 2.4-40.4-3.8-8.7-4-11.8-.8-15.4 2-2.1 2-2.1 6.8.4zm-583.6.3c2.7 3.3 2.4 7.9-1.4 17-2.9 7-3.6 10.1-3.6 15.2 0 7.5 2.1 15.4 6.2 23.7 1.7 3.2 3.9 8.9 5.1 12.5 5.1 16.8 12 25 25.6 30.7 10.1 4.1 11.9 5.6 12.8 10.3.6 2.9.4 3.3-2.8 4.6-12.6 5.3-28.4.8-41.7-11.8-8.3-7.9-13.4-15.9-15.7-24.3-1-3.7-2.8-8.4-4-10.3-4.7-7.3-6.7-15.7-6.6-27.3.1-11.5 1.3-16.9 6.2-26.7 3.2-6.3 5.6-8.8 12-12.4 5.2-3 6.3-3.1 7.9-1.2zm324.7 2.6c5.9 2.6 12 8.4 13.9 13.4 1.9 5 1.1 9.7-2.7 15.6l-2.2 3.5-.6-6.6c-1.2-13-8.6-22.9-17.1-22.9-3.2 0-4 .5-5.9 3.6-3.3 5.3-3 11.9.9 19.9 1.8 3.5 4.3 7.3 5.6 8.4 1.4 1 2.5 2.2 2.5 2.6 0 1.4-7-.4-10.7-2.6-9.4-5.9-9.8-23.2-.6-33.9 3.5-4.1 3.7-4.2 8.2-3.5 2.5.4 6.5 1.5 8.7 2.5zm-55.9.7c5.8 7.9 7.9 16.7 5.8 24.5-.7 2.7-2.1 5.8-3.1 7-2.3 2.6-9.1 5.7-12.3 5.8h-2.5l3.1-3.3c4.1-4.2 8.2-12.4 8.9-17.9.4-3.3 0-5.3-1.8-8.8-2-4-2.7-4.5-6-4.8-9.2-.8-17.3 9.5-18.1 23-.2 2.6-.6 5.1-1 5.4-1 1-5.7-9.6-5.7-12.8 0-4.1 1.5-7.3 5.7-11.9 5-5.6 12.2-8.9 19.4-8.9 4.9 0 5.8.3 7.6 2.7zm-83-.1c2.6.9 5.8 2.3 7.1 3.2 2.1 1.4 2.2 1.6.7 3.1-1.2 1.3-3.3 1.5-9.8 1.3-5.4-.1-9.8.3-12.9 1.4-12 3.9-11.2-3.9.8-8.6 6.1-2.4 8.1-2.4 14.1-.4zm219.5.8c2.9 1.3 6.2 3.3 7.2 4.5 1.8 2 1.9 2.3.3 3.8-1.6 1.6-2.1 1.6-7.4-.2-4.2-1.5-7.9-1.9-13.3-1.7-5.6.2-8.1-.1-9.5-1.3-2-1.5-2-1.5 0-2.8 8.2-5.1 15-5.8 22.7-2.3zm221.6 7.7c1.2 4 .9 12.9-.4 12.9-.8 0-4.5-2-10.3-5.7l-5.4-3.5 5.4-5.4c4.9-4.9 5.5-5.3 7.3-4 1.2.7 2.7 3.3 3.4 5.7zm-666.9-1c2.8 2.9 5.1 5.4 5.1 5.8 0 1.5-14.4 9.4-15.4 8.4-.9-1-.7-10.9.3-13.6.8-2.2 3.7-5.7 4.6-5.7.2 0 2.7 2.3 5.4 5.1zm263.3.1c-1.2 1.2-2.5 1.8-2.9 1.4-.4-.4.3-1.6 1.6-2.7 3.1-2.5 4.1-1.5 1.3 1.3zm131.9-.1c.5 1.1.7 1.9.3 1.9-1.1 0-4.4-3.2-4.4-4.1 0-1.4 3 .2 4.1 2.2zm-91.1 2.1c2.6 5.7 2.5 8.4-.6 14.6-4.3 8.7-12.9 13.9-16.2 9.9-3.5-4.1-1.6-17.8 3.1-23.2 1.8-2.1 8.1-5.2 11-5.4.4-.1 1.7 1.8 2.7 4.1zm57.9-1.4c4.5 2.2 7.4 8 7.9 15.7.5 8.2-.9 11.5-4.8 11.5-4.4 0-11.4-7.4-13.6-14.4-1.6-5-1.6-5.3.6-10.4 2.5-5.7 2.8-5.8 9.9-2.4zm-111.3 2.4c5.1 2.1 5.9 2.8 8 7.3 2.7 5.6 2.9 9 1.3 16.7-.9 3.9-2.2 6.3-4.9 9-2.1 2.1-4.5 3.8-5.3 3.8-.9 0-3-2.1-4.7-4.6l-3.2-4.5 1.8-6.5c.9-3.5 1.5-6.7 1.2-7-.3-.3-3.5.3-7 1.2l-6.5 1.7-4.6-3.2c-2.6-1.8-4.7-3.5-4.7-3.9 0-2 4.3-7.3 7.1-8.8 2.9-1.4 9.3-3 14.1-3.3 1 0 4.3.9 7.4 2.1zm175.3.8c2.1 1 4.8 3.4 5.9 5.2 1.9 3 2 3.4.5 5.1-.9 1-3.2 2.7-5.1 3.9-3.2 2-3.5 2-8.4.4-2.8-.9-5.7-1.6-6.4-1.6-1.8 0-1.8 3.6 0 8.7 1.2 3.5 1.2 4.4-.1 7-.8 1.7-2.5 4.1-3.8 5.3-2.7 2.6-4.7 1.9-8.9-3-3.1-3.7-4.6-8.8-4.6-15.7 0-12.3 7.4-18.7 20.3-17.8 3.9.3 8.5 1.4 10.6 2.5zm189.6 3.5c5.2 10.5 3.8 24.1-4 37-2 3.2-4.2 8.5-5.1 11.8-2.5 9.5-5.4 14.8-11.9 21.2-5 5-7.1 6.4-12.3 8-7.7 2.3-8.6 1.6-7.7-6.2.7-7 1-7.5 5.5-10.1 5.2-2.9 11.3-11.2 14.4-19.3 1.3-3.5 3.6-8.9 4.9-11.9 3.1-6.8 4.2-15 2.8-21.3-.8-3.5-.8-5.4 0-7 1.9-3.6 7.2-8.8 8.9-8.5.8.2 2.9 3 4.5 6.3zm-565-1.5l4 4.1v12.2c0 11 .3 12.8 2.7 18.2 1.4 3.3 3.6 8.7 4.9 12 1.7 4.4 4 7.6 8.4 12 3.3 3.3 6.9 6.5 8 7.1 1.5.9 2 2.4 2.3 8.2.4 7.1.4 7.2-2 7.2-11.8 0-24.4-12.3-29-28.5-1.2-4.4-3.5-10.2-5-12.8-7.6-13.1-8.9-27.8-3.5-38.5 1.5-2.8 3.3-5.2 4-5.2.7 0 3.1 1.8 5.2 4zm393.9-1.9c1 .9-3 5.9-4.7 5.9-.9 0-6.7-5.5-6.7-6.3 0-1.7 9.5-1.3 11.4.4zm-222.4-.2c0 .6-1.1 2.2-2.5 3.7-2.2 2.4-2.8 2.6-5 1.6-3.1-1.4-4.3-4.1-2.4-5.3 1.9-1.2 9.9-1.1 9.9 0zm432.9 8.8c9.9 5.9 20.4 18.6 25.2 30.4 3 7.5 3.7 21.3 1.5 29.9-4.7 18.5-20.6 32.5-41.6 36.6-15.1 3-35.3-.1-33.3-5.2 1.3-3.5 6.6-5.1 18.8-5.7 22.3-1.1 38.3-7.9 46.2-19.8 2.4-3.6 2.5-4.5 2.1-12.6-.8-14.4-6.4-25.5-19.9-39.8-6.5-6.8-9.5-12.7-8.2-16.1.8-2.1 2.2-1.8 9.2 2.3zm-644.3-1.2c1.5 3.9-.8 8.8-7.6 16-12 12.7-19 25.5-20.5 37.7-1.2 9.2 0 13.2 5.6 18.9 9.1 9.3 25.5 14.9 44.1 14.9 8.4 0 9.7.3 13.1 2.6 5.1 3.4 4.5 5.4-2.3 7.6-11.8 3.7-31.6 1.6-44-4.7-10-5.1-19.5-15.8-23-26-4.5-13.2-3.2-27.5 3.7-40.8 4.5-8.6 17.5-22.2 24.3-25.5 5.3-2.6 5.9-2.7 6.6-.7zm322 7.1c3.9 13 3.8 12.4 2 12.4-.9 0-1.6-.6-1.6-1.3 0-.7-1.1-4.9-2.4-9.3l-2.4-7.9-2.8 9.2c-1.8 5.9-3.4 9.3-4.2 9.3-.8 0-1.2-.6-1-1.3 1.2-3.2 4.7-14.5 5.2-16.9.5-2.1 1.1-2.7 2.8-2.5 1.7.3 2.5 1.9 4.4 8.3zm-62.2-.5c4.3 3.8 9.2 13.2 10.7 20.9l1.1 5.7 4.9-3.3c9.6-6.5 24.7-9.7 27.8-6 1.7 2-.2 3.2-9.4 5.7-9.6 2.6-12.2 3.8-15.6 7.6-3.6 3.8-5.9 8.6-7.9 15.8-1.3 5-2 6.1-4.3 6.9-2 .7-3.4.7-4.8-.2-1.1-.7-2.4-1-2.9-.7-1.1.7-4-3.4-4-5.7 0-.9 1.6-4.7 3.6-8.3 2.7-4.9 3.8-8.2 4.1-12.8.5-5.9.3-6.6-4.6-15.9-2.8-5.3-5.1-10.4-5.1-11.3 0-2.4 2.6-1.8 6.4 1.6zm121.6-2c0 .6-2.3 5.4-5.1 10.6-5.1 9.4-5.1 9.6-4.7 16.7.5 6.8 1.5 9.7 6.5 17.7 1.4 2.3 1.5 3.1.4 5.8-.8 1.7-2 3.1-2.7 3.1-.8 0-2.3.6-3.4 1.2-2.7 1.7-7-.6-8.1-4.2-.3-1.4-1.2-4.3-1.8-6.5-1.6-5.9-6.5-12.8-10.8-15.2-2.1-1.1-7.4-3.1-11.8-4.3-9.2-2.4-11.1-3.6-9.4-5.6 3-3.6 18.7-.4 27.3 5.5 2.5 1.7 4.7 3.1 4.9 3.1.3 0 .8-2.3 1.2-5.1.9-6.4 6.7-18 10.6-21.3 3.1-2.7 6.9-3.5 6.9-1.5zm207.1 2.1c1.8 3.3.4 12.2-3.1 19.6-1.8 3.7-4 9.1-5 11.9-2.5 6.9-7.4 13.9-11.2 15.9-5.7 3-5.7.7.6-14.1 1.4-3.3 2.6-7.3 2.6-8.8 0-1.6 1.3-4.5 2.9-6.5 1.6-2 3.8-6.2 4.9-9.2 4.2-11.6 5.9-13.3 8.3-8.8zM455 471.6c2 5 4.6 10.4 5.8 11.9 1.2 1.5 2.2 4.1 2.2 5.7 0 1.6 1.6 6.6 3.5 10.9 1.9 4.4 3.5 8.9 3.5 9.9 0 3.4-3.1 2.3-7.9-2.8-3.7-3.8-5.6-7.2-9.5-17.2-5.8-14.7-6.8-19.2-5.5-24.3 1.6-6.1 3.8-4.5 7.9 5.9zm167.1 5.1c11.8 12.2 13.6 14.3 12.1 14.3-3.4 0-28.2-24.7-28.2-28.1 0-1.8 5.2 2.7 16.1 13.8zm207.3-13.5c-2.6 4.6-12.9 15.9-19.4 21.3-7.9 6.6-9 7.3-9 5.5 0-1.4 26.7-28 28-28 .6 0 .8.6.4 1.2zm-20.9 3.8c.3.4-.2 1.4-1.1 2.1-1.3 1-1.7 1-2.5-.2-1.5-2.4-1-3.7 1.1-3.2 1.1.3 2.2.9 2.5 1.3zm45.9 2.5c2 4.1 2.2 11.9.4 11.3-1.5-.5-5.8-12.6-5.1-14.4.7-2 3-.5 4.7 3.1zM586 468.2c-.1 3.9-3.5 12.3-5.1 12.3-1.9 0-1.6-7.3.6-11.4 1.8-3.6 4.5-4.1 4.5-.9zm45.3-.2c-.6 2.1-2.8 2.7-3.8 1-.9-1.5.3-3 2.5-3 1.3 0 1.7.5 1.3 2zm346.7 3.5c-.6 2-2.6 5.5-4.4 7.8-2.1 2.7-3.5 5.9-3.9 8.8-.8 5.8-4.3 13.9-5.1 11.9-1.2-3.1-5.8-18.6-5.9-20.3-.2-1.3 2.5-3.2 9.8-7.1 5.5-2.9 10.2-5.1 10.3-5 .2.1-.1 1.9-.8 3.9zM474.2 490c-1.8 5.8-3.6 10.7-3.8 10.9-.8.8-3.7-7.5-4.2-11.9-.3-2.5-1.5-5.9-2.7-7.5-2.5-3.3-4.9-7.9-5.9-11.2-.6-1.8.8-1.3 9.7 3.5l10.3 5.7-3.4 10.5zM719 471.6c0 2.1-.4 3.3-1 2.9-1.7-1-1.1-6.5.7-6.5.2 0 .3 1.6.3 3.6zm-92.8 1.8c1.9 2.3 2.3 3.6.9 3.6-1.1 0-7.1-6.1-7.1-7.2 0-1.3 4.3 1.2 6.2 3.6zm187.9-1.6c-1.4 2.6-6.1 5.7-6.1 4 .1-1.7 2.1-4.2 4.5-5.5 2.5-1.4 2.9-1 1.6 1.5zm-30.5 12c.1 6.7.6 10.9 1.8 13.5 1.8 4.1.9 7.7-1.9 7.7-2 0-6.3-6.8-8.1-12.6-1.3-4.4-1.3-5.3.7-11.1 4.3-12.9 7.4-11.9 7.5 2.5zm46.5-3.2l-3.1 7.9-7.6 2.8c-4.1 1.6-7.8 2.7-8 2.4-.3-.3 2.4-2.6 5.9-5.1 3.6-2.5 7.3-5.9 8.2-7.4 3.2-5 6.7-9.3 7.2-8.9.2.3-1 4-2.6 8.3zm-221.2-.7c1.7 2.6 5.7 6.5 9.1 9 3.4 2.3 5.9 4.5 5.6 4.8-.3.3-3.8-.7-7.8-2.1l-7.4-2.7-2.3-6.7c-1.3-3.7-2.6-7.4-2.9-8.2-1-2.8 2.5.8 5.7 5.9zm49.8-.9c1.2 3 2.3 7.1 2.3 9.1 0 5.1-5.8 16.3-8.7 16.7-3 .4-3.9-3.2-1.8-8 .9-2.4 1.5-6.8 1.5-12.2 0-4.6.3-9.2.6-10.1 1.2-3 3.9-1 6.1 4.5zm385.7-.5c9.3 10.1 15.5 24.2 15.6 35.4v6.5l-5.2 5.1c-6 5.7-11.4 8.6-22 11.5-7.6 2.1-20.2 2.7-21.3 1-.3-.5.5-2 1.7-3.3 2-2 3.8-2.5 10.7-3 9.4-.6 16.4-3.5 23.7-10 4.3-3.7 4.4-4.1 4.4-9.8 0-9.1-3.3-17.6-9.6-24.8-4.3-4.9-5.4-6.9-5.4-9.7 0-4.8 2.4-4.4 7.4 1.1zm-645-1c.8 3.1-.5 5.7-5.5 11.1-2 2.3-4.4 5.5-5.2 7.1-2.2 4.2-4.7 14.4-4.7 19.1 0 3.5.6 4.5 4 7.4 7 6.1 14.2 9.1 23.6 9.8 6 .5 9 1.2 10.4 2.5 4.9 4.4.7 6.3-10.5 4.6-14.5-2.1-27.7-8.3-32.9-15.4-3-4-2.7-14 .6-22.8 3.9-10.4 15.1-25.9 18.8-25.9.4 0 1.1 1.1 1.4 2.5zm176.7.6c1.2 4.3.9 12.5-.5 14.4-.8 1.1-1.9 1.6-3 1.2-3.2-1.2-1.6-19.5 1.6-18.5.7.3 1.5 1.5 1.9 2.9zm287.2-1.7c2.3 6 1.8 17.6-.8 17.6-1.7 0-4.5-5-4.5-8 0-6.9 3.7-13.7 5.3-9.6zM597 491.2v8.8l8.3.1c9.5.1 14.4 1.3 8.7 2.2-1.9.3-7.5 1-12.3 1.4l-8.9.9.6-7.6c.4-4.1.9-9.7 1.2-12.4.9-7.5 2.4-3.5 2.4 6.6zm6.6-5.7c2.3 5 3.2 5.9 8.7 8.5l6.2 3-8.2-.3c-4.5-.1-8.5-.5-8.9-.9-.9-1-1.9-15.8-1-15.8.4 0 1.9 2.5 3.2 5.5zm72.5-3.2c-1.3 1.3-2.6.3-1.6-1.2.3-.6 1.1-.8 1.7-.5.6.4.6 1-.1 1.7zm48.7.4c8.3 2.9 15.6 15.3 13.6 23.1-.9 3.7-1 3.7-5.8 3.4-6.2-.3-7.3-1-10.5-6.7-1.4-2.7-3.1-5-3.8-5.2-.7-.3-2.6 2.1-4.4 5.1-3.2 5.9-4.8 6.8-11.8 7-3.5.1-3.6 0-4.5-4.5-.7-3.9-.5-5.4 1.2-9.1 1.2-2.4 3.9-6.1 5.9-8.2 3.9-4 11.7-7.8 14.3-6.9.8.3 3.4 1.2 5.8 2zm36.2-1.1c0 .8-.5 1.2-1 .9-.6-.4-.8-1.1-.5-1.6.9-1.4 1.5-1.1 1.5.7zm74.4 5.6c-.4 4-1 7.6-1.3 8-.4.5-4.2 1.1-8.6 1.5-9.1.7-9.4-.3-1-3.7 3-1.2 5.5-2.6 5.5-3 0-1.7 4.2-10 5.1-10 .5 0 .7 2.8.3 7.2zm7 11.7l.6 5.4-5.7-.6c-3.2-.3-8.9-.9-12.7-1.3-9.3-.9-6.5-2.4 4.5-2.4h8.6l.5-8.9c.7-11.6 2.1-13.8 3-4.6.3 3.8.9 9.4 1.2 12.4zm7.1-5.4c2.6 6.6 6.9 16.2 9.6 21.4 2.7 5.2 4.7 9.6 4.5 9.8-.2.2-4.8-1.8-10.2-4.5-5.5-2.7-14.8-6.8-20.9-9.2-6-2.4-11.4-4.7-12-5.3-1-1 16.8-.2 22.8 1 2.7.5 2.9.4 2.3-1.3-.9-2.2-2.1-25.1-1.3-24.4.3.3 2.6 5.9 5.2 12.5zm-283-7.8c.4 2.1 1.4 6.2 2.3 9.1 1.5 4.9 1.5 5.5 0 8-2.6 4.3-4.3 3.8-6.8-1.9-2.5-6-2.4-12.2.4-16.4 2.3-3.5 3.4-3.1 4.1 1.2zm25.1 5.8c-.3 5.2-.9 10.8-1.3 12.6l-.6 3.1 4.9-.5c11.4-1.4 20.4-1.8 20.4-1 0 .4-3.9 2.3-8.8 4.2-4.8 1.8-14.3 6-21.1 9.3-6.8 3.2-12.5 5.7-12.8 5.5-.2-.3 1.9-4.9 4.6-10.3 2.7-5.5 6.8-14.6 9.1-20.4 6.2-15.5 6.6-15.7 5.6-2.5zm282.4-5.9c2.1 4.2 1.7 11.1-.9 16.2-2.5 4.9-3.9 5-6.3.3-1.5-3-1.5-3.5.3-8.6 1-3 1.9-6.5 1.9-7.8 0-4.7 2.6-4.7 5-.1zm-392.1 5.2c-.8 2.6-1.3 7.6-1.2 11.1.1 5.3.8 7.7 4.3 14.7 4.6 9.3 14 20.3 19.9 23.4 9 4.5 23.9 5 32.9.9 2.5-1 5.2-1.9 6.1-1.9 2.1 0 5.7 3.3 6.6 5.9.3 1 1.6 2.2 2.8 2.5 1.2.3 3 1.8 3.9 3.3 1.5 2.7 1.5 3.1-.9 8.7-3.1 7.5-3.5 20.5-.8 28.8 2.4 7.2 14.1 18.9 23.7 23.6 10.2 5 16 5.9 24.9 3.9 8.3-1.8 11.6-.7 5.6 1.8-14.7 6.1-44.2 6.4-55.7.5-8.7-4.5-17.9-15.5-22.6-27.1-2.6-6.4-3.1-10.6-1.9-18.7.4-3 .3-5.2-.2-5.2s-3.5.5-6.7 1.1c-4.6.8-6.7.7-11.4-.6-14.2-4.1-28.9-16.1-33.3-27.1-2.1-5.3-2.3-7.5-2.4-22.9 0-15.1.3-17.8 2.4-24.5 3.2-10.4 6.9-12.4 4-2.2zm310.2-2.3c2.5.8 2.4 1.8-.6 5.2-2.4 2.7-2.5 2.8-4 .9-1.8-2.4-2-7.7-.3-9.4 1-1 1.5-.9 2.2.7.5 1.1 1.7 2.3 2.7 2.6zm164.2-.3c3 8.2 3.8 12.4 4.4 23.3 1.1 21.3-2.3 32.1-13.2 42.4-11.8 11-26.3 16-38.3 13.3-4.2-1-4.4-1-3.7 1.1.3 1.2.9 4.9 1.2 8.2.4 4.9 0 7.2-2.1 12.8-5.2 13.8-15.8 25.7-26.4 29.8-7.8 3-28.1 3.8-39.8 1.6-9-1.7-15.4-4.1-15.4-5.6 0-1.4.6-1.4 8.6.5 7.4 1.7 12 1.3 19.7-1.7 11.3-4.5 23.5-14.8 27.7-23.4 2.1-4.3 2.4-6.4 2.5-16 0-9.5-.3-11.7-2.4-16.4-2.7-6-2.4-7.3 2.7-10.6 1.7-1.1 3.5-3 4.1-4.2.5-1.2 2.1-2.9 3.5-3.8 2.3-1.5 2.7-1.5 6.4.4 8.8 4.5 23.7 4.6 33.5.3 8.4-3.7 19.2-16.9 23.8-29.1 2.1-5.6 2.2-11.6.3-23.4-.8-5 .9-4.7 2.9.5zm-306.8-1c.3 1.3.2 3.6-.3 5.3-1.1 3.8-4.1 4-6.1.4-1.3-2.3-1.2-2.7 1-5.1 3-3.3 4.7-3.4 5.4-.6zm-155.4 2.4c2.3 1.2 2.7 2.1 3.1 7.8.4 4.7 1.6 8.7 4.1 13.8 4.7 9.9 9.4 15.1 17.3 18.9 6.1 3 6.9 3.2 14 2.6 6.7-.6 7.5-.5 7.2 1-.2.9-1.9 2.6-3.8 3.7-5.3 3.1-20.4 2.9-27.8-.3-6.7-3-16.1-13-20.5-22-2.8-5.8-3.2-7.5-3.1-14.6 0-4.4.6-9.3 1.2-10.8 1.3-3 2.6-3 8.3-.1zm456 1.1c.7 2.1 1.3 6.7 1.3 10.3 0 5.3-.5 7.7-3.1 13-4.7 9.5-12.4 18.4-18.6 21.5-10.4 5-23.6 5.7-30.5 1.5-5.7-3.5-4.2-4.8 5.1-4.6 7.1.1 8.9-.3 13.3-2.6 2.8-1.5 7.1-4.9 9.4-7.5 5.3-6 11-17.5 11-22.4 0-6.9 1-9.5 4.3-11.2 5-2.5 6.4-2.1 7.8 2zm-392.5 3.9c.6 3.2 2.1 8.1 3.3 10.9 2 4.3 2.1 5.5 1.1 8.5-1.7 5-4.4 8.4-6.3 7.7-3-1.2-6.1-11.5-6.1-21-.1-8.2.1-9 2.3-10.8 1.3-1.1 2.9-1.8 3.5-1.6.5.2 1.5 3 2.2 6.3zm327.7-2.6c2.3 4.5 1.8 14-1.3 22.2-3.5 9.4-5.9 9.8-9.5 1.7-2-4.3-1.9-5.1 1.9-15.9.9-2.5 1.8-6.2 2.1-8.3.5-3.2 1-3.8 2.8-3.5 1.3.2 2.9 1.7 4 3.8zm155.1-1.1c3.5 3.6 7.6 14.8 7.6 20.5 0 3.8-.5 4.8-3.7 7.6-2 1.8-6.2 4.4-9.2 5.8-6 2.8-15.1 4.2-15.1 2.4 0-3 2.6-6.2 6.2-7.7 2.2-.8 5.8-3 8-4.8l4-3.2-.6-5.9c-.3-3.3-1.3-7-2.1-8.2-1.8-2.7-1.8-3.4-.5-6.8 1.2-3.3 2-3.3 5.4.3zM402 494.8c0 1.3-.5 3.3-1.2 4.5-.7 1.2-1.5 4.6-1.8 7.6-.6 5.2-.5 5.6 2.4 8.2 1.7 1.6 5 3.6 7.4 4.5 5 2 8.5 7 5.7 8-4.6 1.8-16.6-2.4-23.5-8.2-3-2.6-3.2-3.1-2.6-7.3 1.1-7.8 3.9-15.1 7.5-19.3 3.2-3.7 3.5-3.9 4.8-2.2.7 1 1.3 2.9 1.3 4.2zm295-3.1c0 1-2.5 4.1-5.6 6.9-3 2.8-6.8 7.6-8.3 10.5-2.2 4.2-3.3 5.5-5.4 5.7-2.4.3-2.7 0-2.7-2.7 0-4.3 3.6-13.4 6.3-15.9 2.8-2.6 10.5-6.1 13.5-6.2 1.4 0 2.2.6 2.2 1.7zm51 .4c2.4 1.1 5.3 2.8 6.4 3.7 2.9 2.6 6.6 11.2 6.6 15.4 0 3.4-.3 3.8-2.5 3.8-2.1 0-2.9-.9-4.6-4.7-1.2-2.9-4.5-7.1-8.5-10.9-3.5-3.4-6.4-6.9-6.4-7.8 0-2.2 3.5-2 9 .5zm-168 6.1c-1.2 3.4-4.9 11.6-8.1 18.1-3.3 6.6-5.9 12.6-5.9 13.3 0 2.5 3.8 1.5 13.3-3.6 11-5.7 24.4-11.2 26.4-10.8.8.2-5 4.3-12.8 9.2C571 538 555 544.9 555 540.7c0-3 5-15.1 9.7-23.2 6.8-11.9 16.5-26.7 17.1-26.1.3.3-.5 3.4-1.8 6.8zm281.7 4c11.4 17.9 20.9 37.5 19 39.4-1.2 1.2-8.4-1.2-17.1-5.5-12.1-6.1-35.1-20.5-33.3-20.9 2-.4 14.7 4.8 26.3 10.8 5.4 2.7 10.6 5 11.7 5 2.5 0 1.9-1.7-5.4-16.5-6-12.2-10.4-23.5-9.1-23.5.4 0 3.9 5.1 7.9 11.2zm73.1-4.9c.6 9.2-8.8 24.1-18.1 28.9-2.2 1.1-6.3 2.2-9.2 2.5-4.9.5-5.4.3-7-2-1.4-2.2-1.4-3.1-.4-6.5 1.1-3.9 1.2-3.9 7.3-4.6 9.4-.9 15-6.4 16.2-15.7.7-5.1 1.5-6.3 4.9-7.2 4.9-1.2 6-.5 6.3 4.6zM510 495c1.1 1.1 2 3.3 2 4.8 0 3.7 3.9 11.1 7.1 13.5 1.6 1.1 5.1 2.1 8.8 2.4 5.4.5 6.4.9 7.2 3 1.4 3.7 1.1 7.9-.7 9.4-4.3 3.6-17.2-.8-23.5-8-6.8-7.6-11.8-19.4-10.5-24.5.5-2.2 1.2-2.6 4.1-2.6 2.2 0 4.3.8 5.5 2zm35 1.7c0 6.3 2.8 17.1 6.1 24.3 3.4 7.4 3.5 12.5.2 15.1-1.3 1.2-2 .9-4.8-2.4-4.5-5.2-7.5-13.7-8.5-24.1-.9-9.3-.2-13.1 2.7-15.4 3-2.2 4.3-1.4 4.3 2.5zm351-1.7c1.9 1.9 2 3 1.6 11.8-.5 10.9-2.7 18.6-7.3 25.4-1.6 2.4-3.5 4.3-4.3 4.3-.8 0-2.3-1.7-3.4-3.8l-1.8-3.8 3.2-7c4.1-8.9 6-16 6-22.5 0-7 2-8.4 6-4.4zm-362.2 2.8c.5 4.9-1.7 13.9-3.5 14.6-2.3.9-9.1-1.2-11.3-3.6-2.6-2.8-4.3-8.3-3.6-11.3.7-2.8 2.7-3.3 11.6-3.1l6.5.1.3 3.3zm386 .9c.6 7.8-4.7 13.3-12.7 13.3-2.6 0-3.1-.5-4-3.8-.6-2-1.1-6.1-1.1-9v-5.3l8.8.3 8.7.3.3 4.2zm113.6 3.9c.3.9.6 3 .6 4.7 0 2.5-.8 3.7-3.3 5.4-1.8 1.3-3.6 2.3-4 2.3-.4 0-.7-1.8-.7-3.9 0-2.8.8-4.9 2.6-7 2.9-3.5 3.9-3.8 4.8-1.5zm-624.8 4.5c1.8 3.6 1.8 7.9 0 7.9-.7 0-2.6-1-4.1-2.1-2.3-1.9-2.6-2.6-2-5.8.4-2 .9-3.9 1.2-4.4.7-1.1 3.2 1.1 4.9 4.4zm311.1-3.5c.8 2.1-1.3 4.2-2.8 2.7-1.3-1.3-.5-4.3 1.1-4.3.6 0 1.3.7 1.7 1.6zm-26.3 3.9c.1 3.4-.3 4.1-2.5 4.9-3.1 1.1-5.9.2-5.9-1.8 0-1.9 5.7-7.9 7.1-7.4.7.2 1.3 2.2 1.3 4.3zm54.7-1.6c4.6 4.7 3.3 8.2-2.6 6.7-2.2-.6-2.5-1.2-2.5-5.1 0-5.3 1.1-5.6 5.1-1.6zm-27.4 4.7c3.4.9 1.7 2.4-2.7 2.4-4.1 0-6.3-1.5-3.3-2.3 2.7-.7 3.6-.7 6-.1zm-89.9 2.1c-.6 3.3-12.6 7-14.3 4.3-1-1.6-.4-2 5.7-4.1 6.8-2.4 9-2.4 8.6-.2zm167.9.3c1.8 1 6 5.4 9.4 9.7 15.4 19.4 19.7 29 20.6 46.3 1.1 21-6.3 43.2-15.2 45.4-1.3.3-5.1-.3-8.4-1.3-20-6.2-39.9-26.4-45.5-46.1-2.3-8.3-4.9-27.8-4.4-33.2.6-5.8 3.1-9 6.7-8.6l2.6.3-.4 12c-.3 10.9-.1 12.8 2.3 19.8 5.9 17.5 12.6 26.4 24.8 32.4 8.7 4.3 14.5 5.8 16.5 4.2 2.1-1.8 5.9-9.6 7.8-16.3 3.6-12.2 1.9-23-6-38.6-3.7-7.3-4.8-8.6-13.3-16-7.6-6.5-8.9-9.4-4.9-11 3.2-1.3 3.9-1.2 7.4 1zm14.6-.4c5.7 1.9 7.7 4 4.8 4.9-3.9 1.2-14.1-2.8-14.1-5.7 0-1.3 4.2-.9 9.3.8zm-167.5.6c2.2 2.2 1.3 3.6-6.3 9.8-8.5 7.1-12.2 12.3-17.2 24.6-4.3 10.7-5.1 18.2-2.9 27.7 1.8 7.6 6.9 18.5 9.2 19.4 2.5.9 15.1-3.8 21.6-8.1 7.9-5.3 12.5-11.3 17.4-22.9 3.8-9.1 3.9-9.4 4.1-22.7 0-7.4.1-14.1.2-14.8.2-2.2 4.9-1.3 7 1.4 2.6 3.3 2.7 10.1.5 25.7-2.8 19.4-8.7 31.2-21.8 43.4-12 11.2-28.1 19.1-35.7 17.6-6.3-1.2-12.5-14.6-15-32.6-1.8-12.8.8-27.3 7-39.4 2.9-5.8 16.3-23.4 20.6-27.2 3.8-3.3 9-4.2 11.3-1.9zm92.2 3.7c0 1.3-9 2.4-20 2.4-11.2 0-20.2-1.1-19.4-2.4.7-1.2 39.4-1.2 39.4 0zm-82.4 4.6c2.1 1.6 4.6 2.5 6.8 2.5 4.5 0 5.3 1.6 6.2 11.7 2.1 25.7-11.9 48.5-33.6 54.3-4.3 1.2-4.5 1.1-6.7-1.7-3.5-4.3-6.3-14.4-6.3-22.8 0-14 5.8-26.3 18.1-38.1 6.2-5.9 9.4-8.3 11.3-8.4.5 0 2.4 1.1 4.2 2.5zm140.3 6.2c18.3 18.5 22.9 38.3 13.3 57.3-2.7 5.2-3 5.5-6.3 5.2-5.4-.4-15-5.6-20.6-11.3-9.9-9.9-14.5-22.5-14.5-39.1.1-13.7.9-15.8 6.4-15.8 1.5 0 4-1.1 5.5-2.5 4.7-4.1 6.7-3.4 16.2 6.2zm-177-6.6c6.4 2.3 2.3 4.9-7.8 4.9-7.8 0-9.7-1.3-6.1-4.2 2.5-2.1 9-2.4 13.9-.7zm212.7 1c1.6 1.7 1.6 2.2.4 2.9-2 1.3-12.2 1.3-15.4 0-5.7-2.1-1.5-4.8 7.5-4.9 4.4-.1 6 .3 7.5 2zm-120 5c4.4.8 7.8.8 13.2-.1 4.1-.6 7.6-.9 7.9-.6.3.3-2.9 2.1-7.1 4l-7.6 3.5-7.5-3.4c-10.2-4.7-10-5.5 1.1-3.4zM604 529c3 1.1 6.7 1.9 8.3 2 3.8 0 3.4 2.4-.7 4.4-4.7 2.2-11.1 2-16.3-.5-5-2.4-5.4-3.8-1.5-6.1 3.4-2.2 3.5-2.2 10.2.2zm238.4.1c3.3 2.6 2.4 4.1-4.1 6.3-5.9 2-8.3 2-13.3 0-4.6-1.9-5.2-4.1-1.2-4.9 1.5-.3 4.7-1.2 7.2-1.9 6.4-2 8.4-1.9 11.4.5zm-129.6 6l5.2 2.1 5.5-2.2c3.1-1.2 5.8-2 6.1-1.8.5.6-10.4 10.8-11.5 10.8-1.3 0-12.7-10.9-11.5-11 .6 0 3.4 1 6.2 2.1zm-24 1.6c2.5 3.6 5.4 10.4 4.7 11.2-1.9 1.9-8.5-6.7-8.5-11 0-3.6 1.3-3.7 3.8-.2zm62.5.8c-.4 5.6-8.3 14.1-8.3 9 0-1.6 3.5-9 5.3-11.3 1.6-2 3.2-.8 3 2.3zm103.2-1.6c2.2 1 4.6 2.5 5.3 3.4 1.2 1.4.9 1.9-2 3.7-5.2 3.2-10.6 4.5-19.1 4.5-7.4 0-8-.2-10.3-2.8-1.3-1.6-2.2-3.2-1.9-3.7.2-.4 2.9-1.1 5.8-1.4 2.9-.4 7.5-1.8 10.2-3.1 6.1-2.9 7-2.9 12-.6zM593.4 537c2.5 1.2 6.9 2.4 9.7 2.7 5.8.7 7.2 2.5 4.2 5.5-2.9 2.8-8.6 3.8-15.7 2.7-7.2-1.2-16.6-5.2-16.6-7.1 0-2 6.9-5.8 10.6-5.8 1.7 0 5.2.9 7.8 2zm118.4 6.5l7 6.5 2.2-3c2.6-3.6 10.8-10.5 11.6-9.7.4.3-1.8 3.4-4.7 6.9-3 3.5-6.3 7.6-7.5 9.2l-2 2.8-7-8.4c-8-9.5-8.9-10.8-7.6-10.8.5 0 4.1 2.9 8 6.5zm1.4 10.2l4.9 6.3 5.8-7.3c6.3-7.8 11.1-12.6 11.1-11.1 0 .6-2.5 6.8-5.5 13.8-3 7-6.7 16.8-8.2 21.7-1.5 4.9-3 8.6-3.4 8.2-.4-.5-1.7-4.1-2.9-8.2-1.2-4-4.8-13.7-8.1-21.4-3.2-7.7-5.9-14.2-5.9-14.5 0-1.1 7.2 6.4 12.2 12.5zm-137.4-7.8c6.9 3.4 17.1 6.1 23.5 6.1 3.9 0 4.7.3 4.7 1.8 0 2.1-2.5 4.7-5.5 5.6-1.1.3-6.4.2-11.7-.3-10.1-1-19.6-4.5-24.5-9.1-3.1-2.8-2.9-3.8 1-5.5 4.6-2 6-1.9 12.5 1.4zm297.3-1.4c2.5 1.3 2.8 1.9 1.9 3.5-2.4 4.4-17.7 10.9-26.3 11-2.3.1-6.2.2-8.6.3-3.6.1-4.8-.4-6.7-2.7-2.9-3.3-2.4-4.6 1.9-4.6 5.7 0 16.8-2.9 23.1-5.9 7-3.4 10.5-3.7 14.7-1.6zM690.4 551c6.3 4 9.8 12 5.2 12-2.1 0-11.6-10.7-11.6-12.9 0-2.8.7-2.7 6.4.9zm61.9-2.4c1 1.1-1.2 4.6-6.1 9.6-5.2 5.4-7.2 6-7.2 2.2 0-3.9 1.7-6.2 6.8-9.5 4.8-3.1 5.5-3.3 6.5-2.3zm211.9 4c4.3 2.2 5 4.4 3.2 10.5-3 10.1-16.7 20.9-22.5 17.8-2.4-1.2-2.4-2.8.1-12.2 2.4-9.6 3-10.7 8.2-15.1 4.4-3.8 5.3-3.9 11-1zm-479.9 3.3c2.6 2.7 4.9 6.2 5.2 7.8.3 1.5 1.2 5.4 2 8.7 1.5 6.6 1.2 8.2-1.7 9.2-6.2 1.9-18.3-8.2-21.4-18.1-2-6.2-1.6-7.8 2.8-10.5 5.3-3.2 7.9-2.6 13.1 2.9zm507.8 2c1.1 5-.1 13.3-3 21.2-5.1 13.5-16.7 26.2-29.6 32.4-6.1 3-7.5 4.1-8 6.5-1.9 8.6-16.3 24-27.6 29.7-7.1 3.5-16.9 6.3-22 6.3-5 0-11.1-1.9-10.6-3.3.2-.7 3.9-1.9 8.3-2.8 14.6-3.1 27.3-9.5 33.9-17.2 4.3-5 7.4-13.1 8.2-21.3l.6-6.2 6.8-.4c8.6-.7 18.1-5.1 23.3-10.8 6-6.7 12.7-21.6 14.2-31.7 1.3-9.4 3.7-10.4 5.5-2.4zm-542.9 3.7c1.9 9.8 8.6 24.8 13.8 30.7 4.4 5.1 14.1 9.6 23.4 10.9l7.6 1.1v4.7c0 10.8 5.8 21.9 14.9 28.2 6.5 4.6 18.7 9.4 28.2 11.2 3.8.7 7.2 1.6 7.6 2 1.5 1.5-2 2.9-8.5 3.4-19.7 1.4-44.9-15.5-51.7-34.6-1.6-4.3-2.3-5.1-5.6-6.1-5.6-1.7-15.2-8.5-20.8-14.8-11.3-12.6-17.9-32.8-14.1-42.7 1.8-4.9 3.5-3 5.2 6zM711 576.9c4.1 12.6 5.9 17.1 7 17.1 1 0 4.7-8.7 7.5-17.8 3-9.6 7.8-20.7 9.4-21.7 1.3-.8 1.5-2-3.3 18.5-4.8 20.4-10.7 36-13.6 36-1.5 0-5.5-8.6-8.8-19-3.2-10-8.2-31.5-8.2-34.6.1-3.3 6.1 9.6 10 21.5zm-249.2-20.7c.7.7 1.2 2.1 1.2 3.2 0 3.1 4.7 12.5 8.4 17.1 1.9 2.2 5.7 5.3 8.4 6.8 4.3 2.3 6.1 2.7 11.3 2.5 6.2-.3 6.3-.3 9.3 3.7 1.7 2.2 5.2 5.7 7.8 7.7l4.6 3.7-1 4.3c-2.1 9.2 4.4 19.3 16.3 25.2 3.9 2 8.2 3.6 9.4 3.6 3.7 0 6.4 5.5 4.4 9.2-1.2 2.2-4.4 1.9-14.9-1.4-13.5-4.2-21.8-10.9-26.7-21.3-2.3-5-2.8-7.3-2.7-13.6l.1-7.7-5.7.5c-13 1.2-26.4-7-32.7-19.9-3.9-7.9-6.3-16-6.3-21 0-3.7.1-3.8 3.8-3.8 2.1 0 4.3.5 5 1.2zm521.2 1.4c0 8.6-7.7 26.3-14.4 32.7-6.2 6-14.8 9.3-24.1 9l-7-.1v8.2c0 15.8-7.9 26.1-25.2 32.8-9.7 3.8-18 4.8-18.9 2.4-.4-1-.3-3.1.2-4.8.8-2.7 1.7-3.4 5.4-4.3 10.2-2.7 19.3-9.4 23.1-17.2 1.8-3.7 2.1-5.5 1.5-10.4l-.6-6 4.4-3.1c2.5-1.7 5.9-5.1 7.7-7.6l3.2-4.5 5.7.6c4.9.5 6.5.3 10.8-1.9 2.8-1.4 6.7-4.3 8.7-6.6 3.5-3.8 8.5-12.9 8.5-15.5 0-.6.4-2.3 1-3.7.8-2.3 1.5-2.6 5.5-2.6 4.2 0 4.5.2 4.5 2.6zm-418.4 8.1c-.1 7.4.3 9.5 2.3 13.3 5.2 10 19.2 19.5 30.1 20.6 9.2.9 10 1.2 11.6 4.9.8 1.9 1.4 4 1.4 4.8 0 1.7-8.3 3.7-15.4 3.7-11.5 0-30.4-13.5-34.6-24.7-4.1-11-3.6-23.9 1.2-29.1 1.2-1.2 2.5-2.2 2.8-2.2.4 0 .7 3.9.6 8.7zm310.6-5.6c4.1 5.5 4 20.1-.1 29.4-4.7 10.6-23.8 23.4-34.9 23.5-4.5 0-13.1-1.8-14.5-3-.4-.4.1-2.8 1.2-5.3 1.9-4.4 2.3-4.7 5.9-4.7 12.9 0 28.4-8.7 34.7-19.5 3.2-5.3 4.6-13 3.5-18-1.4-6.1.6-7.3 4.2-2.4zm132.5-.4c2.9.8 5.5 1.8 5.8 2.2.6 1.1-6.2 7.9-9.8 9.8-1.6.8-3.8 1.3-5 1.1-2-.3-2.2-1-2.5-8.1l-.3-7.9 3.3.7c1.8.4 5.7 1.3 8.5 2.2zM401 559c1 .5 3.5 3.9 5.5 7.5 6.3 11.3 12.5 17.9 20.7 22 4 1.9 10 4 13.3 4.6 8.4 1.6 10.7 2.6 10.3 4.7-.5 3-7.6 5.7-14.9 5.6-19.4-.3-41.9-22.6-41.9-41.6 0-3.4.3-3.8 2.6-3.8 1.4 0 3.4.4 4.4 1zm38.3 5.2c-.1 3.5-.2 6.9-.2 7.5-.1 1.7-4.6 1.6-7.9-.1-4-2.1-9.8-8.4-8.6-9.5 1.3-1.3 10.4-3.9 13.9-4l3-.1-.2 6.2zm602-.4c-.5 12.3-13.3 29-26.9 35.4-11.5 5.4-26.1 4.9-29.3-1.1-1.4-2.6-.8-2.9 9.4-5.2 16-3.5 24.9-10.1 33.7-25.3 5-8.5 6.4-9.8 10.3-9.4 3 .3 3 .4 2.8 5.6zm-623.8-.1c7.5 10 11.2 12.7 18.8 13.8 4.3.7 5 1.2 6.7 4.6 3.2 6.1 2.8 7.3-2.3 6.6-8.5-1.2-15.8-4.8-21.7-10.8-5.9-6-10.6-14-9.6-16.5.9-2.3 5.6-.9 8.1 2.3zm272-.2c3.2 1.9 6.6 3.7 7.6 4 2.1.7 4.3 7.5 3 8.8-1.1 1.1-6.3-.5-10.8-3.3-4.4-2.7-9.5-13-6.4-13 .5 0 3.5 1.6 6.6 3.5zm64.5-2c0 5.5-5.8 12-12.9 14.4-4.8 1.6-5.1 1.5-5.1-1.9 0-3.2 3.7-8 6.2-8 .7-.1 3.1-1.4 5.3-3 4.5-3.3 6.5-3.7 6.5-1.5zm272.5-.5c1.2 2-3.8 10.3-9.9 16.5-5.3 5.4-7.1 6.5-14.1 8.8-12.4 4.1-13.5 3.8-10.3-3.5 1.8-4.1 2.5-4.8 5.7-5.4 8.8-1.4 11.2-3.1 20.8-14.7 2.3-2.7 6.6-3.6 7.8-1.7zm-448 1.2c2.1.9 2.5 1.8 2.5 5.2.1 5.4 3 11.8 6.8 14.5 1.7 1.2 5.6 2.6 8.6 3.3 6.2 1.2 7.3 2.1 8.2 6.6.6 2.7.3 3.3-2 4.3-5.4 2.5-18-2.6-27-10.9-6-5.6-9.9-19.5-6.4-23 1.5-1.5 6-1.5 9.3 0zm288.5.7c2.8 5.2-1 15.9-7.8 22.3-6 5.6-10.3 8.2-17.4 10.4-4.7 1.4-6.2 1.5-8.4.5-2.4-1-2.6-1.6-2-4.9.6-4.2 2.8-6.2 6.6-6.2 4 0 11.2-4.1 13.7-7.9 1.7-2.5 2.3-4.9 2.3-8.8 0-4.6.3-5.5 2.3-6.3 4.1-1.6 9.5-1.2 10.7.9zm-264.2 9c.2 6.1-.1 8.7-1 9.2-4.2 2.7-13.9-1.1-15.7-6.2-1.5-4.2-1.4-8.6.2-9.6 1.5-1 9.3-2.1 13.2-1.9l3 .1.3 8.4zm246.3-6.8c2.3 1.2 2.4 4.7.4 9.5-1.8 4.3-8.9 7.9-13.5 6.9l-3-.7v-18.1l7.1.7c3.9.3 7.9 1.1 9 1.7zm93.9 1.7c0 3.7-8.6 18.8-13.5 23.7-7.7 7.7-26.5 16.5-26.5 12.5 0-1.8 3.7-8.5 5.5-10 .9-.8 4.4-3 7.8-4.9 5.2-3.1 6.8-4.8 10.7-11.1 3.7-6 5.5-8 9.5-10.2 5.2-2.8 6.5-2.8 6.5 0zm-444.2.1c4.5 2.3 5.8 3.7 10.6 11.8 3.1 5.2 4.8 6.9 10 9.8 3.4 1.9 7.2 4.5 8.4 5.7 2.7 3 5.5 9.5 4.3 10.3-2.9 1.7-23.3-9.4-27.9-15.2-3.8-4.9-8.7-13.7-10.6-19-2.1-5.8-1-6.6 5.2-3.4zm185.4 5.8c1.1.9 5.6 3.5 10.1 5.8 8.1 3.9 8.2 4.1 10 9.4 1.1 3.4 1.4 5.8.8 6.4-2.5 2.5-18.6-6.2-23.2-12.6-5-6.9-3.2-14 2.3-9zm73.1.3c.8 3.3-3.4 10.2-8.8 14.2-5.2 4-15 8.2-16.6 7.3-1.4-.9-1.1-4 .7-8.6 1.5-3.6 2.5-4.4 9.8-7.8 4.4-2.1 8.7-4.5 9.5-5.4 1.8-2.3 4.8-2.1 5.4.3zm-237.8.5c3.7 1.8 5.5 5.1 5.5 10 0 2.7-.4 3.5-1.8 3.5-4 0-13.2-9.4-13.2-13.4 0-2.1 5.1-2.1 9.5-.1zm405.9.7c-1.2 3.8-3.6 7-7.8 9.9-5.5 4.1-6.6 3.8-6.6-1.7 0-3.7.5-5.1 2.9-7.5 2.4-2.4 3.8-2.9 7.6-2.9 4.4 0 4.6.1 3.9 2.2zM681.2 586c4.7 4.4 14.9 10.1 21.5 12.1 2.4.6 4.9 1.9 5.6 2.8 1.8 2 3.7 7.7 3 8.5-3 3-24.5-5.2-27.3-10.4-.6-1.1-2.4-2.7-4-3.5-3.3-1.7-6-6.1-6-9.8 0-4.9 1.8-4.8 7.2.3zm80.6.4c.3 3.9.8 3.2-10.3 13.6-4.9 4.6-17.7 10-23.7 10-2.2 0-2.8-.4-2.8-2.3 0-4.6 3.3-8.1 9.6-10.1 7.5-2.3 14.9-6.5 20.5-11.6 2.4-2.1 4.9-3.8 5.4-3.6.6.1 1.1 1.9 1.3 4zm-87.9 9.1c7.7 8.3 7.6 11-.3 14.6-4.1 1.8-7.7 1.4-12.2-1.6-5-3.3-4.9-4.9 1.2-11.4 3.1-3.4 6-6.1 6.4-6.1.4 0 2.6 2 4.9 4.5zm99.3 1.2c3.2 3.2 5.8 6.2 5.8 6.8 0 1.9-4.6 5.6-8.7 7-3.2 1.1-4.4 1.1-7.3-.1-4.3-1.8-7-4.8-6.3-7.3.5-1.9 9-12.1 10.1-12.1.4 0 3.2 2.6 6.4 5.7zm145.6 8.5c3.2 3.2 0 11.4-6.6 17.4-5.8 5.3-14.5 8.4-18.1 6.5-1-.6-2.7-3.1-3.6-5.5-1.7-4.4-1.7-4.5.5-7.6 3.1-4.3 9.7-9 12.9-9.1 1.4 0 4.4-.6 6.6-1.4 5.2-1.7 6.8-1.8 8.3-.3zM461.3 608c1.4 1.6 3.7 6 5.1 9.8 1.5 3.8 3.5 7.7 4.6 8.7 1 .9 5.1 3 9.2 4.6 11.4 4.7 15 9.2 8.3 10.5-13 2.4-24.6-2.7-30.3-13.3-3.3-6.3-3.9-11.2-2.6-19.6.8-4.5 2.4-4.7 5.7-.7zm68.6-1c5.8 1.5 8.2 2.7 11.3 5.7 2.2 2.1 4.3 4.5 4.8 5.4.9 1.6-2.2 9.8-4.3 11.1-6.1 3.9-23-7.3-25.6-17-2.1-7.7.4-8.7 13.8-5.2zm450.5 5.8c.8 7.1.7 7.6-2.4 13.8-3.3 6.7-7.8 11-15 14.1-3.9 1.7-17.4 1.3-19.3-.6-1.7-1.7 4.7-6.7 12.2-9.6 8.3-3.1 10.2-5 13.6-13.8 3.2-7.9 6.1-11.9 8.4-11.5 1.2.2 1.8 2.1 2.5 7.6zm-289.7-4.1c5.5 3.6 3.2 9-5.8 13.6-5 2.7-6 2.8-13.9 2.4-10-.6-16.2-2.6-21.4-6.8-4.5-3.8-4.5-6.5.2-9.2l3.3-2 4.5 3.3c8.7 6.2 16.2 6 23.2-.5 3.9-3.6 5.4-3.7 9.9-.8zm64.7.8c7 6.5 14.1 6.7 23.2.5l4.7-3.3 3.3 1.8c4.6 2.4 4.8 4 1.3 8-4.6 5.3-12.4 7.8-24 7.9-8.9.1-9.8-.1-14.5-2.9-5.6-3.5-7.8-6.9-6.3-9.7.9-1.7 6.5-5.8 8-5.8.3 0 2.3 1.6 4.3 3.5zm-53.4 6.7c0 6.9-8.9 17-19.3 21.9-7.2 3.4-14 3.8-24.9 1.4-13-2.7-18.7-6.5-24.5-16.4-2.5-4.2-2.5-4.5-.8-5.8 1-.7 3.3-1.5 5-1.9 2.7-.5 4.1.2 9.6 4.3 7.8 5.9 16.2 8.6 26.4 8.7 11.1 0 16.9-3.3 25.6-14.2 1.4-1.7 2.9-.6 2.9 2zm38.1 1.8c5 6.6 13.1 10.5 22.4 10.4 10.1 0 20.1-3.3 27-8.9 5.9-4.9 8-5.3 12.5-3 3.5 1.8 3.5 1.7 1.4 5.8-4.9 9.6-12 14.5-24.9 17.2-15.1 3.2-23.1 1.4-34.1-7.3-5.9-4.6-11-13.6-9.9-17.2.9-2.8 1.6-2.4 5.6 3zm-11.3-2.7c.5.7 1.7 3.4 2.6 6 2.3 6 10.8 15.4 17.4 19 7.5 4.1 13.8 5.1 23.8 3.7 16.3-2.1 25.9-7.4 32.4-17.6 3.7-5.9 6-7.9 6-5.3 0 2.5-7.4 15-12.4 20.9-6.6 7.8-16.6 16.4-22.7 19.5-9.3 4.8-22.9 5-36.2.6-8.2-2.8-14.1-7.1-18.4-13.4l-3.2-4.7-2.2 3.2c-3.7 5.4-8.2 9.9-11.9 11.8-10.6 5.4-27.7 7.8-37.7 5.1-12.7-3.4-36.6-28-40.8-41.9-1.2-4 1.4-2.4 4.9 3 4.2 6.5 8.8 10.9 14.2 13.6 11.8 5.9 30.8 7.4 39.8 3.2 7.9-3.8 16.1-12.2 20.2-20.6l3.5-7.2h9.9c6.3 0 10.2.4 10.8 1.1zm235.8 4c-1.5 3.7-6.6 7.7-9.8 7.7-2.2 0-2.2-1-.3-5.6 1-2.5 2.6-4 5.7-5.4 2.4-1 4.7-1.5 5.1-1.1.5.5.2 2.5-.7 4.4zM477 617.2c2 1.4 3.8 3.8 4.6 6 1.2 3.6 1.2 3.8-.7 3.8-4.9 0-10.9-5.7-10.9-10.5 0-2.2 3.2-1.9 7 .7zm147.3 12.5c2.6 5.2 4.6 9.8 4.2 10.1-.7.8-10.2-3.8-12.1-5.9-.9-1-3.8-2-6.7-2.4-2.9-.4-7.2-1.6-9.7-2.7l-4.5-2.1 10-3.2c5.5-1.8 10.9-3.3 12-3.3 1.5 0 3.1 2.2 6.8 9.5zm204.9-6.7c5.6 1.7 10.3 3.2 10.6 3.4.7.8-11 4.6-14.2 4.6-2.1 0-4 .8-5.5 2.3-2.3 2.5-11.7 7.4-12.6 6.5-.7-.7 9.5-19.8 10.6-19.8.5 0 5.5 1.4 11.1 3zM557 624.2c2.4 1.7 4 4.1 6 9.5 1.6 4 3.8 8.8 4.9 10.7 3.8 6.1 16.8 14.3 26.7 16.7 2.7.7 8.3 2.9 12.5 5 16.3 8.1 26.6 8.7 40.7 2.5 7.4-3.3 8.7-3.6 11.7-2.6 5.3 1.7 6 3.2 3.6 7.9-6.6 12.7-21 20.1-39.5 20.1-10.7 0-17.3-1.6-25.3-6-3.2-1.8-8.5-3.8-11.7-4.6-9.3-2.3-16.7-6.8-25-15.4-11.2-11.4-16.7-24.9-14.7-35.5 2.1-11 3.9-12.5 10.1-8.3zm330.4 2.5c4 11.6 0 25.7-10.6 38.2-7.6 8.8-15.5 14.3-25.1 17.3-4 1.2-9.2 3.5-11.7 4.9-7.7 4.6-13.8 6.2-25.1 6.7-8.1.3-12.1 0-16.5-1.3-12.9-3.7-22.1-10.7-25.9-19.8-1.4-3.5-1.4-3.7.7-5.1 4.7-2.9 6.5-2.8 15 .9 14.2 6.3 24.8 5.7 40.8-2.4 4.1-2.1 10.5-4.8 14.1-6 8.7-2.9 17.5-8.1 22.1-13.2 2.4-2.6 5-7.3 7-12.7 2.5-6.6 3.9-8.9 6.3-10.4 5.1-3.1 7.1-2.4 8.9 2.9zm-306.5 2.2c4.1 6 11.5 12.9 15.8 14.9 10.9 4.9 24.1 9.4 29 9.9 2.8.3 7.3 0 9.9-.6 4.3-1.1 4.9-1 8.5 1.4 4.4 2.9 7.4 6.9 6.4 8.6-1.1 1.7-10.5 5.8-15.2 6.5-8.3 1.2-21.5-2.5-30.3-8.6-1.4-.9-4.4-2-6.7-2.4-7.2-1.1-14.5-4.3-20.6-9.1-6.4-5.1-8.9-8.6-11.3-15.8-2.4-7.2-1.7-8 6.3-7.5 5.5.3 6.9.8 8.2 2.7zm289.7-1.6c.7 2-3.4 12.3-6.4 15.9-5.4 6.4-12.1 10.7-21 13.4-4.8 1.5-11.2 4.2-14.2 5.9-8.3 4.9-14.5 6.7-23.5 6.9-6.8.1-8.8-.3-13.7-2.7-3.1-1.5-5.8-3.4-6.1-4.2-.6-1.4 3.8-6.3 8-9.2 1.9-1.3 3-1.3 7.3-.2 7.2 1.8 14.9.3 29.8-6.1 12.4-5.3 14.9-7.2 24.4-18 2.4-2.7 3.2-3 8.8-3 4.1 0 6.2.4 6.6 1.3zm-274.3 3.2c4.5 2 10 3.8 12.2 4.2 2.2.3 5.6 1.7 7.5 3 1.9 1.2 6.6 3.5 10.5 4.9 3.8 1.5 7.7 3.3 8.5 4.1 1.3 1.3 1.3 1.6-.4 2.9-4.1 3-9.1 2-30.1-6-11.5-4.4-21.1-12.3-19-15.6.9-1.5 2.1-1.3 10.8 2.5zm253.7-1.6c0 4.4-7.8 10.5-17.6 13.8-2.7.9-5.8 2.2-7 2.9-3.6 2.4-13.6 5.4-17.9 5.4-2.2 0-5-.7-6.1-1.5-1.9-1.5-1.9-1.5 0-3 1-.8 5-2.6 8.7-4 3.7-1.5 8.7-3.9 11.1-5.6 2.4-1.6 5.4-2.9 6.8-2.9 1.4 0 5.9-1.6 10-3.4 8.8-4 12-4.4 12-1.7zm-348 17.5c0 .2.7 3.9 1.6 8.2 3.4 16.7 10.5 26.6 24.6 34.6 9.7 5.4 11.4 7.3 10.9 12.5-.2 2.1-9 1.5-15.1-1-17-7-30.2-24.6-30.2-40.3 0-5.8 2-11.9 4.6-13.6 1.2-.8 3.6-1.1 3.6-.4zm437.4 2.9c1.7 2.4 2.1 4.3 2.1 11 0 7.4-.4 9-3.4 15.2-7.1 14.5-23.3 26.6-35.8 26.9l-5.8.1.2-3.5c.2-3.9 1.1-4.8 10.2-9.9 14.1-8 21.4-17.7 24.6-32.9.9-4.2 1.8-8.3 2.1-9 .6-2.1 3.5-1 5.8 2.1zM514.8 654c2.3 1 4.2 2.1 4.2 2.3 0 .2.5 2.8 1 5.7 1.2 6.4 4.3 10.6 11.6 16.1 4.3 3.3 5.4 4.7 5.4 7s-.4 2.9-2.2 2.9c-4.7 0-16.6-9.1-20.4-15.5-2.9-5-6.4-14.9-6.4-18.2 0-2.8 1.2-2.9 6.8-.3zm412.7-1c.8 1.4-2.1 11.2-5 17-3.5 6.8-14.3 16-20.7 17.5-2.7.7-2.8.5-2.8-2.8 0-2.6.6-3.9 2.6-5.2 8.7-5.7 14.3-13.6 14.4-20.2 0-2.7.6-3.6 3.8-5.2 4.1-2.2 6.8-2.6 7.7-1.1zm-203.4 5.3c4.8 3.2 4.9 5.3.2 6.6-2.1.6-4.9 1.1-6.3 1.1-4 0-10-2-10-3.3.1-2 7.1-6.7 10-6.7 1.5 0 4.2 1 6.1 2.3zm187.1.6c1.6 1.4-1.3 7.8-5.3 11.9-2.3 2.3-4.6 4.2-5 4.2-1.3 0-5.3-14.4-4.6-16.4.5-1.2 13.6-1 14.9.3zm-371.8 1.8c-2 9-3.8 14.3-4.9 14.3-1.7 0-8.3-7.4-9.5-10.6-2.3-5.9-1.7-6.4 7-6.4h8l-.6 2.7zm11.3 1.2c1.9 2.8 2.3 4.8 2.3 11 .1 16.6 3.5 30.1 10.2 40.1 7.1 10.7 13.7 13.7 25.9 12 11.8-1.7 23.5-8.2 36.4-20.2 6.4-6 8.2-7.1 11.9-7.5 2.6-.3 4.6-.1 5 .6 1.2 1.9-4.6 11.2-10.9 17.6-6.7 6.8-14.2 11.9-22.5 15.5-7.4 3.2-21.9 3.9-31 1.6-23.4-6-38.3-29.2-36.7-57.1.5-10.1 3-17.8 5.5-17.3.9.2 2.7 1.8 3.9 3.7zm342 1.8c2.2 7.5 2.2 22.6-.1 31.3-4 15.8-13.6 27.9-27.5 34.8-7.4 3.7-7.6 3.7-20 3.7-12.1 0-12.9-.1-19.3-3.2-8.3-3.9-13.9-7.7-19.9-13.6-5.9-5.6-11.9-14.5-11.9-17.4 0-2 .5-2.3 4-2.3s4.8.8 11.7 7.1c9 8.1 17.5 14.2 23.9 17 6.6 3 16.9 4.9 22.7 4.2 4.3-.5 5.7-1.3 10.7-6.2 11-10.8 15.6-25.9 16-53.1 0-2.8 3.9-8 6-8 1.5 0 2.3 1.3 3.7 5.7zm-183 3.4l8.3 2.1 8.6-2.1c8.3-2.1 8.7-2.1 14-.4 3 .9 5.4 2 5.4 2.4 0 2.6-15.6 8.4-25.3 9.5-8.2.9-30.5-5.9-30.1-9.1.2-.9 7.7-4.3 9.9-4.4.5-.1 4.7.9 9.2 2zm-18.7 6.5c4.1 2.5 8 5.3 8.7 6.1 1.9 2.4-.2 5.2-5.5 7.5-7.9 3.5-22.4 1-27.1-4.6-1.6-1.9-.9-7.7 1.4-11.2 1.4-2.1 2.3-2.4 8.3-2.4 6.3 0 7.3.3 14.2 4.6zm76.6-2c1 1.4 1.8 4.4 1.8 6.7.1 3.6-.3 4.4-3.3 6.4-4.8 3.2-10.7 4.6-17.3 4-7.3-.6-12.2-3.4-12.6-6.9-.3-2.2.4-3.1 4.5-5.4 2.6-1.6 6.3-3.9 8.2-5.1 2.7-1.8 4.8-2.3 10.2-2.3 6.3 0 7 .2 8.5 2.6zm-204.8 3.8c1.4 1.8 2.1 4.7 2.4 10.4.7 8.9 4 16.6 10.3 23.9 4.1 4.9 5.3 5.1 15.7 2.8 8.8-1.8 12.1-3.5 19.2-9.6 4.7-4 6.5-4.9 8.9-4.7 4.6.5 4.4 2.5-.7 7.1-10.4 9.6-24.3 15.7-35.7 15.7-6.9 0-7 0-11.4-4.4-7-7.1-11.5-17.5-13.5-31.9-1.6-10.8.5-14.7 4.8-9.3zm315.2 3.3c-.1 14.1-6.3 30.7-14.5 38.2-4.2 3.8-4.8 4.1-10.4 4.1-3.2 0-8.8-.9-12.4-2-10.5-3.3-29.1-16.8-27.3-19.9 1.6-2.6 6.5-1.1 12.4 3.8 7.4 6.2 10.8 7.9 19 9.7 9.3 1.9 9.7 1.8 14-2.1 6.3-5.6 10.3-14.3 11.4-24.4 1-9.3 2.7-13.1 5.8-13.1 1.8 0 2 .7 2 5.7zm-144.9 6.9c4.9 7.2 15.7 9.3 28.2 5.4 3.5-1.1 7.7-3 9.2-4.2 2.7-2.1 2.8-2.1 6.1-.3 4.8 2.5 5.1 4.5 1.4 7.6-3.9 3.3-13.9 8.2-20.9 10.3-13.4 4-27.3-.1-35.7-10.5l-3.2-3.9-3.6 4.5c-2.4 2.9-6 5.5-10.4 7.7-6 3-7.5 3.3-15.2 3.2-9.6 0-15.5-1.9-26.1-8.3-6.9-4.2-8.1-6.2-5.4-9.1 2.8-3.1 5.1-3.3 9.2-.6 5.9 3.8 14.6 6 21.5 5.2 8.1-.8 12.3-2.8 15.2-7.3l2.6-3.9h12.1l12-.1 3 4.3zm133.2.7c-.3 5.7-4 14.1-8.3 19-3.8 4.4-7.3 4.8-17.1 1.7-5.9-1.8-13.9-7-13.9-9 0-.5 1.6-1.4 3.5-2 3-1 4-.9 6.2.5 1.4.9 5.1 1.9 8.2 2.2l5.6.5 3.7-4.7c2-2.6 4-6 4.3-7.6.6-2.8 4.9-6.2 7-5.5.6.2.9 2.4.8 4.9zm-291.6-2.8c1.2.8 2.4 2.8 2.8 4.4.3 1.6 2.2 4.8 4.2 7.1 3.7 4.2 3.7 4.2 9.4 3.7 3.1-.3 6.8-1.2 8.2-2.2 2.7-1.7 8-1.4 9.3.7 2.2 3.6-14.2 11.8-23.6 11.8-4.8 0-5.1-.2-8.5-4.8-6.4-8.7-9.9-22.2-5.7-22.2 1 0 2.7.7 3.9 1.5zm18.6 6.7c3.1 2.2 3.4 3.3 1.1 4.2-3.8 1.5-8.3.6-10.3-2-3.4-4.3-2.8-5.7 2.2-4.9 2.3.4 5.4 1.6 7 2.7zm260.7-2.5c0 .4-1 2.2-2.2 4-1.8 2.5-3 3.3-5.5 3.3-3.7 0-6.3-.9-6.3-2.1 0-1.7 7.6-5.9 10.7-5.9 1.8 0 3.3.3 3.3.7zm-196.2 10.9c7.6 5.1 21.2 10.2 29.2 11.1 9.1.9 17.3-2 26.8-9.5l4.3-3.4 4.4 3.6c9.4 7.7 21.5 11.1 31.2 8.7 8.9-2.2 18.5-6.4 25.1-10.8 8.3-5.7 9.2-6.1 9.2-3.4 0 3-8.2 11.5-14.4 15-9.2 5.2-18.8 7.6-30.6 7.5-8.4 0-11.7-.5-16.5-2.3-7.4-2.9-9.5-2.9-17-.1-16.3 6-40.1 1.8-53.2-9.5-4.7-4-8.8-10-7.8-11.5.7-1.2.6-1.2 9.3 4.6zm-.8 14.6c0 2.7-5.8 5.2-12.2 5.2-3.1.1-5.9-.2-6.3-.6-.8-.7 4.6-11 7.3-14.1 1.5-1.7 1.8-1.5 6.4 3 2.6 2.6 4.8 5.5 4.8 6.5zm137-4c2.2 3.5 4 6.9 4 7.5 0 3-10.2 2.8-16.1-.3-1.6-.8-2.9-2.1-2.9-3 0-1.7 7.9-10 9.8-10.2.7-.1 3 2.6 5.2 6zm-125 8.4c2.8 1.1 4 2.2 3.8 3.3-.2.9-3.8 3.4-8.1 5.6-6.3 3.2-9.2 4-14.7 4.3-7.5.5-16.2-1.1-19.8-3.4-2.3-1.5-2.3-1.6-.6-3.6 1.7-1.8 2.6-1.9 10.9-1.3 9.7.8 13.8-.2 19.2-4.5 3.1-2.4 4.1-2.5 9.3-.4zm109.6 1.6c4.2 3.1 5.2 3.3 12.2 3.2 4.2 0 8.9-.3 10.3-.7 1.9-.5 3.2-.1 4.7 1.4 1.2 1.1 2.2 2.4 2.2 2.8 0 1.8-8.9 4.4-17 4.8-7.5.5-9.2.2-14.9-2.1-6.4-2.6-13.1-7-13.1-8.5 0-1 6.8-4 9.2-4 1-.1 3.8 1.4 6.4 3.1zm-55.1-.5c1.9.9 3.5 2 3.5 2.4 0 .4-2 1.5-4.5 2.5-4 1.5-4.9 1.5-8.2.3-4.7-1.8-5.1-3.4-1.6-5.3 3.7-2 6.5-2 10.8.1zm-39.7 5.6c.7 5.8-5.6 13.6-14.7 18.1-7.8 3.9-13.2 4.9-23.8 4.4-11.4-.6-17.9-2.6-24.6-7.4-5.4-3.9-5.7-6-1.5-8.3 2.4-1.4 3.5-1.3 12 .9 17.8 4.7 28.9 3 43.4-6.5 3.8-2.5 7.3-4.4 7.9-4.2.5.2 1.1 1.5 1.3 3zm77.6 1.1c14 9.6 25.4 11.3 43.4 6.6 8.5-2.2 9.6-2.3 12-.9 3.7 2 3.4 4.6-.8 8-8 6.4-26.3 9.7-38.9 6.9-7.5-1.6-16.6-6.5-20.2-10.9-4.6-5.6-6.4-14.1-2.9-14.1.5 0 3.9 2 7.4 4.4zm-52.8.1c7.6 3.5 11.3 3.4 20.1-.4 7.8-3.3 14.3-4.1 14.3-1.7 0 .8-2.5 4.2-5.6 7.5-5.9 6.5-11.6 9.1-19.4 9.1-9.1 0-14.8-3.3-23.4-13.7-4.3-5.2 3.6-5.7 14-.8z" stroke-width=".4"/><path class="mandalaAni" d="M635.2 182.5c-.7 1.4-1.2 6.3-1.2 10.9 0 7.2.4 9.1 3 14.2 3.7 7.3 16.3 21.4 19.2 21.4 2 0 2.1-.3 1.5-12.8-.7-14.8-1.7-18.3-6.6-24.9-3.2-4.2-12-11.3-14.1-11.3-.4 0-1.2 1.1-1.8 2.5zm10.6 8.2c4.5 4.3 5.1 5.5 6.6 12 1.6 7.4 2.2 19.3.9 19.2-1.2 0-10.4-11.3-13-15.7-3.8-6.4-4.4-20.2-.9-20.2.8 0 3.6 2.1 6.4 4.7zM794.9 182.8c-4.8 3.1-10 8.6-12.4 13.2-2 3.8-3.5 14.4-3.5 24.7 0 7.4.2 8.3 1.9 8.3 3.1 0 16.6-15.6 20-23.1 1.5-3.1 2.1-6.6 2.1-12 0-7.2-1.4-13.9-2.9-13.9-.4 0-2.7 1.3-5.2 2.8zm4.6 12c0 7.9-2.1 12.1-10.9 22l-5.6 6.3v-6.6c0-14.2 3.9-24.1 11.4-28.6 4.1-2.5 5.1-1.2 5.1 6.9zM525.2 293.9c-5 1.3-5.6 2.4-3.7 6 2.7 5.2 8.5 11.1 13.7 13.7 5.2 2.6 15.2 4.3 25.9 4.4 7 0 9.4-1.2 7.9-4-1.4-2.7-17-15.5-21.7-17.9-4.8-2.4-16.7-3.6-22.1-2.2zm21.2 6c2.8 1.7 7.8 5.5 11.1 8.6l6 5.6-9-.5c-13.7-.7-18.1-2.1-23.7-7.7-7.3-7.3-6.6-8.6 4.6-8.8 4.8-.1 6.8.4 11 2.8zM894.6 294.1c-7.6 1.9-28.3 18.9-27 22.2.5 1.4 2.2 1.7 10.8 1.7 13.2 0 20.5-1.9 27.2-7.1 5.3-4.1 7.9-7.2 10-12 1.1-2.4 1-2.8-1.4-3.9-3.5-1.6-14.7-2.2-19.6-.9zm16 4.1c1 1-4.3 8.5-7.7 10.9-3.5 2.5-12.3 4.6-22.4 5.3l-8 .6 6.3-6c3.4-3.3 8.6-7.4 11.5-9 4.7-2.8 5.9-3.1 12.4-2.8 3.9.2 7.5.7 7.9 1zM684 296.1c.1.8.7 2.5 1.5 3.9 1.3 2.2 1.4 2.3 1.4.5 0-1.1-.6-2.9-1.4-3.9-1.1-1.4-1.5-1.6-1.5-.5zM751.2 297.2c-.7.7-1.2 2.1-1.2 3.2.1 1.8.3 1.7 1.6-.7 1.7-3.1 1.5-4.4-.4-2.5zM701 339.1c0 7.3-12.5 20-21.1 21.4-3.7.6-3.9.8-2.5 2.4 6 6.6 5.9 25.7-.1 32.3-1.5 1.7-1.5 1.8.8 1.8 7 0 20.3 12.5 21.5 20.2.4 2.1.9 3.8 1.1 3.8.3 0 1.6-.9 3-1.9 5.6-4.5 19.2-5 27-1 3.8 2 5.2 1.4 5.3-2.1 0-2.2 3.3-7.3 7.4-11.4 4.6-4.5 10.5-7.6 14.7-7.6h3.2l-2.2-2.4c-2.7-2.9-5.1-10.4-5.1-16.1 0-5.2 2.3-13.1 4.6-15.6 1.6-1.8 1.6-1.9-.2-1.9-8.2-.1-22.4-14.1-22.4-22v-2.2l-3.7 2.3c-3 1.9-5.5 2.4-12.8 2.7-8.1.3-9.5.1-13.7-2.2-4.6-2.5-4.8-2.5-4.8-.5zm10.5 5.6c5.5 1.5 12.8 1 18.4-1.3 1.8-.8 3.5-1.4 3.6-1.4.2 0 .9 1.5 1.5 3.4 1.6 5 8.5 12.3 14.4 15.3 2.8 1.4 5.2 2.6 5.4 2.8.1.1-.5 1.7-1.4 3.5-2.7 5.3-3 15.6-.6 21.7l2 5.2-5.3 2.6c-6.2 3-11.9 8.9-14.7 15.1l-1.9 4.4-3.1-1.6c-6.3-3.3-17.3-2.8-26.3 1.2-.6.2-1.7-1.2-2.4-3.3-1.9-5.2-10.4-13.9-15.6-15.8l-4.2-1.7 1.9-5.1c2.4-6.2 2.1-18.3-.5-23.3l-1.6-3.2 4.4-1.6c6.1-2.4 12.6-8.5 15.5-14.5 1.8-3.9 2.8-5 3.9-4.5.9.4 3.9 1.3 6.6 2.1z" stroke-width=".4"/><path class="mandalaAni" d="M698.7 359.4l-7.8 8-.1 11.8v11.7l7.8 7.8 7.8 7.8H729.1l8.2-8.2 8.2-8.2V366.8l-8-7.9-8-7.9-11.5.2-11.5.1-7.8 8.1zm16.7 3.2c2.8 3.4 2.9 3.4 4.9 1.7 1.1-1 3.1-3.5 4.4-5.7 2.8-4.3 5.1-3.8 3.3.8-.5 1.5-1 4.6-1 6.8v4.1l4.3-.6c2.3-.4 5.7-.9 7.5-1.3 4.8-1 4 1-2.3 5.1-3 2.1-5.5 4.3-5.5 5 0 1.4 5.5 6.5 7 6.5.5 0 1.6.7 2.5 1.6 2.2 2.2.2 3.6-3.2 2.3-1.4-.5-4.5-.9-7-.9h-4.5l.6 3.2c.3 1.8.8 5.3 1.1 7.8l.6 4.5-1.8-2.3c-1-1.3-3.3-4-5.1-6l-3.2-3.7-2.8 3.2c-1.5 1.7-3.5 4.3-4.6 5.8-2.3 3.3-4.1 2-2.6-1.9.5-1.5 1-4.6 1-6.8v-4.1l-5.2.6c-2.9.3-6.1.8-7 1.2-3 1.2-2.1-2.3 1-4 1.5-.8 4-2.6 5.6-4.1l3-2.6-2.5-2c-1.3-1-4.1-3-6.3-4.4-5.1-3.4-3.7-5.2 2.8-3.5 2.5.6 5.6 1.1 7 1.1 2.4 0 2.6-.4 2.6-3.9 0-2.2-.5-5.2-1-6.6-1.4-3.7-.1-5.5 1.9-2.6.9 1.2 2.9 3.8 4.5 5.7zm5.9-7c.6.6-1.9 6.4-2.8 6.4-.9 0-3.4-5.8-2.8-6.4.4-.3 1.6-.6 2.8-.6 1.2 0 2.4.3 2.8.6zm-15.3 6.3c1.8 3.4 1.3 5.3-1.2 4.5-4.2-1.2-5-2.5-3.2-4.5 2.2-2.4 3.1-2.4 4.4 0zm28.8-.7c1.7 1.7 1.5 4.8-.2 4.8-.8 0-2.1.3-3 .6-1.9.7-2.2-1.7-.6-4.7 1.2-2.2 2.1-2.4 3.8-.7zm-35.2 16.3c1.9 1.5 1.9 1.5 0 3-1.1.8-2.6 1.5-3.3 1.5-.8 0-1.6-.7-1.9-1.5-.8-2 .2-4.5 1.9-4.5.7 0 2.2.7 3.3 1.5zm42.4.9c0 1.4-.4 2.7-.9 3.1-1 .6-6.1-1.4-6.1-2.5 0-1.4 2.5-3 4.7-3 1.8 0 2.3.6 2.3 2.4zm-36 14.2c0 .8-.5 2.4-1 3.5-.9 1.5-1.5 1.7-3 .9-2.5-1.3-2.6-4.7-.2-5.3 3.3-.9 4.2-.7 4.2.9zm29-.6c1.2.7 1.2 1.3.4 2.7-1.7 2.7-4.6 2.2-5.5-1-.6-2.3-.4-2.7 1.4-2.7 1.2 0 2.9.5 3.7 1zm-15 5.9c1.7 3.3 1.2 5.1-1.4 5.1-3.2 0-4.1-1.6-2.5-4.6 1.5-2.9 2.5-3 3.9-.5zM636.4 345.5c1.1.8 3.1 1.5 4.5 1.5 2.4 0 2.4-.1.5-1.5-1-.8-3-1.4-4.4-1.4-2.4 0-2.4 0-.6 1.4zM795.6 345.5c-1.9 1.4-1.9 1.5.6 1.5 1.4 0 3.1-.7 3.8-1.5 1-1.2.9-1.5-.6-1.5-1.1 0-2.8.7-3.8 1.5zM795.5 411.9c1.7 1.1 3.9 2.1 5 2.1 3.2 0-.4-2.8-4.5-3.6l-3.5-.6 3 2.1zM636 412.5c-1.7 2 .9 2.1 3.6 0 1.9-1.4 1.9-1.4-.2-1.5-1.2 0-2.7.7-3.4 1.5zM867.5 440.9c-.9 2.8.5 4.3 11.5 13.2 4.6 3.8 10.4 7.5 12.9 8.4 8.3 2.8 24.1 1.4 24.1-2.1 0-5.4-11.4-16.6-19.2-18.9-2.7-.8-10.3-1.8-16.8-2.1-11.6-.7-11.8-.6-12.5 1.5zm29.5 4.6c4.8 1.7 10.3 6.4 12.6 10.7 1.4 2.7 1.3 2.7-2.3 3.7-2.1.6-5.2 1.1-6.9 1.1-4.8 0-14.6-5.5-21.5-12.1l-6.4-6 10 .5c5.5.3 12 1.2 14.5 2.1zM546 441c-3 .4-7.1 1.4-9.1 2.3-5 2-11.4 8.1-14.6 13.5-2.5 4.1-2.5 4.6-1 5.7 4.1 3 18.9 2.5 25.4-.8 7.6-4 23.1-18.6 21.8-20.7-.7-1.1-13.9-1.2-22.5 0zm11.5 7.7c-11.2 10.3-18.9 13.6-27.9 11.9-4.4-.8-4.5-2.1-.5-6.9 5.3-6.4 14-9.5 26.9-9.6h6.5l-5 4.6zM684.6 457.4c-.9 1.5-1.6 3.5-1.4 4.4.3 1.3.9.8 2.2-1.6 2.2-4.2 1.6-6.4-.8-2.8zM750 458.1c0 .8.7 2.4 1.6 3.5 1.4 1.8 1.5 1.8.8-.6-.8-3.1-2.4-5-2.4-2.9zM648.4 534.2c-8.3 8.9-12.3 14.3-13.9 18.8-1.8 5.1-1.9 18.3-.2 22.2l1.2 2.7 4-1.8c2.2-1 6.3-4.3 9.1-7.3 6.6-7.3 8.3-12.8 8.6-27.8.3-11 .2-11.5-1.8-11.8-1.4-.2-3.6 1.4-7 5zm5.3 9.5c-.9 12.2-2.8 18.1-7.4 22.4-4.7 4.5-7.9 6.3-8.8 4.9-.4-.6-.9-3.5-1.2-6.5-.5-4.5-.1-6.3 2-10.7 2.8-5.6 13.3-18.8 15-18.8.6 0 .8 3.2.4 8.7zM779.1 529.4c-1.4 1.7 0 22.4 1.9 28.8 2 7 13.3 18.8 17.9 18.8 3.8 0 5.5-14.8 2.6-22.9-.8-2.3-2.8-6.2-4.5-8.7-3.6-5.1-14.8-17.4-16-17.4-.4 0-1.3.6-1.9 1.4zm16.3 20.9c4 6.8 4.8 10.4 3.5 16.4l-1 5.3-2.8-1.5c-7.7-3.9-11.6-12.4-12.7-27.7l-.7-9.1 5.5 6c3.1 3.3 6.7 8.1 8.2 10.6z" stroke-width=".4"/></g></svg>